<svg width="99" height="99" viewBox="0 0 99 99" fill="none" xmlns="http://www.w3.org/2000/svg">
    <path
        d="M49.5 3.21031C58.6444 3.21031 67.5835 5.92195 75.1868 11.0023C82.7901 16.0827 88.7162 23.3036 92.2156 31.7519C95.715 40.2003 96.6306 49.4966 94.8466 58.4653C93.0626 67.434 88.6592 75.6723 82.1931 82.1384C75.727 88.6045 67.4887 93.0079 58.52 94.7919C49.5513 96.5759 40.255 95.6603 31.8067 92.1609C23.3583 88.6615 16.1374 82.7354 11.057 75.1321C5.97666 67.5288 3.26502 58.5897 3.26502 49.4453C3.26502 37.183 8.1362 25.423 16.8069 16.7522C25.4777 8.08148 37.2377 3.21031 49.5 3.21031ZM49.5 0.445313C39.8087 0.445313 30.3351 3.31911 22.2771 8.7033C14.2191 14.0875 7.93862 21.7402 4.22992 30.6938C0.521231 39.6474 -0.449133 49.4997 1.44154 59.0047C3.33222 68.5098 7.99902 77.2408 14.8518 84.0935C21.7046 90.9463 30.4355 95.6131 39.9406 97.5038C49.4457 99.3945 59.2979 98.4241 68.2515 94.7154C77.2051 91.0067 84.8578 84.7263 90.242 76.6683C95.6262 68.6102 98.5 59.1366 98.5 49.4453C98.4855 36.4542 93.3183 23.9993 84.1322 14.8132C74.9461 5.62703 62.4912 0.45987 49.5 0.445312"
        fill="white" />
    <path
        d="M50.2521 27.2505C48.1458 27.2503 46.0869 27.8747 44.3355 29.0447C42.5842 30.2147 41.2191 31.8778 40.413 33.8236C39.6068 35.7694 39.3958 37.9106 39.8066 39.9764C40.2173 42.0422 41.2315 43.9397 42.7207 45.4291C44.21 46.9185 46.1074 47.9328 48.1732 48.3438C50.2389 48.7548 52.3801 48.5439 54.326 47.738C56.2719 46.932 57.9351 45.5671 59.1053 43.8159C60.2755 42.0646 60.9001 40.0057 60.9001 37.8995C60.9003 36.501 60.6251 35.1163 60.0901 33.8242C59.5551 32.5322 58.7708 31.3582 57.782 30.3693C56.7932 29.3804 55.6193 28.596 54.3273 28.0608C53.0353 27.5257 51.6505 27.2504 50.2521 27.2505ZM50.2521 44.2795C48.9898 44.2801 47.7558 43.9063 46.706 43.2055C45.6563 42.5047 44.8379 41.5082 44.3545 40.3422C43.8712 39.1763 43.7444 37.8931 43.9904 36.6551C44.2363 35.4171 44.8439 34.2798 45.7363 33.3871C46.6287 32.4945 47.7658 31.8865 49.0037 31.6402C50.2416 31.3939 51.5248 31.5202 52.691 32.0032C53.8571 32.4862 54.8538 33.3043 55.5549 34.3538C56.2561 35.4034 56.6303 36.6373 56.6301 37.8995C56.6302 38.7372 56.4653 39.5667 56.1449 40.3407C55.8244 41.1147 55.3546 41.818 54.7624 42.4104C54.1701 43.0029 53.467 43.4728 52.6931 43.7935C51.9192 44.1142 51.0898 44.2794 50.2521 44.2795Z"
        fill="white" />
    <path
        d="M50.252 13.3574C45.3978 13.357 40.6524 14.7961 36.616 17.4928C32.5797 20.1894 29.4336 24.0224 27.5757 28.5071C25.7179 32.9917 25.2316 37.9266 26.1785 42.6877C27.1253 47.4487 29.4627 51.822 32.8952 55.2546C36.3276 58.6872 40.7008 61.0248 45.4618 61.9718C50.2228 62.9189 55.1577 62.4328 59.6425 60.5751C64.1272 58.7174 67.9604 55.5715 70.6571 51.5353C73.3539 47.499 74.7932 42.7537 74.793 37.8994C74.793 37.3478 74.5739 36.8187 74.1838 36.4287C73.7938 36.0386 73.2647 35.8194 72.713 35.8194C72.1614 35.8194 71.6323 36.0386 71.2423 36.4287C70.8522 36.8187 70.633 37.3478 70.633 37.8994C70.6325 41.9305 69.4365 45.8709 67.1965 49.2224C64.9565 52.5738 61.773 55.1857 58.0486 56.7279C54.3242 58.2701 50.2261 58.6732 46.2725 57.8864C42.319 57.0995 38.6875 55.158 35.8374 52.3073C32.9872 49.4566 31.0464 45.8248 30.2603 41.871C29.4742 37.9173 29.8782 33.8193 31.4211 30.0952C32.964 26.3711 35.5766 23.1881 38.9284 20.9487C42.2803 18.7094 46.2209 17.5142 50.252 17.5144C50.5288 17.5205 50.804 17.4712 51.0615 17.3695C51.319 17.2678 51.5536 17.1156 51.7515 16.922C51.9494 16.7284 52.1066 16.4972 52.214 16.2421C52.3213 15.9869 52.3766 15.7128 52.3766 15.4359C52.3766 15.1591 52.3213 14.885 52.214 14.6298C52.1066 14.3746 51.9494 14.1434 51.7515 13.9498C51.5536 13.7562 51.319 13.6041 51.0615 13.5024C50.804 13.4006 50.5288 13.3514 50.252 13.3574Z"
        fill="white" />
    <path
        d="M50.252 20.2451C47.9183 20.2203 45.6029 20.6585 43.4397 21.5343C41.2766 22.4102 39.3085 23.7063 37.6495 25.3477C35.9906 26.9892 34.6736 28.9433 33.7747 31.097C32.8759 33.2508 32.4131 35.5614 32.4131 37.8951C32.4131 40.2289 32.8759 42.5395 33.7747 44.6933C34.6736 46.847 35.9906 48.8011 37.6495 50.4425C39.3085 52.084 41.2766 53.3801 43.4397 54.2559C45.6029 55.1318 47.9183 55.57 50.252 55.5451C50.5359 55.5513 50.8182 55.5007 51.0823 55.3963C51.3464 55.2919 51.587 55.1358 51.79 54.9371C51.993 54.7385 52.1542 54.5013 52.2643 54.2396C52.3744 53.9778 52.4312 53.6966 52.4312 53.4126C52.4312 53.1286 52.3744 52.8475 52.2643 52.5857C52.1542 52.3239 51.993 52.0868 51.79 51.8881C51.587 51.6895 51.3464 51.5334 51.0823 51.429C50.8182 51.3246 50.5359 51.274 50.252 51.2801C47.6045 51.2811 45.0163 50.4969 42.8145 49.0268C40.6128 47.5566 38.8966 45.4664 37.8829 43.0207C36.8692 40.5751 36.6037 37.8837 37.1198 35.287C37.6359 32.6904 38.9105 30.3051 40.7823 28.4329C42.6542 26.5608 45.0393 25.2858 47.6359 24.7693C50.2325 24.2528 52.9239 24.518 55.3697 25.5313C57.8156 26.5446 59.906 28.2606 61.3765 30.4621C62.847 32.6635 63.6316 35.2517 63.631 37.8991H63.636C63.636 38.4654 63.8609 39.0084 64.2613 39.4088C64.6617 39.8092 65.2047 40.0341 65.771 40.0341C66.3372 40.0341 66.8802 39.8092 67.2806 39.4088C67.681 39.0084 67.906 38.4654 67.906 37.8991C67.9065 35.5806 67.4502 33.2847 66.5632 31.1426C65.6762 29.0005 64.3758 27.0541 62.7364 25.4147C61.097 23.7753 59.1506 22.4749 57.0085 21.5879C54.8664 20.7009 52.5705 20.2446 50.252 20.2451Z"
        fill="white" />
    <path
        d="M20.742 76.0814C20.2582 76.1083 19.7739 76.0363 19.3189 75.8697C18.8639 75.703 18.4477 75.4454 18.0956 75.1124C17.7436 74.7794 17.4632 74.3781 17.2716 73.933C17.0799 73.488 16.9811 73.0085 16.9811 72.5239C16.9811 72.0394 17.0799 71.5599 17.2716 71.1148C17.4632 70.6698 17.7436 70.2685 18.0956 69.9355C18.4477 69.6025 18.8639 69.3448 19.3189 69.1782C19.7739 69.0116 20.2582 68.9395 20.742 68.9664C21.5005 68.9694 22.2442 69.1767 22.895 69.5664L22.406 70.9194C21.9049 70.6305 21.3392 70.4723 20.761 70.4594C20.4856 70.4534 20.2119 70.5024 19.9557 70.6036C19.6996 70.7047 19.4662 70.8561 19.2694 71.0486C19.0725 71.2412 18.9161 71.4712 18.8093 71.7251C18.7025 71.9789 18.6475 72.2515 18.6475 72.5269C18.6475 72.8023 18.7025 73.075 18.8093 73.3288C18.9161 73.5827 19.0725 73.8126 19.2694 74.0052C19.4662 74.1978 19.6996 74.3491 19.9557 74.4503C20.2119 74.5515 20.4856 74.6005 20.761 74.5944C21.3692 74.5816 21.963 74.4066 22.481 74.0874L22.96 75.4454C22.2948 75.8614 21.5265 76.0828 20.742 76.0844"
        fill="white" />
    <path
        d="M27.858 76.0812C27.3887 76.1002 26.9207 76.0209 26.4839 75.8483C26.0472 75.6758 25.6513 75.4138 25.3217 75.0793C24.9921 74.7447 24.7362 74.3449 24.5702 73.9056C24.4042 73.4663 24.3319 72.9971 24.358 72.5282C24.3386 72.0553 24.4175 71.5835 24.5897 71.1426C24.7619 70.7017 25.0236 70.3012 25.3583 69.9665C25.693 69.6318 26.0934 69.3701 26.5343 69.198C26.9752 69.0258 27.447 68.9469 27.92 68.9662C28.3896 68.9485 28.8578 69.0291 29.2946 69.2026C29.7314 69.3762 30.1272 69.639 30.4566 69.9743C30.786 70.3095 31.0418 70.7099 31.2077 71.1496C31.3736 71.5894 31.4459 72.0589 31.42 72.5282C31.4376 73.0003 31.3574 73.4709 31.1845 73.9106C31.0116 74.3502 30.7497 74.7494 30.4152 75.083C30.0808 75.4166 29.681 75.6775 29.2409 75.8493C28.8008 76.0211 28.33 76.1 27.858 76.0812ZM27.886 70.3952C27.4497 70.3263 27.0028 70.3928 26.6055 70.5857C26.2082 70.7786 25.8796 71.0887 25.664 71.4741C25.4483 71.8595 25.356 72.3018 25.3994 72.7413C25.4429 73.1808 25.62 73.5964 25.907 73.9321C26.1939 74.2679 26.5769 74.5076 27.0042 74.619C27.4316 74.7303 27.8829 74.708 28.2972 74.555C28.7115 74.4021 29.0689 74.1258 29.3214 73.7634C29.5738 73.401 29.7091 72.9699 29.709 72.5282C29.7402 72.2665 29.7169 72.001 29.6405 71.7487C29.5641 71.4964 29.4362 71.2627 29.2649 71.0623C29.0936 70.8618 28.8826 70.6991 28.6453 70.5843C28.408 70.4695 28.1494 70.4051 27.886 70.3952Z"
        fill="white" />
    <path
        d="M39.211 76.1002L35.057 72.3682V75.9682H33.457V68.9852L33.673 68.9482L37.773 72.6482V69.0792H39.373V76.0712L39.211 76.1002Z"
        fill="white" />
    <path
        d="M43.2999 70.5451V72.0671H45.6689V73.4671H43.2999V75.9671H41.7V69.0771H46.061V70.5451H43.2999Z"
        fill="white" />
    <path d="M49.478 69.0791H47.88V75.9681H49.478V69.0791Z" fill="white" />
    <path
        d="M56.0611 75.9685L55.544 74.7185H53.167L52.649 75.9685H51.024L54.266 69.0225H54.482L57.725 75.9685H56.0611ZM54.3601 71.8455L53.674 73.4995H55.037L54.3601 71.8455Z"
        fill="white" />
    <path
        d="M65.008 76.1002L60.854 72.3682V75.9682H59.254V68.9852L59.47 68.9482L63.57 72.6482V69.0792H65.17V76.0712L65.008 76.1002Z"
        fill="white" />
    <path
        d="M69.448 74.5111H72.748V75.9681H66.9L66.853 75.7991L70.265 70.5451H67.1V69.0791H72.815L72.862 69.2571L69.448 74.5111Z"
        fill="white" />
    <path
        d="M79.0919 75.9685L78.5749 74.7185H76.1999L75.6819 75.9685H74.0549L77.2999 69.0225H77.5159L80.7589 75.9685H79.0919ZM77.3919 71.8425L76.7059 73.4965H78.0689L77.3919 71.8425Z"
        fill="white" />
    <path
        d="M30.506 78.1934C30.0136 78.1964 29.5268 78.2976 29.074 78.4912C28.6213 78.6848 28.2117 78.9668 27.8693 79.3207C27.527 79.6747 27.2587 80.0933 27.0802 80.5523C26.9018 81.0112 26.8167 81.5011 26.83 81.9934C26.8097 82.4832 26.8889 82.972 27.0628 83.4303C27.2366 83.8887 27.5015 84.3071 27.8415 84.6602C28.1815 85.0134 28.5895 85.294 29.0409 85.4852C29.4923 85.6763 29.9778 85.774 30.468 85.7724C31.4518 85.7457 32.3866 85.3375 33.0747 84.6339C33.7629 83.9304 34.1504 82.9869 34.1553 82.0028C34.1603 81.0187 33.7822 80.0712 33.1012 79.3609C32.4201 78.6505 31.4894 78.2329 30.506 78.1964M30.487 79.1654C31.0555 79.1168 31.6255 79.2411 32.1223 79.5218C32.6191 79.8025 33.0195 80.2267 33.2713 80.7387C33.523 81.2508 33.6143 81.827 33.5332 82.3918C33.4522 82.9566 33.2025 83.4838 32.8169 83.9044C32.4312 84.3249 31.9276 84.6193 31.3719 84.749C30.8162 84.8786 30.2344 84.8375 29.7024 84.631C29.1705 84.4245 28.7133 84.0623 28.3906 83.5916C28.068 83.121 27.8949 82.564 27.894 81.9934C27.8668 81.6348 27.9134 81.2744 28.031 80.9345C28.1486 80.5947 28.3347 80.2826 28.5777 80.0175C28.8207 79.7524 29.1156 79.54 29.444 79.3934C29.7724 79.2469 30.1274 79.1693 30.487 79.1654Z"
        fill="white" />
    <path
        d="M41.926 78.2961V83.5111L37.72 78.1631L37.255 78.2701V85.6701H38.263V80.3961L42.503 85.7961L42.943 85.7111V78.2961H41.926Z"
        fill="white" />
    <path d="M47.391 84.7054V78.2954H46.374V85.6754H50.756V84.7054H47.391Z" fill="white" />
    <path d="M54.496 78.2964H53.479V85.6754H54.496V78.2964Z" fill="white" />
    <path
        d="M62.6 78.2961V83.5111L58.39 78.1631L57.925 78.2701V85.6701H58.933V80.3961L63.173 85.7961L63.613 85.7111V78.2961H62.6Z"
        fill="white" />
    <path
        d="M71.4259 79.2564V78.2964H67.0439V85.6754H71.4259V84.7054H68.0599V82.4134H71.0999V81.4534H68.0599V79.2534L71.4259 79.2564Z"
        fill="white" />
</svg>