<svg width="63" height="42" viewBox="0 0 63 42" fill="none" xmlns="http://www.w3.org/2000/svg">
    <path d="M39.6872 7.72095H23.4321V34.4761H39.6872V7.72095Z" fill="#858585" />
    <path
        d="M25.2862 21.1001C25.2862 15.8371 27.6869 10.9018 31.7243 7.72089C24.4135 1.90846 13.7238 3.22581 7.94099 10.5709C2.15819 17.9192 3.46883 28.6636 10.7764 34.4761C16.8853 39.3021 25.5036 39.3021 31.7243 34.4761C27.6869 31.1859 25.2862 26.2506 25.2862 21.0969V21.1001Z"
        fill="#494949" />
    <path
        d="M57.3617 31.626V31.0765H57.579V30.9673H57.0324V31.0765H57.2498L57.3585 31.626H57.3617ZM58.4517 31.626V30.9673H58.2344L58.017 31.4075L57.7996 30.9673H57.6909V31.626H57.7996V31.0765L58.017 31.5167H58.1257L58.343 31.0765L58.4517 31.626Z"
        fill="#AAAAAA" />
    <path
        d="M58.9984 21.1C58.9984 30.5304 51.4702 38.0971 42.0879 38.0971C38.2679 38.0971 34.5597 36.7798 31.6156 34.4792C38.9264 28.6668 40.2338 18.0316 34.4511 10.574C33.5784 9.4784 32.7057 8.60123 31.6156 7.72406C38.9264 1.91163 49.6161 3.22899 55.3989 10.574C57.7996 13.5333 58.9984 17.2636 58.9984 21.1Z"
        fill="#AAAAAA" />
</svg>