<svg width="36" height="49" viewBox="0 0 36 49" fill="none" xmlns="http://www.w3.org/2000/svg">
    <path
        d="M35.5907 24.6156C35.5779 23.4428 35.1591 22.3825 34.2928 21.5375C33.5832 20.8467 32.7648 20.3936 31.7675 20.3037C31.3327 20.2651 31.1409 20.1205 31.1537 19.6032C31.1985 17.7975 31.1889 15.9853 31.1633 14.1763C31.1537 13.4598 31.0994 12.7337 30.9683 12.0268C30.5559 9.80658 29.6832 7.7952 28.2863 6.00553C26.9852 4.33795 25.3805 3.08485 23.4913 2.18841C22.0272 1.49117 20.4832 1.13452 18.8625 0.980295C17.5007 0.851773 16.1932 1.02207 14.8826 1.28554C13.5943 1.54579 12.3924 2.04703 11.2576 2.70571C9.2021 3.89454 7.58458 5.52678 6.39861 7.58635C5.11035 9.82264 4.57011 12.2517 4.58929 14.8254C4.60207 16.4962 4.58929 18.1638 4.59568 19.8345C4.59568 20.0884 4.55412 20.1976 4.26323 20.2362C3.58873 20.3229 2.92701 20.4804 2.33563 20.8531C0.849172 21.7849 0.174672 23.1633 0.161886 24.8919C0.149099 26.5916 0.161886 28.2945 0.161886 29.9943C0.161886 31.694 0.139509 33.4579 0.168279 35.1898C0.184263 36.2276 0.302539 37.2686 0.57106 38.2711C1.35105 41.2046 2.86947 43.6562 5.27658 45.5487C7.5654 47.3512 10.1707 48.3344 13.0381 48.389C16.4745 48.4565 19.9206 48.5304 23.3602 48.3312C24.3512 48.2734 25.3102 48.0774 26.25 47.7786C28.8745 46.9464 31.0418 45.4651 32.7488 43.2803C34.555 40.9669 35.5108 38.3289 35.5843 35.4243C35.677 31.8225 35.6291 28.2206 35.5939 24.6188L35.5907 24.6156ZM7.5622 13.3763C7.67089 11.3328 8.4317 9.48206 9.70398 7.87553C11.2352 5.94126 13.182 4.63033 15.6082 4.12267C18.8337 3.45114 21.7682 4.09054 24.3608 6.17582C26.4258 7.83697 27.6469 10.0058 28.1073 12.6052C28.3438 13.9482 28.1648 15.3138 28.2032 16.4544C28.1968 17.7525 28.1808 18.8353 28.1968 19.9181C28.2 20.2298 28.0721 20.2651 27.8164 20.2587C27.0779 20.2426 26.3395 20.233 25.6011 20.2522C25.2814 20.2619 25.2271 20.1398 25.2303 19.8538C25.2494 18.1381 25.2366 16.4223 25.259 14.7065C25.2846 12.8526 24.8083 11.1593 23.6607 9.70055C22.577 8.31893 21.1577 7.42249 19.4379 7.04977C17.2034 6.5646 15.1607 7.04656 13.3706 8.4346C11.7626 9.68448 10.7877 11.3456 10.5831 13.4148C10.3753 15.5098 10.5159 17.6111 10.4776 19.7092C10.4712 20.0916 10.3881 20.2105 9.99807 20.1912C9.29161 20.1559 8.58194 20.1655 7.87548 20.1783C7.60376 20.1816 7.50147 20.1237 7.50466 19.8249C7.52704 17.6754 7.45032 15.5226 7.5622 13.3795V13.3763ZM23.7662 19.8635C23.7662 20.1783 23.6639 20.2426 23.373 20.2394C21.5285 20.2201 19.684 20.2169 17.8363 20.2105C16.0078 20.204 14.1761 20.188 12.3476 20.1944C12.0312 20.1944 11.9321 20.1205 11.9353 19.7864C11.9608 17.7782 11.9257 15.7668 11.98 13.7586C12.0152 12.4991 12.5394 11.3906 13.3418 10.4299C14.3264 9.25715 15.5987 8.53742 17.1011 8.35427C18.6131 8.16792 20.0516 8.49244 21.3047 9.41459C22.6889 10.4331 23.4913 11.8147 23.7694 13.508C23.7854 13.598 23.779 13.6912 23.779 13.7844C23.7726 15.8086 23.7566 17.836 23.763 19.8603L23.7662 19.8635ZM32.6466 35.3087C32.6274 37.7024 31.7994 39.8069 30.2938 41.6577C28.6475 43.6819 26.5185 44.8482 23.9963 45.3334C23.5968 45.4105 23.1844 45.4555 22.7688 45.4523C19.5689 45.4394 16.3691 45.4684 13.1692 45.4362C10.8036 45.4137 8.7226 44.5783 6.89409 43.0746C4.89617 41.4328 3.72618 39.3153 3.2339 36.7963C3.16037 36.4236 3.12521 36.0348 3.12201 35.6557C3.11562 32.0056 3.11882 28.3556 3.11882 24.7088C3.11882 23.7995 3.73258 23.1761 4.63084 23.1761C9.06144 23.1761 13.492 23.1761 17.9226 23.1761C22.3532 23.1761 26.7199 23.1761 31.1217 23.1761C32.0552 23.1761 32.6593 23.7866 32.6593 24.728C32.6593 28.2528 32.6785 31.7807 32.6529 35.3054L32.6466 35.3087ZM28.0114 37.4293C26.8893 37.4614 25.7641 37.4261 24.6421 37.4486C24.2585 37.4582 24.1466 37.3393 24.1498 36.9537C24.1658 34.605 24.1594 32.253 24.1594 29.9011C24.1594 29.0143 24.1594 29.0303 23.2579 29.0175C22.9223 29.0111 22.8551 29.1267 22.8583 29.4384C22.8743 30.8618 22.8647 32.282 22.8647 33.7053C22.8647 35.1287 22.8743 36.581 22.8583 38.0205C22.8551 38.3289 22.9446 38.4061 23.2451 38.4061C24.8275 38.3932 26.413 38.3868 27.9986 38.4093C28.379 38.4157 28.4301 38.2711 28.411 37.953C28.3918 37.6735 28.4685 37.4164 28.0114 37.4293ZM19.2429 33.3808C18.6195 32.9985 17.9866 32.6386 17.3792 32.2338C16.8901 31.9092 16.58 31.4498 16.6983 30.8329C16.8102 30.2384 17.2673 29.9461 17.8076 29.8047C18.1304 29.7211 18.4821 29.7244 18.8113 29.8079C19.3611 29.9525 19.9046 30.1196 20.4736 30.2834C20.4736 29.9975 20.4448 29.7308 20.48 29.4737C20.5215 29.1813 20.3649 29.1139 20.1379 29.0528C19.3931 28.8504 18.6355 28.8118 17.8683 28.8343C16.8741 28.8633 15.8576 29.5733 15.5795 30.4601C15.247 31.5205 15.6146 32.5422 16.5129 33.2202C17.344 33.8467 18.2967 34.2676 19.1246 34.8974C19.6457 35.2926 19.8694 36.0573 19.6329 36.6678C19.3388 37.4261 18.383 37.8213 17.4336 37.6189C16.7367 37.4678 16.0718 37.2172 15.3909 36.9441C15.3909 37.2975 15.4037 37.6221 15.3845 37.9434C15.3749 38.1394 15.4644 38.2229 15.6274 38.2679C16.6951 38.5474 17.7724 38.7241 18.8753 38.4864C20.4736 38.1362 21.407 36.6196 20.9147 35.1287C20.6398 34.2901 19.9525 33.8146 19.2429 33.3808ZM12.2837 33.3551C11.5517 32.8924 10.7301 32.5647 10.1132 31.9285C9.50578 31.2988 9.6816 30.3734 10.4552 29.9685C10.9155 29.7276 11.4014 29.7051 11.8809 29.8111C12.4339 29.9364 12.9774 30.1196 13.5464 30.2834C13.5464 30.0007 13.5176 29.734 13.5528 29.477C13.5911 29.1878 13.4409 29.1171 13.2139 29.056C12.4691 28.8568 11.7115 28.8118 10.9443 28.8343C9.95012 28.8665 8.93358 29.5766 8.65547 30.4601C8.32301 31.514 8.69383 32.5454 9.5857 33.2202C10.4168 33.8467 11.3694 34.2676 12.1974 34.8942C12.7184 35.2894 12.9454 36.0541 12.7089 36.6646C12.4148 37.4229 11.459 37.8245 10.5127 37.6156C9.81586 37.4646 9.15095 37.2172 8.46686 36.9409C8.46686 37.2943 8.47965 37.6189 8.46367 37.9402C8.45088 38.1362 8.54039 38.2229 8.70342 38.2647C9.77111 38.541 10.8484 38.7241 11.9512 38.4832C13.6455 38.1137 14.5693 36.4429 13.9076 34.9167C13.5879 34.1809 12.9358 33.7632 12.2837 33.3519V33.3551Z"
        fill="#B0B0B0" />
</svg>