<svg width="63" height="40" viewBox="0 0 63 40" fill="none" xmlns="http://www.w3.org/2000/svg">
    <path d="M62.2399 0.108643H0.598328V39.4751H62.2399V0.108643Z" fill="white" />
    <path d="M61.1467 33.1133H1.57971V38.4855H61.1467V33.1133Z" fill="#B8B8B8" />
    <path d="M61.1467 1.20435H1.57971V6.57659H61.1467V1.20435Z" fill="#323232" />
    <path
        d="M25.4717 12.4981L19.3628 27.3007H15.3254L12.2694 15.5666C12.052 14.7987 11.9433 14.5802 11.3967 14.2493C10.524 13.6998 8.99601 13.2629 7.68857 13.0444L7.79724 12.6042H14.2354C15.1081 12.6042 15.7634 13.1536 15.9808 14.14L17.6175 22.6932L21.5462 12.6042L25.4749 12.4949L25.4717 12.4981ZM41.1834 22.3687C41.1834 18.4198 35.8385 18.3106 35.8385 16.5562C35.8385 16.0068 36.3852 15.4606 37.4752 15.3513C38.0219 15.2421 39.5467 15.2421 41.1834 16.01L41.8387 12.8291C40.966 12.5014 39.7673 12.1704 38.2392 12.1704C34.5311 12.1704 31.8011 14.1432 31.8011 17.1057C31.8011 19.1877 33.6552 20.3959 35.0745 21.1638C36.6025 21.9317 37.0373 22.3687 37.0373 23.0273C37.0373 24.0138 35.8385 24.4539 34.7453 24.4539C32.7825 24.4539 31.6892 23.9045 30.8165 23.4675L30.1612 26.7577C31.0339 27.1979 32.6706 27.5256 34.416 27.5256C38.5621 27.4164 41.1802 25.4436 41.1802 22.3719M51.1091 27.1979H54.5998L51.5438 12.3953H48.2704C47.5064 12.3953 46.9598 12.8355 46.6337 13.491L40.9596 27.1979H44.997L45.761 25.0034H50.6711L51.1091 27.1979ZM46.8543 22.0442L48.817 16.4502L50.0158 22.0442H46.8511H46.8543ZM30.9252 12.5046L27.7605 27.3071H23.9405L27.1052 12.5046H30.9252Z"
        fill="#323232" />
</svg>