<svg width="257" height="68" viewBox="0 0 257 68" fill="none" xmlns="http://www.w3.org/2000/svg">
<path d="M65.3132 66.909C61.0077 66.909 56.468 61.0287 53.8498 61.0287H50.3709V66.909H44.9707V41.0247H55.0432C63.1266 41.0247 67.3672 45.8705 67.3672 51.0077C67.3672 56.145 63.8884 58.8841 62.4636 59.4756C63.1266 60.7694 66.6055 61.6581 67.7989 60.3643C70.9138 61.696 69.6216 66.909 65.3132 66.909ZM62.0009 51.0077C62.0009 48.3473 59.5491 47.0506 55.0432 47.0506H50.3709V54.9998H55.0432C59.5491 54.9998 62.0009 53.6681 62.0009 51.0048V51.0077Z" fill="white"/>
<path d="M106.925 53.9314C106.925 61.0676 100.631 66.8371 92.8774 66.8371C85.1241 66.8371 78.7956 61.0676 78.7956 53.9314C78.7956 46.7952 85.0902 40.9878 92.8774 40.9878C100.665 40.9878 106.925 46.7952 106.925 53.9314ZM101.559 53.9314C101.559 50.1608 97.5835 47.0167 92.8774 47.0167C88.1712 47.0167 84.1958 50.1608 84.1958 53.9314C84.1958 57.702 88.1712 60.8461 92.8774 60.8461C97.5835 60.8461 101.559 57.6671 101.559 53.9314Z" fill="white"/>
<path d="M134.984 66.8713L132.862 61.9177H120.338L118.216 66.8713H112.218L123.45 41.0599V41.022H129.911V41.0599L140.943 66.8713H134.978H134.984ZM126.669 47.386L122.956 55.9267H130.312L126.669 47.386Z" fill="white"/>
<path d="M177.418 54.2622C177.418 57.7385 176.027 60.8797 173.476 63.2108C170.858 65.5769 167.181 66.8357 162.873 66.8357H150.216V40.9893H162.176C172.184 40.9893 177.418 47.6825 177.418 54.2651V54.2622ZM172.017 54.2622C172.017 50.6751 168.637 47.0152 162.176 47.0152H155.616V60.8447H162.873C165.92 60.8447 168.44 60.0317 170.062 58.5514C171.32 57.4063 172.017 55.891 172.017 54.2622Z" fill="white"/>
<path d="M211.276 59.1057C211.276 63.6544 206.44 67.1307 200.012 67.1307C191.562 67.1307 186.893 63.6165 186.692 63.4708L189.742 58.5142C189.742 58.5142 193.354 61.1018 200.015 61.1018C203.525 61.1018 205.881 60.1402 205.881 59.03C205.881 57.9198 201.243 57.1068 199.321 56.7746C194.618 55.9237 188.752 54.8514 188.752 49.0469C188.752 44.4633 193.588 41.022 200.018 41.022C206.448 41.022 209.628 43.0209 209.992 43.2773L207.207 48.4175L207.241 48.4554C207.207 48.4175 204.888 47.013 200.018 47.013C196.57 47.013 194.152 48.0853 194.152 49.0469C194.152 50.0085 198.294 50.4893 200.182 50.8215C204.854 51.6723 211.281 52.8554 211.281 59.1057H211.276Z" fill="white"/>
<path d="M27.2014 19.7812C27.2014 23.2575 25.8105 26.3987 23.2599 28.7298C20.6416 31.0959 16.9653 32.3547 12.657 32.3547H0V6.50537H11.9601C21.9677 6.50537 27.2014 13.1986 27.2014 19.7812ZM21.8012 19.7812C21.8012 16.1941 18.4211 12.5343 11.9601 12.5343H5.40022V26.3637H12.657C15.7041 26.3637 18.2236 25.5507 19.846 24.0705C21.1043 22.9253 21.8012 21.4101 21.8012 19.7812Z" fill="white"/>
<path d="M36.4712 6.50537H41.8714V32.4276H36.4712V6.50537Z" fill="white"/>
<path d="M56.5481 16.4535H66.1889V22.4445H56.5481V32.4276H51.1478V6.50537H70.7963V12.5343H56.5481V16.4535Z" fill="white"/>
<path d="M114.391 16.4535H124.031V22.4445H114.391V26.3637H128.571V32.3547H108.99V6.50537H128.639V12.5343H114.391V16.4535Z" fill="white"/>
<path d="M158.252 32.4268C153.947 32.4268 149.407 26.5465 146.789 26.5465H143.31V32.4268H137.91V6.54248H147.982C156.066 6.54248 160.306 11.3883 160.306 16.5256C160.306 21.6628 156.828 24.4019 155.403 24.9934C156.066 26.2872 159.545 27.1759 160.738 25.8821C163.853 27.2138 162.561 32.4268 158.252 32.4268ZM154.94 16.5256C154.94 13.8652 152.488 12.5685 147.982 12.5685H143.31V20.5176H147.982C152.488 20.5176 154.94 19.186 154.94 16.5226V16.5256Z" fill="white"/>
<path d="M177.133 16.4535H186.774V22.4445H177.133V26.3637H191.314V32.3547H171.733V6.50537H191.382V12.5343H177.133V16.4535Z" fill="white"/>
<path d="M224.21 32.3518H220.762L206.051 16.5642V32.3518L200.651 32.4247V6.50537H204.429L218.843 21.9608V6.50537H224.21V32.3518Z" fill="white"/>
<path d="M256.246 12.5343H247.632V32.4276H242.231V12.5343H233.485V6.50537H256.248V12.5343H256.246Z" fill="white"/>
<path d="M97.7259 6.55713H78.0775V13.2504H97.7259V6.55713Z" fill="white"/>
<path d="M97.7259 17.5593H78.0775V24.2526H97.7259V17.5593Z" fill="white"/>
<path d="M84.3242 32.4261L80.6055 31.6043C82.0529 25.8843 83.5172 20.8112 84.9336 15.9012C86.3697 10.9272 87.8566 5.78121 89.3097 0L93.0283 0.815897C91.5583 6.65539 90.0658 11.8276 88.6212 16.8308C87.2105 21.7116 85.7546 26.7585 84.3214 32.4232L84.3242 32.4261Z" fill="#DA6359"/>
</svg>
