<svg style="background-color: #fff" width="252" height="252" viewBox="0 0 252 252" fill="none" xmlns="http://www.w3.org/2000/svg">
<path d="M126 250.549C195.036 250.549 251 194.584 251 125.549C251 56.5129 195.036 0.548523 126 0.548523C56.9644 0.548523 1 56.5129 1 125.549C1 194.584 56.9644 250.549 126 250.549Z" stroke="#EA685C"/>
<path d="M47.6231 161L44.9031 157.175C44.5971 157.209 44.2797 157.226 43.9511 157.226H40.7551V161H39.4971V149.1H43.9511C45.4697 149.1 46.6597 149.463 47.5211 150.188C48.3824 150.913 48.8131 151.911 48.8131 153.18C48.8131 154.109 48.5751 154.897 48.0991 155.543C47.6344 156.178 46.9657 156.637 46.0931 156.92L49.0001 161H47.6231ZM43.9171 156.155C45.0957 156.155 45.9967 155.894 46.6201 155.373C47.2434 154.852 47.5551 154.121 47.5551 153.18C47.5551 152.217 47.2434 151.48 46.6201 150.97C45.9967 150.449 45.0957 150.188 43.9171 150.188H40.7551V156.155H43.9171ZM59.3132 156.903H51.8332C51.9012 157.832 52.2582 158.586 52.9042 159.164C53.5502 159.731 54.3662 160.014 55.3522 160.014C55.9076 160.014 56.4176 159.918 56.8822 159.725C57.3469 159.521 57.7492 159.226 58.0892 158.841L58.7692 159.623C58.3726 160.099 57.8739 160.462 57.2732 160.711C56.6839 160.96 56.0322 161.085 55.3182 161.085C54.4002 161.085 53.5842 160.892 52.8702 160.507C52.1676 160.11 51.6179 159.566 51.2212 158.875C50.8246 158.184 50.6262 157.402 50.6262 156.529C50.6262 155.656 50.8132 154.874 51.1872 154.183C51.5726 153.492 52.0939 152.953 52.7512 152.568C53.4199 152.183 54.1679 151.99 54.9952 151.99C55.8226 151.99 56.5649 152.183 57.2222 152.568C57.8796 152.953 58.3952 153.492 58.7692 154.183C59.1432 154.863 59.3302 155.645 59.3302 156.529L59.3132 156.903ZM54.9952 153.027C54.1339 153.027 53.4086 153.305 52.8192 153.86C52.2412 154.404 51.9126 155.118 51.8332 156.002H58.1742C58.0949 155.118 57.7606 154.404 57.1712 153.86C56.5932 153.305 55.8679 153.027 54.9952 153.027ZM64.184 161.085C63.4587 161.085 62.7617 160.983 62.093 160.779C61.4357 160.564 60.92 160.297 60.546 159.98L61.09 159.028C61.464 159.323 61.9343 159.566 62.501 159.759C63.0677 159.94 63.657 160.031 64.269 160.031C65.085 160.031 65.6857 159.906 66.071 159.657C66.4677 159.396 66.666 159.034 66.666 158.569C66.666 158.24 66.5583 157.985 66.343 157.804C66.1277 157.611 65.8557 157.47 65.527 157.379C65.1983 157.277 64.762 157.181 64.218 157.09C63.4927 156.954 62.909 156.818 62.467 156.682C62.025 156.535 61.6453 156.291 61.328 155.951C61.022 155.611 60.869 155.141 60.869 154.54C60.869 153.792 61.1807 153.18 61.804 152.704C62.4273 152.228 63.2943 151.99 64.405 151.99C64.983 151.99 65.561 152.069 66.139 152.228C66.717 152.375 67.193 152.574 67.567 152.823L67.04 153.792C66.3033 153.282 65.425 153.027 64.405 153.027C63.6343 153.027 63.0507 153.163 62.654 153.435C62.2687 153.707 62.076 154.064 62.076 154.506C62.076 154.846 62.1837 155.118 62.399 155.322C62.6257 155.526 62.9033 155.679 63.232 155.781C63.5607 155.872 64.014 155.968 64.592 156.07C65.306 156.206 65.8783 156.342 66.309 156.478C66.7397 156.614 67.108 156.846 67.414 157.175C67.72 157.504 67.873 157.957 67.873 158.535C67.873 159.317 67.5443 159.94 66.887 160.405C66.241 160.858 65.34 161.085 64.184 161.085ZM77.8904 156.903H70.4104C70.4784 157.832 70.8354 158.586 71.4814 159.164C72.1274 159.731 72.9434 160.014 73.9294 160.014C74.4847 160.014 74.9947 159.918 75.4594 159.725C75.9241 159.521 76.3264 159.226 76.6664 158.841L77.3464 159.623C76.9497 160.099 76.4511 160.462 75.8504 160.711C75.2611 160.96 74.6094 161.085 73.8954 161.085C72.9774 161.085 72.1614 160.892 71.4474 160.507C70.7447 160.11 70.1951 159.566 69.7984 158.875C69.4017 158.184 69.2034 157.402 69.2034 156.529C69.2034 155.656 69.3904 154.874 69.7644 154.183C70.1497 153.492 70.6711 152.953 71.3284 152.568C71.9971 152.183 72.7451 151.99 73.5724 151.99C74.3997 151.99 75.1421 152.183 75.7994 152.568C76.4567 152.953 76.9724 153.492 77.3464 154.183C77.7204 154.863 77.9074 155.645 77.9074 156.529L77.8904 156.903ZM73.5724 153.027C72.7111 153.027 71.9857 153.305 71.3964 153.86C70.8184 154.404 70.4897 155.118 70.4104 156.002H76.7514C76.6721 155.118 76.3377 154.404 75.7484 153.86C75.1704 153.305 74.4451 153.027 73.5724 153.027ZM81.5202 153.809C81.8035 153.208 82.2228 152.755 82.7782 152.449C83.3448 152.143 84.0418 151.99 84.8692 151.99V153.163L84.5802 153.146C83.6395 153.146 82.9028 153.435 82.3702 154.013C81.8375 154.591 81.5712 155.401 81.5712 156.444V161H80.3642V152.058H81.5202V153.809ZM94.9504 152.058L90.9724 161H89.7314L85.7704 152.058H87.0284L90.3774 159.674L93.7604 152.058H94.9504ZM99.5127 151.99C100.68 151.99 101.575 152.285 102.199 152.874C102.822 153.452 103.134 154.313 103.134 155.458V161H101.978V159.606C101.706 160.071 101.303 160.433 100.771 160.694C100.249 160.955 99.626 161.085 98.9007 161.085C97.9033 161.085 97.11 160.847 96.5207 160.371C95.9313 159.895 95.6367 159.266 95.6367 158.484C95.6367 157.725 95.9087 157.113 96.4527 156.648C97.008 156.183 97.8863 155.951 99.0877 155.951H101.927V155.407C101.927 154.636 101.711 154.053 101.281 153.656C100.85 153.248 100.221 153.044 99.3937 153.044C98.827 153.044 98.283 153.14 97.7617 153.333C97.2403 153.514 96.7927 153.769 96.4187 154.098L95.8747 153.197C96.328 152.812 96.872 152.517 97.5067 152.313C98.1413 152.098 98.81 151.99 99.5127 151.99ZM99.0877 160.133C99.7677 160.133 100.351 159.98 100.839 159.674C101.326 159.357 101.689 158.903 101.927 158.314V156.852H99.1217C97.5917 156.852 96.8267 157.385 96.8267 158.45C96.8267 158.971 97.025 159.385 97.4217 159.691C97.8183 159.986 98.3737 160.133 99.0877 160.133ZM118.375 152.058L113.904 162.071C113.542 162.91 113.122 163.505 112.646 163.856C112.17 164.207 111.598 164.383 110.929 164.383C110.499 164.383 110.096 164.315 109.722 164.179C109.348 164.043 109.025 163.839 108.753 163.567L109.314 162.666C109.768 163.119 110.312 163.346 110.946 163.346C111.354 163.346 111.7 163.233 111.983 163.006C112.278 162.779 112.55 162.394 112.799 161.85L113.19 160.983L109.195 152.058H110.453L113.819 159.657L117.185 152.058H118.375ZM133.381 148.386V161H130.848V159.946C130.191 160.739 129.239 161.136 127.992 161.136C127.131 161.136 126.349 160.943 125.646 160.558C124.955 160.173 124.411 159.623 124.014 158.909C123.618 158.195 123.419 157.368 123.419 156.427C123.419 155.486 123.618 154.659 124.014 153.945C124.411 153.231 124.955 152.681 125.646 152.296C126.349 151.911 127.131 151.718 127.992 151.718C129.16 151.718 130.072 152.086 130.729 152.823V148.386H133.381ZM128.451 158.96C129.12 158.96 129.675 158.733 130.117 158.28C130.559 157.815 130.78 157.198 130.78 156.427C130.78 155.656 130.559 155.044 130.117 154.591C129.675 154.126 129.12 153.894 128.451 153.894C127.771 153.894 127.21 154.126 126.768 154.591C126.326 155.044 126.105 155.656 126.105 156.427C126.105 157.198 126.326 157.815 126.768 158.28C127.21 158.733 127.771 158.96 128.451 158.96ZM144.795 156.461C144.795 156.495 144.778 156.733 144.744 157.175H137.825C137.949 157.742 138.244 158.189 138.709 158.518C139.173 158.847 139.751 159.011 140.443 159.011C140.919 159.011 141.338 158.943 141.701 158.807C142.075 158.66 142.42 158.433 142.738 158.127L144.149 159.657C143.287 160.643 142.029 161.136 140.375 161.136C139.343 161.136 138.431 160.938 137.638 160.541C136.844 160.133 136.232 159.572 135.802 158.858C135.371 158.144 135.156 157.334 135.156 156.427C135.156 155.532 135.365 154.727 135.785 154.013C136.215 153.288 136.799 152.727 137.536 152.33C138.284 151.922 139.117 151.718 140.035 151.718C140.93 151.718 141.74 151.911 142.466 152.296C143.191 152.681 143.758 153.237 144.166 153.962C144.585 154.676 144.795 155.509 144.795 156.461ZM140.052 153.724C139.451 153.724 138.947 153.894 138.539 154.234C138.131 154.574 137.881 155.039 137.791 155.628H142.296C142.205 155.05 141.956 154.591 141.548 154.251C141.14 153.9 140.641 153.724 140.052 153.724ZM149.637 161.136C148.878 161.136 148.136 161.045 147.41 160.864C146.685 160.671 146.107 160.433 145.676 160.15L146.56 158.246C146.968 158.507 147.461 158.722 148.039 158.892C148.617 159.051 149.184 159.13 149.739 159.13C150.861 159.13 151.422 158.852 151.422 158.297C151.422 158.036 151.269 157.849 150.963 157.736C150.657 157.623 150.187 157.526 149.552 157.447C148.804 157.334 148.187 157.203 147.699 157.056C147.212 156.909 146.787 156.648 146.424 156.274C146.073 155.9 145.897 155.367 145.897 154.676C145.897 154.098 146.062 153.588 146.39 153.146C146.73 152.693 147.218 152.341 147.852 152.092C148.498 151.843 149.258 151.718 150.13 151.718C150.776 151.718 151.417 151.792 152.051 151.939C152.697 152.075 153.23 152.268 153.649 152.517L152.765 154.404C151.961 153.951 151.082 153.724 150.13 153.724C149.564 153.724 149.139 153.803 148.855 153.962C148.572 154.121 148.43 154.325 148.43 154.574C148.43 154.857 148.583 155.056 148.889 155.169C149.195 155.282 149.683 155.39 150.351 155.492C151.099 155.617 151.711 155.753 152.187 155.9C152.663 156.036 153.077 156.291 153.428 156.665C153.78 157.039 153.955 157.56 153.955 158.229C153.955 158.796 153.785 159.3 153.445 159.742C153.105 160.184 152.607 160.53 151.949 160.779C151.303 161.017 150.533 161.136 149.637 161.136ZM160.012 161.136C159.037 161.136 158.159 160.938 157.377 160.541C156.606 160.133 156 159.572 155.558 158.858C155.127 158.144 154.912 157.334 154.912 156.427C154.912 155.52 155.127 154.71 155.558 153.996C156 153.282 156.606 152.727 157.377 152.33C158.159 151.922 159.037 151.718 160.012 151.718C160.975 151.718 161.814 151.922 162.528 152.33C163.253 152.727 163.78 153.299 164.109 154.047L162.052 155.152C161.576 154.313 160.89 153.894 159.995 153.894C159.303 153.894 158.731 154.121 158.278 154.574C157.824 155.027 157.598 155.645 157.598 156.427C157.598 157.209 157.824 157.827 158.278 158.28C158.731 158.733 159.303 158.96 159.995 158.96C160.901 158.96 161.587 158.541 162.052 157.702L164.109 158.824C163.78 159.549 163.253 160.116 162.528 160.524C161.814 160.932 160.975 161.136 160.012 161.136ZM174.85 151.854V161H172.334V159.912C171.982 160.309 171.563 160.615 171.076 160.83C170.588 161.034 170.061 161.136 169.495 161.136C168.293 161.136 167.341 160.79 166.639 160.099C165.936 159.408 165.585 158.382 165.585 157.022V151.854H168.237V156.631C168.237 158.104 168.854 158.841 170.09 158.841C170.724 158.841 171.234 158.637 171.62 158.229C172.005 157.81 172.198 157.192 172.198 156.376V151.854H174.85ZM186.266 156.461C186.266 156.495 186.249 156.733 186.215 157.175H179.296C179.42 157.742 179.715 158.189 180.18 158.518C180.644 158.847 181.222 159.011 181.914 159.011C182.39 159.011 182.809 158.943 183.172 158.807C183.546 158.66 183.891 158.433 184.209 158.127L185.62 159.657C184.758 160.643 183.5 161.136 181.846 161.136C180.814 161.136 179.902 160.938 179.109 160.541C178.315 160.133 177.703 159.572 177.273 158.858C176.842 158.144 176.627 157.334 176.627 156.427C176.627 155.532 176.836 154.727 177.256 154.013C177.686 153.288 178.27 152.727 179.007 152.33C179.755 151.922 180.588 151.718 181.506 151.718C182.401 151.718 183.211 151.911 183.937 152.296C184.662 152.681 185.229 153.237 185.637 153.962C186.056 154.676 186.266 155.509 186.266 156.461ZM181.523 153.724C180.922 153.724 180.418 153.894 180.01 154.234C179.602 154.574 179.352 155.039 179.262 155.628H183.767C183.676 155.05 183.427 154.591 183.019 154.251C182.611 153.9 182.112 153.724 181.523 153.724ZM193.59 151.718C194.723 151.718 195.636 152.058 196.327 152.738C197.03 153.418 197.381 154.427 197.381 155.764V161H194.729V156.172C194.729 155.447 194.57 154.908 194.253 154.557C193.936 154.194 193.477 154.013 192.876 154.013C192.207 154.013 191.675 154.223 191.278 154.642C190.881 155.05 190.683 155.662 190.683 156.478V161H188.031V151.854H190.564V152.925C190.915 152.54 191.352 152.245 191.873 152.041C192.394 151.826 192.967 151.718 193.59 151.718ZM205.684 160.558C205.423 160.751 205.1 160.898 204.715 161C204.341 161.091 203.944 161.136 203.525 161.136C202.437 161.136 201.593 160.858 200.992 160.303C200.403 159.748 200.108 158.932 200.108 157.855V154.098H198.697V152.058H200.108V149.831H202.76V152.058H205.038V154.098H202.76V157.821C202.76 158.206 202.856 158.507 203.049 158.722C203.253 158.926 203.536 159.028 203.899 159.028C204.318 159.028 204.675 158.915 204.97 158.688L205.684 160.558ZM210.862 151.718C212.278 151.718 213.366 152.058 214.126 152.738C214.885 153.407 215.265 154.421 215.265 155.781V161H212.783V159.861C212.284 160.711 211.355 161.136 209.995 161.136C209.292 161.136 208.68 161.017 208.159 160.779C207.649 160.541 207.258 160.212 206.986 159.793C206.714 159.374 206.578 158.898 206.578 158.365C206.578 157.515 206.895 156.846 207.53 156.359C208.176 155.872 209.167 155.628 210.505 155.628H212.613C212.613 155.05 212.437 154.608 212.086 154.302C211.734 153.985 211.207 153.826 210.505 153.826C210.017 153.826 209.536 153.905 209.06 154.064C208.595 154.211 208.198 154.415 207.87 154.676L206.918 152.823C207.416 152.472 208.011 152.2 208.703 152.007C209.405 151.814 210.125 151.718 210.862 151.718ZM210.658 159.351C211.111 159.351 211.513 159.249 211.865 159.045C212.216 158.83 212.465 158.518 212.613 158.11V157.175H210.794C209.706 157.175 209.162 157.532 209.162 158.246C209.162 158.586 209.292 158.858 209.553 159.062C209.825 159.255 210.193 159.351 210.658 159.351ZM87.4187 172.99C88.5407 172.99 89.4304 173.319 90.0877 173.976C90.7564 174.622 91.0907 175.568 91.0907 176.815V182H89.8837V176.934C89.8837 176.005 89.6514 175.296 89.1867 174.809C88.722 174.322 88.059 174.078 87.1977 174.078C86.2344 174.078 85.4694 174.367 84.9027 174.945C84.3474 175.512 84.0697 176.299 84.0697 177.308V182H82.8627V169.386H84.0697V174.622C84.3984 174.101 84.8517 173.698 85.4297 173.415C86.0077 173.132 86.6707 172.99 87.4187 172.99ZM97.4956 172.99C98.6629 172.99 99.5582 173.285 100.182 173.874C100.805 174.452 101.117 175.313 101.117 176.458V182H99.9606V180.606C99.6886 181.071 99.2862 181.433 98.7536 181.694C98.2322 181.955 97.6089 182.085 96.8836 182.085C95.8862 182.085 95.0929 181.847 94.5036 181.371C93.9142 180.895 93.6196 180.266 93.6196 179.484C93.6196 178.725 93.8916 178.113 94.4356 177.648C94.9909 177.183 95.8692 176.951 97.0706 176.951H99.9096V176.407C99.9096 175.636 99.6942 175.053 99.2636 174.656C98.8329 174.248 98.2039 174.044 97.3766 174.044C96.8099 174.044 96.2659 174.14 95.7446 174.333C95.2232 174.514 94.7756 174.769 94.4016 175.098L93.8576 174.197C94.3109 173.812 94.8549 173.517 95.4896 173.313C96.1242 173.098 96.7929 172.99 97.4956 172.99ZM97.0706 181.133C97.7506 181.133 98.3342 180.98 98.8216 180.674C99.3089 180.357 99.6716 179.903 99.9096 179.314V177.852H97.1046C95.5746 177.852 94.8096 178.385 94.8096 179.45C94.8096 179.971 95.0079 180.385 95.4046 180.691C95.8012 180.986 96.3566 181.133 97.0706 181.133ZM106.792 182.085C106.067 182.085 105.37 181.983 104.701 181.779C104.044 181.564 103.528 181.297 103.154 180.98L103.698 180.028C104.072 180.323 104.542 180.566 105.109 180.759C105.676 180.94 106.265 181.031 106.877 181.031C107.693 181.031 108.294 180.906 108.679 180.657C109.076 180.396 109.274 180.034 109.274 179.569C109.274 179.24 109.166 178.985 108.951 178.804C108.736 178.611 108.464 178.47 108.135 178.379C107.806 178.277 107.37 178.181 106.826 178.09C106.101 177.954 105.517 177.818 105.075 177.682C104.633 177.535 104.253 177.291 103.936 176.951C103.63 176.611 103.477 176.141 103.477 175.54C103.477 174.792 103.789 174.18 104.412 173.704C105.035 173.228 105.902 172.99 107.013 172.99C107.591 172.99 108.169 173.069 108.747 173.228C109.325 173.375 109.801 173.574 110.175 173.823L109.648 174.792C108.911 174.282 108.033 174.027 107.013 174.027C106.242 174.027 105.659 174.163 105.262 174.435C104.877 174.707 104.684 175.064 104.684 175.506C104.684 175.846 104.792 176.118 105.007 176.322C105.234 176.526 105.511 176.679 105.84 176.781C106.169 176.872 106.622 176.968 107.2 177.07C107.914 177.206 108.486 177.342 108.917 177.478C109.348 177.614 109.716 177.846 110.022 178.175C110.328 178.504 110.481 178.957 110.481 179.535C110.481 180.317 110.152 180.94 109.495 181.405C108.849 181.858 107.948 182.085 106.792 182.085ZM117.421 181.456C117.195 181.66 116.911 181.819 116.571 181.932C116.243 182.034 115.897 182.085 115.534 182.085C114.696 182.085 114.05 181.858 113.596 181.405C113.143 180.952 112.916 180.311 112.916 179.484V174.078H111.318V173.058H112.916V171.103H114.123V173.058H116.843V174.078H114.123V179.416C114.123 179.949 114.254 180.357 114.514 180.64C114.786 180.912 115.172 181.048 115.67 181.048C115.92 181.048 116.158 181.008 116.384 180.929C116.622 180.85 116.826 180.736 116.996 180.589L117.421 181.456ZM122.747 172.99C123.914 172.99 124.809 173.285 125.433 173.874C126.056 174.452 126.368 175.313 126.368 176.458V182H125.212V180.606C124.94 181.071 124.537 181.433 124.005 181.694C123.483 181.955 122.86 182.085 122.135 182.085C121.137 182.085 120.344 181.847 119.755 181.371C119.165 180.895 118.871 180.266 118.871 179.484C118.871 178.725 119.143 178.113 119.687 177.648C120.242 177.183 121.12 176.951 122.322 176.951H125.161V176.407C125.161 175.636 124.945 175.053 124.515 174.656C124.084 174.248 123.455 174.044 122.628 174.044C122.061 174.044 121.517 174.14 120.996 174.333C120.474 174.514 120.027 174.769 119.653 175.098L119.109 174.197C119.562 173.812 120.106 173.517 120.741 173.313C121.375 173.098 122.044 172.99 122.747 172.99ZM122.322 181.133C123.002 181.133 123.585 180.98 124.073 180.674C124.56 180.357 124.923 179.903 125.161 179.314V177.852H122.356C120.826 177.852 120.061 178.385 120.061 179.45C120.061 179.971 120.259 180.385 120.656 180.691C121.052 180.986 121.608 181.133 122.322 181.133ZM137.155 174.571C138.832 174.571 140.068 174.905 140.861 175.574C141.666 176.243 142.068 177.138 142.068 178.26C142.068 178.985 141.887 179.648 141.524 180.249C141.161 180.838 140.606 181.314 139.858 181.677C139.121 182.028 138.209 182.204 137.121 182.204C136.282 182.204 135.455 182.096 134.639 181.881C133.834 181.654 133.149 181.337 132.582 180.929L133.67 178.821C134.123 179.161 134.645 179.427 135.234 179.62C135.823 179.801 136.43 179.892 137.053 179.892C137.744 179.892 138.288 179.756 138.685 179.484C139.082 179.212 139.28 178.832 139.28 178.345C139.28 177.835 139.07 177.45 138.651 177.189C138.243 176.928 137.529 176.798 136.509 176.798H133.466L134.078 170.1H141.337V172.31H136.373L136.186 174.571H137.155ZM148.285 182.204C147.299 182.204 146.421 181.96 145.65 181.473C144.88 180.986 144.273 180.283 143.831 179.365C143.401 178.436 143.185 177.331 143.185 176.05C143.185 174.769 143.401 173.67 143.831 172.752C144.273 171.823 144.88 171.114 145.65 170.627C146.421 170.14 147.299 169.896 148.285 169.896C149.271 169.896 150.15 170.14 150.92 170.627C151.691 171.114 152.292 171.823 152.722 172.752C153.164 173.67 153.385 174.769 153.385 176.05C153.385 177.331 153.164 178.436 152.722 179.365C152.292 180.283 151.691 180.986 150.92 181.473C150.15 181.96 149.271 182.204 148.285 182.204ZM148.285 179.875C149.011 179.875 149.577 179.563 149.985 178.94C150.405 178.317 150.614 177.353 150.614 176.05C150.614 174.747 150.405 173.783 149.985 173.16C149.577 172.537 149.011 172.225 148.285 172.225C147.571 172.225 147.005 172.537 146.585 173.16C146.177 173.783 145.973 174.747 145.973 176.05C145.973 177.353 146.177 178.317 146.585 178.94C147.005 179.563 147.571 179.875 148.285 179.875ZM162.799 179.858C163.989 179.858 164.992 179.388 165.808 178.447L167.559 180.079C166.992 180.77 166.289 181.297 165.451 181.66C164.623 182.023 163.694 182.204 162.663 182.204C161.677 182.204 160.759 182.028 159.909 181.677C159.07 181.326 158.356 180.827 157.767 180.181C157.177 179.535 156.752 178.787 156.492 177.937H154.571V176.509H156.237C156.225 176.407 156.22 176.254 156.22 176.05C156.22 175.846 156.225 175.693 156.237 175.591H154.571V174.163H156.492C156.752 173.313 157.177 172.565 157.767 171.919C158.356 171.273 159.07 170.774 159.909 170.423C160.759 170.072 161.677 169.896 162.663 169.896C163.694 169.896 164.623 170.077 165.451 170.44C166.289 170.803 166.992 171.324 167.559 172.004L165.808 173.636C164.98 172.707 163.977 172.242 162.799 172.242C162.051 172.242 161.382 172.412 160.793 172.752C160.203 173.092 159.75 173.562 159.433 174.163H163.734V175.591H159.008C158.996 175.693 158.991 175.846 158.991 176.05C158.991 176.254 158.996 176.407 159.008 176.509H163.734V177.937H159.433C159.75 178.538 160.203 179.008 160.793 179.348C161.382 179.688 162.051 179.858 162.799 179.858ZM88.5654 193.99C89.4041 193.99 90.1634 194.183 90.8434 194.568C91.5234 194.942 92.0561 195.475 92.4414 196.166C92.8267 196.857 93.0194 197.645 93.0194 198.529C93.0194 199.424 92.8267 200.218 92.4414 200.909C92.0561 201.6 91.5234 202.139 90.8434 202.524C90.1747 202.898 89.4154 203.085 88.5654 203.085C87.8401 203.085 87.1827 202.938 86.5934 202.643C86.0154 202.337 85.5394 201.895 85.1654 201.317V206.298H83.9584V194.058H85.1144V195.826C85.4771 195.237 85.9531 194.783 86.5424 194.466C87.1431 194.149 87.8174 193.99 88.5654 193.99ZM88.4804 202.014C89.1037 202.014 89.6704 201.872 90.1804 201.589C90.6904 201.294 91.0871 200.881 91.3704 200.348C91.6651 199.815 91.8124 199.209 91.8124 198.529C91.8124 197.849 91.6651 197.248 91.3704 196.727C91.0871 196.194 90.6904 195.781 90.1804 195.486C89.6704 195.191 89.1037 195.044 88.4804 195.044C87.8457 195.044 87.2734 195.191 86.7634 195.486C86.2647 195.781 85.8681 196.194 85.5734 196.727C85.2901 197.248 85.1484 197.849 85.1484 198.529C85.1484 199.209 85.2901 199.815 85.5734 200.348C85.8681 200.881 86.2647 201.294 86.7634 201.589C87.2734 201.872 87.8457 202.014 88.4804 202.014ZM99.1349 203.085C98.2735 203.085 97.4972 202.892 96.8059 202.507C96.1145 202.11 95.5705 201.566 95.1739 200.875C94.7772 200.184 94.5789 199.402 94.5789 198.529C94.5789 197.656 94.7772 196.874 95.1739 196.183C95.5705 195.492 96.1145 194.953 96.8059 194.568C97.4972 194.183 98.2735 193.99 99.1349 193.99C99.9962 193.99 100.773 194.183 101.464 194.568C102.155 194.953 102.694 195.492 103.079 196.183C103.476 196.874 103.674 197.656 103.674 198.529C103.674 199.402 103.476 200.184 103.079 200.875C102.694 201.566 102.155 202.11 101.464 202.507C100.773 202.892 99.9962 203.085 99.1349 203.085ZM99.1349 202.014C99.7695 202.014 100.336 201.872 100.835 201.589C101.345 201.294 101.742 200.881 102.025 200.348C102.308 199.815 102.45 199.209 102.45 198.529C102.45 197.849 102.308 197.243 102.025 196.71C101.742 196.177 101.345 195.769 100.835 195.486C100.336 195.191 99.7695 195.044 99.1349 195.044C98.5002 195.044 97.9279 195.191 97.4179 195.486C96.9192 195.769 96.5225 196.177 96.2279 196.71C95.9445 197.243 95.8029 197.849 95.8029 198.529C95.8029 199.209 95.9445 199.815 96.2279 200.348C96.5225 200.881 96.9192 201.294 97.4179 201.589C97.9279 201.872 98.5002 202.014 99.1349 202.014ZM107.294 195.809C107.577 195.208 107.997 194.755 108.552 194.449C109.119 194.143 109.816 193.99 110.643 193.99V195.163L110.354 195.146C109.413 195.146 108.677 195.435 108.144 196.013C107.611 196.591 107.345 197.401 107.345 198.444V203H106.138V194.058H107.294V195.809ZM124.925 194.058L120.947 203H119.706L115.745 194.058H117.003L120.352 201.674L123.735 194.058H124.925ZM126.624 194.058H127.831V203H126.624V194.058ZM127.236 192.103C126.987 192.103 126.777 192.018 126.607 191.848C126.437 191.678 126.352 191.474 126.352 191.236C126.352 191.009 126.437 190.811 126.607 190.641C126.777 190.471 126.987 190.386 127.236 190.386C127.486 190.386 127.695 190.471 127.865 190.641C128.035 190.8 128.12 190.992 128.12 191.219C128.12 191.468 128.035 191.678 127.865 191.848C127.695 192.018 127.486 192.103 127.236 192.103ZM134.318 193.99C135.485 193.99 136.381 194.285 137.004 194.874C137.627 195.452 137.939 196.313 137.939 197.458V203H136.783V201.606C136.511 202.071 136.109 202.433 135.576 202.694C135.055 202.955 134.431 203.085 133.706 203.085C132.709 203.085 131.915 202.847 131.326 202.371C130.737 201.895 130.442 201.266 130.442 200.484C130.442 199.725 130.714 199.113 131.258 198.648C131.813 198.183 132.692 197.951 133.893 197.951H136.732V197.407C136.732 196.636 136.517 196.053 136.086 195.656C135.655 195.248 135.026 195.044 134.199 195.044C133.632 195.044 133.088 195.14 132.567 195.333C132.046 195.514 131.598 195.769 131.224 196.098L130.68 195.197C131.133 194.812 131.677 194.517 132.312 194.313C132.947 194.098 133.615 193.99 134.318 193.99ZM133.893 202.133C134.573 202.133 135.157 201.98 135.644 201.674C136.131 201.357 136.494 200.903 136.732 200.314V198.852H133.927C132.397 198.852 131.632 199.385 131.632 200.45C131.632 200.971 131.83 201.385 132.227 201.691C132.624 201.986 133.179 202.133 133.893 202.133ZM139.891 206.383C139.517 206.383 139.166 206.332 138.837 206.23C138.497 206.139 138.22 205.998 138.004 205.805L138.429 204.887C138.781 205.193 139.245 205.346 139.823 205.346C140.299 205.346 140.662 205.204 140.911 204.921C141.172 204.638 141.302 204.218 141.302 203.663V194.058H142.509V203.663C142.509 204.502 142.283 205.165 141.829 205.652C141.376 206.139 140.73 206.383 139.891 206.383ZM141.914 192.086C141.665 192.086 141.455 192.001 141.285 191.831C141.115 191.661 141.03 191.457 141.03 191.219C141.03 190.992 141.115 190.794 141.285 190.624C141.455 190.454 141.665 190.369 141.914 190.369C142.164 190.369 142.373 190.454 142.543 190.624C142.713 190.783 142.798 190.975 142.798 191.202C142.798 191.451 142.713 191.661 142.543 191.831C142.373 192.001 142.164 192.086 141.914 192.086ZM153.668 198.903H146.188C146.256 199.832 146.613 200.586 147.259 201.164C147.905 201.731 148.721 202.014 149.707 202.014C150.263 202.014 150.773 201.918 151.237 201.725C151.702 201.521 152.104 201.226 152.444 200.841L153.124 201.623C152.728 202.099 152.229 202.462 151.628 202.711C151.039 202.96 150.387 203.085 149.673 203.085C148.755 203.085 147.939 202.892 147.225 202.507C146.523 202.11 145.973 201.566 145.576 200.875C145.18 200.184 144.981 199.402 144.981 198.529C144.981 197.656 145.168 196.874 145.542 196.183C145.928 195.492 146.449 194.953 147.106 194.568C147.775 194.183 148.523 193.99 149.35 193.99C150.178 193.99 150.92 194.183 151.577 194.568C152.235 194.953 152.75 195.492 153.124 196.183C153.498 196.863 153.685 197.645 153.685 198.529L153.668 198.903ZM149.35 195.027C148.489 195.027 147.764 195.305 147.174 195.86C146.596 196.404 146.268 197.118 146.188 198.002H152.529C152.45 197.118 152.116 196.404 151.526 195.86C150.948 195.305 150.223 195.027 149.35 195.027ZM157.298 195.809C157.581 195.208 158.001 194.755 158.556 194.449C159.123 194.143 159.82 193.99 160.647 193.99V195.163L160.358 195.146C159.417 195.146 158.681 195.435 158.148 196.013C157.615 196.591 157.349 197.401 157.349 198.444V203H156.142V194.058H157.298V195.809ZM166.404 203.085C165.543 203.085 164.767 202.892 164.075 202.507C163.384 202.11 162.84 201.566 162.443 200.875C162.047 200.184 161.848 199.402 161.848 198.529C161.848 197.656 162.047 196.874 162.443 196.183C162.84 195.492 163.384 194.953 164.075 194.568C164.767 194.183 165.543 193.99 166.404 193.99C167.266 193.99 168.042 194.183 168.733 194.568C169.425 194.953 169.963 195.492 170.348 196.183C170.745 196.874 170.943 197.656 170.943 198.529C170.943 199.402 170.745 200.184 170.348 200.875C169.963 201.566 169.425 202.11 168.733 202.507C168.042 202.892 167.266 203.085 166.404 203.085ZM166.404 202.014C167.039 202.014 167.606 201.872 168.104 201.589C168.614 201.294 169.011 200.881 169.294 200.348C169.578 199.815 169.719 199.209 169.719 198.529C169.719 197.849 169.578 197.243 169.294 196.71C169.011 196.177 168.614 195.769 168.104 195.486C167.606 195.191 167.039 195.044 166.404 195.044C165.77 195.044 165.197 195.191 164.687 195.486C164.189 195.769 163.792 196.177 163.497 196.71C163.214 197.243 163.072 197.849 163.072 198.529C163.072 199.209 163.214 199.815 163.497 200.348C163.792 200.881 164.189 201.294 164.687 201.589C165.197 201.872 165.77 202.014 166.404 202.014Z" fill="#093642"/>
<mask id="mask0_913_29272" style="mask-type:luminance" maskUnits="userSpaceOnUse" x="81" y="38" width="92" height="90">
<path d="M172.103 38.7H81V127.888H172.103V38.7Z" fill="white"/>
</mask>
<g mask="url(#mask0_913_29272)">
<path d="M172.104 109.603C171.669 110.377 171.173 111.116 170.618 111.812C170.258 112.162 169.826 112.433 169.352 112.608C168.877 112.783 168.37 112.858 167.864 112.829C166.589 112.844 165.313 112.851 164.039 112.829C163.002 112.811 162.353 112.24 162.363 111.415C162.373 110.591 163.014 110.075 164.088 110.058C165.274 110.041 166.461 110.069 167.647 110.048C168.78 110.026 169.26 109.543 169.26 108.431C169.26 90.4653 169.26 72.4996 169.26 54.5343C169.26 54.3635 169.239 54.1927 169.224 53.963H83.8449V54.9207C83.8449 72.6543 83.8449 90.3879 83.8449 108.121C83.8449 109.678 84.2337 110.052 85.8542 110.053C88.9976 110.053 92.141 110.053 95.2845 110.061C95.6637 110.061 96.1561 110.021 96.3969 110.224C96.8045 110.52 97.0759 110.961 97.1517 111.452C97.1192 111.896 96.6232 112.317 96.2958 112.723C96.2259 112.81 96.0164 112.817 95.872 112.817C92.1073 112.807 88.3391 112.871 84.578 112.742C83.6204 112.648 82.7302 112.217 82.0736 111.529C81.417 110.84 81.0388 109.942 81.0096 109C81 108.74 81 108.478 81 108.217C81 86.5942 81 64.9714 81 43.3487C81 40.3482 82.659 38.7272 85.7242 38.7272C112.799 38.7264 139.875 38.717 166.95 38.699C169.542 38.699 171.284 39.5943 172.104 42.034V109.603ZM83.8497 51.0508H169.26C169.26 48.5274 169.26 46.0653 169.26 43.6032C169.26 41.8361 168.93 41.5121 167.156 41.5121H85.9505C85.6837 41.5008 85.4164 41.504 85.1499 41.5216C84.977 41.5208 84.8057 41.5543 84.6463 41.6199C84.4869 41.6854 84.3427 41.7819 84.2223 41.9033C84.1019 42.0247 84.0078 42.1687 83.9456 42.3266C83.8835 42.4845 83.8545 42.653 83.8605 42.8221C83.8328 45.5458 83.8497 48.2694 83.8497 51.0555" fill="#EA685C"/>
<path d="M122.816 127.894C122.396 127.496 121.998 127.076 121.624 126.637C120.398 125.04 119.202 123.422 117.982 121.794C117.096 122.277 116.088 122.505 115.075 122.449C114.061 122.393 113.086 122.056 112.261 121.478C111.436 120.899 110.796 120.103 110.416 119.183C110.036 118.262 109.931 117.255 110.114 116.278C108.045 115.631 105.996 114.988 103.945 114.35C102.38 113.861 102.068 113.115 102.897 111.758C103.95 110.043 105.026 108.342 106.056 106.616C106.222 106.309 106.468 106.052 106.769 105.87C107.07 105.688 107.416 105.588 107.77 105.581C110.517 105.368 113.261 105.117 116.002 104.845C116.185 104.837 116.364 104.793 116.529 104.716C116.694 104.639 116.843 104.532 116.965 104.399C118.771 101.373 120.534 98.3211 122.348 95.2028C121.055 94.6503 119.82 94.1166 118.57 93.5912L94.9251 83.6084C93.1938 82.878 93.0698 81.7777 94.5904 80.6633C96.2542 79.4499 97.8855 78.1894 99.595 77.0455C100.124 76.7021 100.755 76.5438 101.388 76.5967C110.342 77.7618 119.289 78.9858 128.235 80.1862C129.107 80.304 130.161 80.6904 130.815 80.3605C131.469 80.0307 131.771 78.9622 132.213 78.2106C132.935 76.9795 133.677 75.7567 134.363 74.5056C137.338 69.0772 141.985 65.4158 147.465 62.658C149.266 61.6654 151.354 61.2881 153.398 61.5859C156.019 62.0371 157.683 64.1883 157.869 67.23C157.941 71.0993 157.118 74.9343 155.462 78.4486C154.364 81.2436 152.712 83.7984 150.6 85.9657C149.172 87.3959 147.902 88.9768 146.494 90.4258C146.266 90.6169 146.12 90.8856 146.087 91.1775C146.054 91.4695 146.135 91.7629 146.314 91.9985C150.57 100.281 154.792 108.581 159.054 116.855C159.272 117.23 159.403 117.647 159.438 118.076C159.473 118.506 159.41 118.938 159.255 119.341C158.588 121.168 158.001 123.022 157.376 124.864C156.818 126.513 155.69 126.739 154.507 125.453C148.022 118.402 141.537 111.35 135.052 104.299C134.875 104.106 134.69 103.923 134.468 103.697C132.06 106.346 129.664 108.954 127.318 111.604C127.127 111.943 127.082 112.342 127.191 112.715C127.804 115.37 128.497 118.009 129.073 120.672C129.17 121.226 129.043 121.796 128.719 122.26C127.351 123.973 125.884 125.611 124.439 127.265C124.211 127.488 123.964 127.692 123.701 127.876L122.816 127.894ZM155.167 68.6378C155.046 67.7577 155.011 66.9979 154.834 66.2722C154.733 65.6914 154.417 65.1674 153.946 64.7997C153.476 64.432 152.883 64.2462 152.282 64.2778C151.779 64.27 151.277 64.3262 150.789 64.4451C148.532 65.0723 146.424 66.1341 144.591 67.5681C141.944 69.2496 139.685 71.4532 137.958 74.0379C129.628 88.2334 121.344 102.455 113.108 116.702C112.941 117.152 112.93 117.644 113.076 118.101C113.222 118.558 113.516 118.955 113.915 119.233C114.313 119.511 114.794 119.653 115.283 119.639C115.772 119.624 116.243 119.454 116.623 119.153C119.401 116.097 122.18 113.042 124.959 109.987C133.017 101.121 141.071 92.2526 149.122 83.3811C152.943 79.1495 154.448 73.9885 155.169 68.6366M136.508 101.759L155.306 122.167C155.677 121.059 155.965 120.064 156.345 119.104C156.451 118.854 156.496 118.584 156.476 118.315C156.457 118.045 156.374 117.783 156.234 117.55C152.262 109.814 148.301 102.072 144.351 94.324C144.222 94.0719 144.077 93.828 143.893 93.4993L136.508 101.757M123.591 92.67L129.21 83.1937C128.749 83.1125 128.381 83.0347 128.006 82.9852C123.784 82.4127 119.561 81.8429 115.337 81.2759C110.791 80.6664 106.243 80.0625 101.696 79.464C101.442 79.4031 101.175 79.4246 100.935 79.5253C99.9008 80.2321 98.9004 80.9849 97.7892 81.7954L123.59 92.6688M111.503 113.771L115.008 107.738C112.877 107.916 110.875 108.078 108.868 108.259C108.636 108.26 108.412 108.346 108.243 108.501C107.488 109.657 106.775 110.839 106.01 112.08L111.497 113.77M119.951 119.716L123.337 124.233C123.714 123.731 124.133 123.261 124.591 122.828C125.28 122.336 125.768 121.619 125.967 120.806C126.165 119.994 126.062 119.138 125.674 118.394C125.267 117.126 124.933 115.838 124.674 114.533L119.956 119.717" fill="#EA685C"/>
<path d="M112.091 68.7226H97.7733C97.4772 68.7333 97.1808 68.7243 96.886 68.6955C96.5547 68.6711 96.2456 68.5229 96.0228 68.2817C95.8 68.0405 95.6806 67.7247 95.6893 67.3996C95.6486 67.0915 95.7289 66.7797 95.9139 66.5272C96.0989 66.2747 96.3748 66.1002 96.6861 66.039C97.0619 65.9608 97.4459 65.9276 97.8299 65.94C107.346 65.9353 116.861 65.9353 126.376 65.94C127.848 65.94 128.506 66.3688 128.514 67.329C128.522 68.2891 127.872 68.7261 126.408 68.7261H112.091" fill="#EA685C"/>
<path d="M108.266 58.5207C111.733 58.5207 115.2 58.5207 118.667 58.5207C118.992 58.5096 119.318 58.5245 119.641 58.5654C119.939 58.5989 120.215 58.7364 120.419 58.9527C120.622 59.169 120.739 59.4497 120.748 59.7435C120.805 60.0483 120.745 60.3629 120.579 60.6267C120.413 60.8906 120.153 61.085 119.849 61.1724C119.478 61.2695 119.094 61.3093 118.71 61.2902C111.718 61.2973 104.725 61.2973 97.732 61.2902C97.3484 61.3094 96.9641 61.2696 96.5931 61.1724C96.2894 61.0847 96.0295 60.8904 95.8633 60.6266C95.6971 60.3629 95.6363 60.0484 95.6926 59.7435C95.7024 59.4497 95.8198 59.1691 96.0233 58.9529C96.2268 58.7367 96.503 58.5991 96.8014 58.5654C97.1243 58.525 97.45 58.51 97.7754 58.5207C101.272 58.5207 104.768 58.5207 108.264 58.5207" fill="#EA685C"/>
<path d="M137.594 44.9366C145.391 44.9366 153.187 44.9366 160.984 44.9366C161.339 44.9235 161.694 44.9353 162.048 44.9719C162.363 44.9944 162.659 45.1324 162.875 45.3583C163.091 45.5843 163.212 45.8817 163.214 46.1912C163.266 46.512 163.19 46.84 163.002 47.1073C162.813 47.3746 162.527 47.5608 162.202 47.6272C161.886 47.6992 161.563 47.7297 161.239 47.7179C145.497 47.7219 129.756 47.7219 114.014 47.7179C113.691 47.7296 113.367 47.7007 113.051 47.6319C112.733 47.5569 112.452 47.3743 112.259 47.1163C112.065 46.8583 111.971 46.5417 111.993 46.2223C112.015 45.903 112.152 45.6016 112.379 45.3715C112.607 45.1414 112.91 44.9973 113.235 44.9648C113.56 44.9364 113.886 44.927 114.211 44.9366H137.594Z" fill="#EA685C"/>
<path d="M101.476 47.6414C101.208 47.6355 100.947 47.5517 100.727 47.4007C100.507 47.2497 100.338 47.0382 100.24 46.793C100.143 46.5478 100.123 46.28 100.181 46.0234C100.24 45.7667 100.375 45.5329 100.569 45.3514C100.764 45.1699 101.009 45.0489 101.274 45.0037C101.538 44.9586 101.811 44.9913 102.056 45.0977C102.302 45.2042 102.51 45.3796 102.654 45.6017C102.798 45.8238 102.871 46.0826 102.864 46.3455C102.853 46.6964 102.701 47.0288 102.441 47.2712C102.181 47.5136 101.835 47.6465 101.476 47.6414Z" fill="#EA685C"/>
<path d="M90.8154 46.329C90.818 46.5021 90.7852 46.6739 90.7188 46.8343C90.6524 46.9947 90.5539 47.1405 90.429 47.263C90.3041 47.3856 90.1554 47.4824 89.9916 47.5478C89.8278 47.6132 89.6523 47.6458 89.4755 47.6437C89.1153 47.64 88.7714 47.4964 88.5195 47.2445C88.2675 46.9927 88.1281 46.6532 88.1319 46.3007C88.1357 45.9483 88.2825 45.6118 88.5399 45.3653C88.7973 45.1187 89.1442 44.9823 89.5044 44.986C89.6814 44.9877 89.8563 45.024 90.0187 45.0929C90.1812 45.1618 90.3278 45.2618 90.4501 45.3871C90.5723 45.5125 90.6676 45.6605 90.7304 45.8225C90.7931 45.9844 90.822 46.1559 90.8154 46.329Z" fill="#EA685C"/>
<path d="M96.8412 46.2984C96.8453 46.5632 96.7687 46.8231 96.6212 47.0451C96.4738 47.2672 96.2621 47.4412 96.0132 47.5451C95.7642 47.6489 95.4893 47.678 95.2235 47.6284C94.9577 47.5788 94.7129 47.453 94.5205 47.2668C94.328 47.0807 94.1966 46.8427 94.1428 46.5831C94.0891 46.3236 94.1156 46.0543 94.2188 45.8095C94.3221 45.5648 94.4975 45.3556 94.7227 45.2088C94.9478 45.0619 95.2126 44.984 95.4832 44.9849C95.6608 44.983 95.8369 45.0156 96.0015 45.0807C96.1661 45.1459 96.3159 45.2423 96.4422 45.3645C96.5685 45.4866 96.6688 45.632 96.7373 45.7923C96.8057 45.9526 96.8411 46.1246 96.8412 46.2984Z" fill="#EA685C"/>
<path d="M150.43 73.9119C150.176 74.2052 149.919 74.7495 149.51 74.905C149.018 75.0221 148.5 74.9654 148.046 74.7448C147.26 74.409 146.544 73.9201 145.785 73.5196C145.495 73.4046 145.252 73.1976 145.096 72.9316C144.94 72.6657 144.88 72.3563 144.926 72.0529C144.957 71.7461 145.098 71.46 145.324 71.2447C145.55 71.0294 145.845 70.8984 146.16 70.8749C146.984 70.8993 147.79 71.1257 148.502 71.5334C149.215 71.9411 149.811 72.5171 150.237 73.2086C150.301 73.3676 150.33 73.5396 150.43 73.9154" fill="#EA685C"/>
</g>
</svg>
