<svg width="252" height="252" viewBox="0 0 252 252" fill="none" xmlns="http://www.w3.org/2000/svg">
<path d="M125 250C194.036 250 250 194.036 250 125C250 55.9644 194.036 0 125 0C55.9644 0 0 55.9644 0 125C0 194.036 55.9644 250 125 250Z" fill="white"/>
<path d="M125.56 250.549C194.596 250.549 250.56 194.584 250.56 125.549C250.56 56.5129 194.596 0.548523 125.56 0.548523C56.5248 0.548523 0.560425 56.5129 0.560425 125.549C0.560425 194.584 56.5248 250.549 125.56 250.549Z" stroke="#EA685C"/>
<path d="M95.9063 149.1V161H93.1523V151.31H90.7723V149.1H95.9063ZM108.755 151.718C109.605 151.718 110.376 151.916 111.067 152.313C111.77 152.698 112.319 153.248 112.716 153.962C113.113 154.665 113.311 155.486 113.311 156.427C113.311 157.368 113.113 158.195 112.716 158.909C112.319 159.612 111.77 160.161 111.067 160.558C110.376 160.943 109.605 161.136 108.755 161.136C107.588 161.136 106.67 160.768 106.001 160.031V164.298H103.349V151.854H105.882V152.908C106.539 152.115 107.497 151.718 108.755 151.718ZM108.296 158.96C108.976 158.96 109.531 158.733 109.962 158.28C110.404 157.815 110.625 157.198 110.625 156.427C110.625 155.656 110.404 155.044 109.962 154.591C109.531 154.126 108.976 153.894 108.296 153.894C107.616 153.894 107.055 154.126 106.613 154.591C106.182 155.044 105.967 155.656 105.967 156.427C105.967 157.198 106.182 157.815 106.613 158.28C107.055 158.733 107.616 158.96 108.296 158.96ZM124.3 151.854V161H121.784V159.912C121.433 160.309 121.014 160.615 120.526 160.83C120.039 161.034 119.512 161.136 118.945 161.136C117.744 161.136 116.792 160.79 116.089 160.099C115.387 159.408 115.035 158.382 115.035 157.022V151.854H117.687V156.631C117.687 158.104 118.305 158.841 119.54 158.841C120.175 158.841 120.685 158.637 121.07 158.229C121.456 157.81 121.648 157.192 121.648 156.376V151.854H124.3ZM132.316 151.718C133.45 151.718 134.362 152.058 135.053 152.738C135.756 153.418 136.107 154.427 136.107 155.764V161H133.455V156.172C133.455 155.447 133.297 154.908 132.979 154.557C132.662 154.194 132.203 154.013 131.602 154.013C130.934 154.013 130.401 154.223 130.004 154.642C129.608 155.05 129.409 155.662 129.409 156.478V161H126.757V151.854H129.29V152.925C129.642 152.54 130.078 152.245 130.599 152.041C131.121 151.826 131.693 151.718 132.316 151.718ZM144.41 160.558C144.149 160.751 143.826 160.898 143.441 161C143.067 161.091 142.67 161.136 142.251 161.136C141.163 161.136 140.319 160.858 139.718 160.303C139.129 159.748 138.834 158.932 138.834 157.855V154.098H137.423V152.058H138.834V149.831H141.486V152.058H143.764V154.098H141.486V157.821C141.486 158.206 141.582 158.507 141.775 158.722C141.979 158.926 142.262 159.028 142.625 159.028C143.044 159.028 143.401 158.915 143.696 158.688L144.41 160.558ZM149.969 161.136C149.005 161.136 148.138 160.938 147.368 160.541C146.608 160.133 146.013 159.572 145.583 158.858C145.152 158.144 144.937 157.334 144.937 156.427C144.937 155.52 145.152 154.71 145.583 153.996C146.013 153.282 146.608 152.727 147.368 152.33C148.138 151.922 149.005 151.718 149.969 151.718C150.932 151.718 151.793 151.922 152.553 152.33C153.312 152.727 153.907 153.282 154.338 153.996C154.768 154.71 154.984 155.52 154.984 156.427C154.984 157.334 154.768 158.144 154.338 158.858C153.907 159.572 153.312 160.133 152.553 160.541C151.793 160.938 150.932 161.136 149.969 161.136ZM149.969 158.96C150.649 158.96 151.204 158.733 151.635 158.28C152.077 157.815 152.298 157.198 152.298 156.427C152.298 155.656 152.077 155.044 151.635 154.591C151.204 154.126 150.649 153.894 149.969 153.894C149.289 153.894 148.728 154.126 148.286 154.591C147.844 155.044 147.623 155.656 147.623 156.427C147.623 157.198 147.844 157.815 148.286 158.28C148.728 158.733 149.289 158.96 149.969 158.96ZM119.058 172.905H127.15V174.979H119.058V172.905ZM119.058 177.121H127.15V179.195H119.058V177.121ZM57.4073 191.1V203H54.6533V193.31H52.2733V191.1H57.4073ZM67.5495 200.858C68.7395 200.858 69.7425 200.388 70.5585 199.447L72.3095 201.079C71.7429 201.77 71.0402 202.297 70.2015 202.66C69.3742 203.023 68.4449 203.204 67.4135 203.204C66.4275 203.204 65.5095 203.028 64.6595 202.677C63.8209 202.326 63.1069 201.827 62.5175 201.181C61.9282 200.535 61.5032 199.787 61.2425 198.937H59.3215V197.509H60.9875C60.9762 197.407 60.9705 197.254 60.9705 197.05C60.9705 196.846 60.9762 196.693 60.9875 196.591H59.3215V195.163H61.2425C61.5032 194.313 61.9282 193.565 62.5175 192.919C63.1069 192.273 63.8209 191.774 64.6595 191.423C65.5095 191.072 66.4275 190.896 67.4135 190.896C68.4449 190.896 69.3742 191.077 70.2015 191.44C71.0402 191.803 71.7429 192.324 72.3095 193.004L70.5585 194.636C69.7312 193.707 68.7282 193.242 67.5495 193.242C66.8015 193.242 66.1329 193.412 65.5435 193.752C64.9542 194.092 64.5009 194.562 64.1835 195.163H68.4845V196.591H63.7585C63.7472 196.693 63.7415 196.846 63.7415 197.05C63.7415 197.254 63.7472 197.407 63.7585 197.509H68.4845V198.937H64.1835C64.5009 199.538 64.9542 200.008 65.5435 200.348C66.1329 200.688 66.8015 200.858 67.5495 200.858ZM88.1113 190.386V203H85.5783V201.946C84.921 202.739 83.969 203.136 82.7223 203.136C81.861 203.136 81.079 202.943 80.3763 202.558C79.685 202.173 79.141 201.623 78.7443 200.909C78.3476 200.195 78.1493 199.368 78.1493 198.427C78.1493 197.486 78.3476 196.659 78.7443 195.945C79.141 195.231 79.685 194.681 80.3763 194.296C81.079 193.911 81.861 193.718 82.7223 193.718C83.8896 193.718 84.802 194.086 85.4593 194.823V190.386H88.1113ZM83.1813 200.96C83.85 200.96 84.4053 200.733 84.8473 200.28C85.2893 199.815 85.5103 199.198 85.5103 198.427C85.5103 197.656 85.2893 197.044 84.8473 196.591C84.4053 196.126 83.85 195.894 83.1813 195.894C82.5013 195.894 81.9403 196.126 81.4983 196.591C81.0563 197.044 80.8353 197.656 80.8353 198.427C80.8353 199.198 81.0563 199.815 81.4983 200.28C81.9403 200.733 82.5013 200.96 83.1813 200.96ZM99.5248 198.461C99.5248 198.495 99.5078 198.733 99.4738 199.175H92.5548C92.6795 199.742 92.9741 200.189 93.4388 200.518C93.9035 200.847 94.4815 201.011 95.1728 201.011C95.6488 201.011 96.0681 200.943 96.4308 200.807C96.8048 200.66 97.1505 200.433 97.4678 200.127L98.8788 201.657C98.0175 202.643 96.7595 203.136 95.1048 203.136C94.0735 203.136 93.1611 202.938 92.3678 202.541C91.5745 202.133 90.9625 201.572 90.5318 200.858C90.1011 200.144 89.8858 199.334 89.8858 198.427C89.8858 197.532 90.0955 196.727 90.5148 196.013C90.9455 195.288 91.5291 194.727 92.2658 194.33C93.0138 193.922 93.8468 193.718 94.7648 193.718C95.6601 193.718 96.4705 193.911 97.1958 194.296C97.9211 194.681 98.4878 195.237 98.8958 195.962C99.3151 196.676 99.5248 197.509 99.5248 198.461ZM94.7818 195.724C94.1811 195.724 93.6768 195.894 93.2688 196.234C92.8608 196.574 92.6115 197.039 92.5208 197.628H97.0258C96.9351 197.05 96.6858 196.591 96.2778 196.251C95.8698 195.9 95.3711 195.724 94.7818 195.724ZM115.421 190.386V203H112.888V201.946C112.231 202.739 111.279 203.136 110.032 203.136C109.171 203.136 108.389 202.943 107.686 202.558C106.995 202.173 106.451 201.623 106.054 200.909C105.657 200.195 105.459 199.368 105.459 198.427C105.459 197.486 105.657 196.659 106.054 195.945C106.451 195.231 106.995 194.681 107.686 194.296C108.389 193.911 109.171 193.718 110.032 193.718C111.199 193.718 112.112 194.086 112.769 194.823V190.386H115.421ZM110.491 200.96C111.16 200.96 111.715 200.733 112.157 200.28C112.599 199.815 112.82 199.198 112.82 198.427C112.82 197.656 112.599 197.044 112.157 196.591C111.715 196.126 111.16 195.894 110.491 195.894C109.811 195.894 109.25 196.126 108.808 196.591C108.366 197.044 108.145 197.656 108.145 198.427C108.145 199.198 108.366 199.815 108.808 200.28C109.25 200.733 109.811 200.96 110.491 200.96ZM126.834 198.461C126.834 198.495 126.817 198.733 126.783 199.175H119.864C119.989 199.742 120.284 200.189 120.748 200.518C121.213 200.847 121.791 201.011 122.482 201.011C122.958 201.011 123.378 200.943 123.74 200.807C124.114 200.66 124.46 200.433 124.777 200.127L126.188 201.657C125.327 202.643 124.069 203.136 122.414 203.136C121.383 203.136 120.471 202.938 119.677 202.541C118.884 202.133 118.272 201.572 117.841 200.858C117.411 200.144 117.195 199.334 117.195 198.427C117.195 197.532 117.405 196.727 117.824 196.013C118.255 195.288 118.839 194.727 119.575 194.33C120.323 193.922 121.156 193.718 122.074 193.718C122.97 193.718 123.78 193.911 124.505 194.296C125.231 194.681 125.797 195.237 126.205 195.962C126.625 196.676 126.834 197.509 126.834 198.461ZM122.091 195.724C121.491 195.724 120.986 195.894 120.578 196.234C120.17 196.574 119.921 197.039 119.83 197.628H124.335C124.245 197.05 123.995 196.591 123.587 196.251C123.179 195.9 122.681 195.724 122.091 195.724ZM131.677 203.136C130.918 203.136 130.175 203.045 129.45 202.864C128.725 202.671 128.147 202.433 127.716 202.15L128.6 200.246C129.008 200.507 129.501 200.722 130.079 200.892C130.657 201.051 131.224 201.13 131.779 201.13C132.901 201.13 133.462 200.852 133.462 200.297C133.462 200.036 133.309 199.849 133.003 199.736C132.697 199.623 132.227 199.526 131.592 199.447C130.844 199.334 130.226 199.203 129.739 199.056C129.252 198.909 128.827 198.648 128.464 198.274C128.113 197.9 127.937 197.367 127.937 196.676C127.937 196.098 128.101 195.588 128.43 195.146C128.77 194.693 129.257 194.341 129.892 194.092C130.538 193.843 131.297 193.718 132.17 193.718C132.816 193.718 133.456 193.792 134.091 193.939C134.737 194.075 135.27 194.268 135.689 194.517L134.805 196.404C134 195.951 133.122 195.724 132.17 195.724C131.603 195.724 131.178 195.803 130.895 195.962C130.612 196.121 130.47 196.325 130.47 196.574C130.47 196.857 130.623 197.056 130.929 197.169C131.235 197.282 131.722 197.39 132.391 197.492C133.139 197.617 133.751 197.753 134.227 197.9C134.703 198.036 135.117 198.291 135.468 198.665C135.819 199.039 135.995 199.56 135.995 200.229C135.995 200.796 135.825 201.3 135.485 201.742C135.145 202.184 134.646 202.53 133.989 202.779C133.343 203.017 132.572 203.136 131.677 203.136ZM142.051 203.136C141.077 203.136 140.198 202.938 139.416 202.541C138.646 202.133 138.039 201.572 137.597 200.858C137.167 200.144 136.951 199.334 136.951 198.427C136.951 197.52 137.167 196.71 137.597 195.996C138.039 195.282 138.646 194.727 139.416 194.33C140.198 193.922 141.077 193.718 142.051 193.718C143.015 193.718 143.853 193.922 144.567 194.33C145.293 194.727 145.82 195.299 146.148 196.047L144.091 197.152C143.615 196.313 142.93 195.894 142.034 195.894C141.343 195.894 140.771 196.121 140.317 196.574C139.864 197.027 139.637 197.645 139.637 198.427C139.637 199.209 139.864 199.827 140.317 200.28C140.771 200.733 141.343 200.96 142.034 200.96C142.941 200.96 143.627 200.541 144.091 199.702L146.148 200.824C145.82 201.549 145.293 202.116 144.567 202.524C143.853 202.932 143.015 203.136 142.051 203.136ZM156.889 193.854V203H154.373V201.912C154.022 202.309 153.603 202.615 153.115 202.83C152.628 203.034 152.101 203.136 151.534 203.136C150.333 203.136 149.381 202.79 148.678 202.099C147.976 201.408 147.624 200.382 147.624 199.022V193.854H150.276V198.631C150.276 200.104 150.894 200.841 152.129 200.841C152.764 200.841 153.274 200.637 153.659 200.229C154.045 199.81 154.237 199.192 154.237 198.376V193.854H156.889ZM168.305 198.461C168.305 198.495 168.288 198.733 168.254 199.175H161.335C161.46 199.742 161.754 200.189 162.219 200.518C162.684 200.847 163.262 201.011 163.953 201.011C164.429 201.011 164.848 200.943 165.211 200.807C165.585 200.66 165.931 200.433 166.248 200.127L167.659 201.657C166.798 202.643 165.54 203.136 163.885 203.136C162.854 203.136 161.941 202.938 161.148 202.541C160.355 202.133 159.743 201.572 159.312 200.858C158.881 200.144 158.666 199.334 158.666 198.427C158.666 197.532 158.876 196.727 159.295 196.013C159.726 195.288 160.309 194.727 161.046 194.33C161.794 193.922 162.627 193.718 163.545 193.718C164.44 193.718 165.251 193.911 165.976 194.296C166.701 194.681 167.268 195.237 167.676 195.962C168.095 196.676 168.305 197.509 168.305 198.461ZM163.562 195.724C162.961 195.724 162.457 195.894 162.049 196.234C161.641 196.574 161.392 197.039 161.301 197.628H165.806C165.715 197.05 165.466 196.591 165.058 196.251C164.65 195.9 164.151 195.724 163.562 195.724ZM175.63 193.718C176.763 193.718 177.675 194.058 178.367 194.738C179.069 195.418 179.421 196.427 179.421 197.764V203H176.769V198.172C176.769 197.447 176.61 196.908 176.293 196.557C175.975 196.194 175.516 196.013 174.916 196.013C174.247 196.013 173.714 196.223 173.318 196.642C172.921 197.05 172.723 197.662 172.723 198.478V203H170.071V193.854H172.604V194.925C172.955 194.54 173.391 194.245 173.913 194.041C174.434 193.826 175.006 193.718 175.63 193.718ZM187.724 202.558C187.463 202.751 187.14 202.898 186.755 203C186.381 203.091 185.984 203.136 185.565 203.136C184.477 203.136 183.632 202.858 183.032 202.303C182.442 201.748 182.148 200.932 182.148 199.855V196.098H180.737V194.058H182.148V191.831H184.8V194.058H187.078V196.098H184.8V199.821C184.8 200.206 184.896 200.507 185.089 200.722C185.293 200.926 185.576 201.028 185.939 201.028C186.358 201.028 186.715 200.915 187.01 200.688L187.724 202.558ZM193.282 203.136C192.319 203.136 191.452 202.938 190.681 202.541C189.922 202.133 189.327 201.572 188.896 200.858C188.465 200.144 188.25 199.334 188.25 198.427C188.25 197.52 188.465 196.71 188.896 195.996C189.327 195.282 189.922 194.727 190.681 194.33C191.452 193.922 192.319 193.718 193.282 193.718C194.245 193.718 195.107 193.922 195.866 194.33C196.625 194.727 197.22 195.282 197.651 195.996C198.082 196.71 198.297 197.52 198.297 198.427C198.297 199.334 198.082 200.144 197.651 200.858C197.22 201.572 196.625 202.133 195.866 202.541C195.107 202.938 194.245 203.136 193.282 203.136ZM193.282 200.96C193.962 200.96 194.517 200.733 194.948 200.28C195.39 199.815 195.611 199.198 195.611 198.427C195.611 197.656 195.39 197.044 194.948 196.591C194.517 196.126 193.962 195.894 193.282 195.894C192.602 195.894 192.041 196.126 191.599 196.591C191.157 197.044 190.936 197.656 190.936 198.427C190.936 199.198 191.157 199.815 191.599 200.28C192.041 200.733 192.602 200.96 193.282 200.96Z" fill="#093642"/>
<mask id="mask0_979_29853" style="mask-type:luminance" maskUnits="userSpaceOnUse" x="77" y="33" width="97" height="95">
<path d="M173.093 33.8878H77V127.756H173.093V33.8878Z" fill="white"/>
</mask>
<g mask="url(#mask0_979_29853)">
<path d="M173.096 45.0679C172.571 44.25 171.885 43.4893 170.842 43.8708C170.01 44.2941 169.234 44.8173 168.533 45.4284C168.332 45.2764 168.147 45.1066 167.978 44.9213C167.656 44.4853 167.215 44.1475 166.705 43.9473C166.195 43.7471 165.637 43.6926 165.097 43.7903C164.73 43.835 164.358 43.7861 164.017 43.6483C163.675 43.5106 163.376 43.2887 163.148 43.0043C160.436 40.3057 157.689 37.6358 154.938 34.9747C154.503 34.5894 154.048 34.2266 153.575 33.8878H82.6328C81.5025 34.3676 80.4059 34.92 79.35 35.5414C78.1472 36.5285 77.3194 37.8834 77 39.3875V75.8623C77.0396 75.9084 77.0726 75.9596 77.098 76.0144C78.2471 79.8098 80.4461 81.416 84.4849 81.416H99.8343C99.9345 81.556 100.037 81.6948 100.137 81.8348C99.8157 81.9514 99.5124 82.1113 99.2361 82.31C95.9705 85.4701 92.7166 88.6426 89.4744 91.8277C86.32 94.9143 86.3268 98.7726 89.4845 101.859C97.5327 109.723 105.583 117.586 113.636 125.45C116.783 128.523 120.758 128.521 123.913 125.442C129.847 119.656 135.774 113.866 141.696 108.073C141.902 107.886 142.096 107.687 142.276 107.476C142.581 107.121 142.736 106.666 142.709 106.203C142.682 105.741 142.475 105.306 142.131 104.988C141.804 104.671 141.366 104.487 140.906 104.474C140.446 104.461 139.998 104.619 139.653 104.917C139.393 105.137 139.144 105.37 138.909 105.615C133.004 111.382 127.097 117.148 121.189 122.914C120.905 123.276 120.541 123.569 120.123 123.771C119.705 123.974 119.245 124.079 118.779 124.081C118.313 124.082 117.853 123.979 117.434 123.779C117.015 123.58 116.648 123.289 116.362 122.929C108.264 115.028 100.168 107.123 92.0745 99.2157C90.4553 97.6313 90.4662 96.0387 92.1072 94.4381C107.962 78.9507 123.825 63.4688 139.695 47.9925C140.048 47.6752 140.505 47.4911 140.984 47.4733C148.834 47.4439 156.685 47.4439 164.537 47.4733C165.095 47.5735 165.635 47.749 166.144 47.9947C164.667 49.4277 163.408 50.6172 162.201 51.8529C162.05 52.0368 161.841 52.1653 161.606 52.2174C161.372 52.2695 161.126 52.242 160.91 52.1395C159.709 51.7743 158.418 51.8157 157.244 52.2571C156.07 52.6985 155.083 53.5141 154.441 54.5721C153.8 55.6302 153.541 56.869 153.708 58.0885C153.874 59.308 154.456 60.4369 155.359 61.2931C156.262 62.1492 157.434 62.6825 158.685 62.8069C159.935 62.9312 161.193 62.6394 162.253 61.9785C163.314 61.3176 164.116 60.3262 164.529 59.1645C164.943 58.0027 164.945 56.7383 164.534 55.5756C164.454 55.3232 164.409 54.9142 164.552 54.7676C165.878 53.4017 167.247 52.0767 168.607 50.7396L168.945 50.7914C169.134 51.2606 169.263 51.7508 169.328 52.2509C169.353 59.8586 169.35 67.4649 169.318 75.0697C169.294 75.5939 169.08 76.0928 168.716 76.4774C163.168 81.9451 157.601 87.3951 152.014 92.8276C151.763 93.056 151.528 93.3013 151.311 93.5617C151.04 93.9021 150.904 94.3276 150.929 94.7589C150.954 95.1901 151.139 95.5976 151.449 95.9053C151.757 96.2144 152.166 96.4076 152.604 96.4509C153.043 96.4942 153.484 96.385 153.848 96.1423C154.146 95.9193 154.423 95.671 154.676 95.4005C160.45 89.7659 166.221 84.1266 171.99 78.4826C172.385 78.0564 172.755 77.6093 173.099 77.1432V50.2027C172.536 49.5214 171.986 48.8435 171.409 48.1435L173.099 46.1703L173.096 45.0679ZM140.294 43.766C139.769 43.7452 139.245 43.837 138.76 44.0348C138.275 44.2327 137.841 44.5318 137.486 44.9114C130.745 51.5424 123.985 58.1566 117.208 64.7538C116.997 65.0284 116.755 65.2787 116.487 65.5001L116.479 65.3899L111.156 70.5787C111.097 70.6792 111.028 70.7734 110.949 70.8598C108.74 73.0193 106.537 75.1865 104.302 77.3218C104.013 77.5789 103.64 77.7274 103.249 77.7407C96.8079 77.7679 90.3659 77.7719 83.9227 77.7528C83.499 77.7814 83.074 77.7206 82.6765 77.5745C82.2789 77.4283 81.9181 77.2003 81.6185 76.9058C81.3188 76.6114 81.0873 76.2573 80.9397 75.8677C80.792 75.4781 80.7317 75.0619 80.7627 74.6475C80.7575 63.3174 80.7575 51.9867 80.7627 40.6552C80.7372 40.2406 80.8021 39.8255 80.9532 39.4373C81.1043 39.0492 81.3381 38.697 81.639 38.4041C81.9399 38.1112 82.3011 37.8843 82.6985 37.7386C83.096 37.5928 83.5206 37.5315 83.9441 37.5587C106.493 37.5513 129.041 37.5513 151.587 37.5587C151.891 37.5276 152.197 37.5966 152.456 37.7549C154.484 39.6939 156.472 41.6627 158.637 43.7837C152.364 43.7837 146.327 43.8079 140.295 43.7638M159.14 59.1748C158.648 59.1542 158.184 58.9444 157.849 58.591C157.515 58.2375 157.336 57.7691 157.353 57.2876C157.369 56.806 157.579 56.3503 157.937 56.0196C158.296 55.6889 158.773 55.5099 159.265 55.5216C159.749 55.5478 160.206 55.753 160.541 56.0958C160.877 56.4385 161.068 56.8932 161.074 57.368C161.069 57.6112 161.014 57.8509 160.914 58.0735C160.814 58.2962 160.67 58.4973 160.49 58.6654C160.311 58.8335 160.099 58.9653 159.867 59.0533C159.635 59.1412 159.388 59.1837 159.14 59.1781" fill="#EA685C"/>
</g>
<path d="M93.2761 44.8709V61.6709H89.3881V47.9909H86.0281V44.8709H93.2761ZM107.595 58.6469C109.275 58.6469 110.691 57.9829 111.843 56.6549L114.315 58.9589C113.515 59.9349 112.523 60.6789 111.339 61.1909C110.171 61.7029 108.859 61.9589 107.403 61.9589C106.011 61.9589 104.715 61.7109 103.515 61.2149C102.331 60.7189 101.323 60.0149 100.491 59.1029C99.6585 58.1909 99.0585 57.1349 98.6905 55.9349H95.9785V53.9189H98.3305C98.3145 53.7749 98.3065 53.5589 98.3065 53.2709C98.3065 52.9829 98.3145 52.7669 98.3305 52.6229H95.9785V50.6069H98.6905C99.0585 49.4069 99.6585 48.3509 100.491 47.4389C101.323 46.5269 102.331 45.8229 103.515 45.3269C104.715 44.8309 106.011 44.5829 107.403 44.5829C108.859 44.5829 110.171 44.8389 111.339 45.3509C112.523 45.8629 113.515 46.5989 114.315 47.5589L111.843 49.8629C110.675 48.5509 109.259 47.8949 107.595 47.8949C106.539 47.8949 105.595 48.1349 104.763 48.6149C103.931 49.0949 103.291 49.7589 102.843 50.6069H108.915V52.6229H102.243C102.227 52.7669 102.219 52.9829 102.219 53.2709C102.219 53.5589 102.227 53.7749 102.243 53.9189H108.915V55.9349H102.843C103.291 56.7829 103.931 57.4469 104.763 57.9269C105.595 58.4069 106.539 58.6469 107.595 58.6469Z" fill="#EA685C"/>
<path d="M107.856 98.547L114.36 104.911L112.855 106.384L107.558 101.202L106.258 102.475L105.05 101.293L107.856 98.547ZM116.309 93.0754C116.774 92.6208 117.304 92.3147 117.898 92.1571C118.493 91.9873 119.094 91.9873 119.701 92.1571C120.302 92.3207 120.859 92.6541 121.373 93.1572C121.887 93.6603 122.231 94.2088 122.405 94.8028C122.572 95.3908 122.572 95.9787 122.405 96.5667C122.237 97.1425 121.922 97.6577 121.457 98.1123C120.819 98.7367 120.116 99.0306 119.348 98.9943L121.68 101.276L120.23 102.695L113.429 96.0394L114.813 94.6846L115.389 95.2484C115.315 94.4725 115.622 93.7482 116.309 93.0754ZM120.017 97.194C120.388 96.8304 120.568 96.4121 120.556 95.9393C120.543 95.4544 120.326 95.0059 119.905 94.5937C119.484 94.1816 119.029 93.9724 118.539 93.9664C118.05 93.9482 117.619 94.1209 117.248 94.4846C116.876 94.8483 116.697 95.2726 116.709 95.7575C116.721 96.2303 116.938 96.6728 117.359 97.0849C117.781 97.4971 118.236 97.7123 118.725 97.7305C119.215 97.7365 119.645 97.5577 120.017 97.194ZM124.88 84.8341L129.879 89.7256L128.504 91.0712L127.909 90.4893C127.934 90.8894 127.872 91.2773 127.724 91.6531C127.569 92.0228 127.336 92.3592 127.027 92.6623C126.37 93.3048 125.661 93.6291 124.899 93.6352C124.137 93.6412 123.384 93.2806 122.641 92.5532L119.816 89.7892L121.266 88.3709L123.877 90.9257C124.682 91.7137 125.422 91.7774 126.097 91.1167C126.444 90.7772 126.612 90.3954 126.599 89.9711C126.581 89.5407 126.348 89.1073 125.902 88.6709L123.431 86.2524L124.88 84.8341ZM129.187 80.4742C129.807 79.8681 130.491 79.562 131.241 79.5559C131.996 79.5438 132.74 79.8954 133.471 80.6106L136.332 83.411L134.883 84.8293L132.244 82.2472C131.848 81.8592 131.467 81.6562 131.101 81.638C130.73 81.6138 130.38 81.7623 130.051 82.0835C129.686 82.4411 129.509 82.8382 129.522 83.2746C129.528 83.7049 129.754 84.1383 130.2 84.5747L132.672 86.9932L131.222 88.4116L126.223 83.5201L127.608 82.1653L128.193 82.7381C128.174 82.3442 128.252 81.9532 128.425 81.5653C128.592 81.1713 128.846 80.8076 129.187 80.4742ZM140.629 78.734C140.592 78.9764 140.496 79.228 140.341 79.4886C140.186 79.7371 139.994 79.9735 139.765 80.1978C139.17 80.7797 138.557 81.0827 137.925 81.107C137.299 81.1252 136.692 80.8463 136.104 80.2705L134.05 78.2612L133.279 79.0158L132.164 77.9248L132.935 77.1701L131.718 75.9791L133.168 74.5607L134.385 75.7518L135.63 74.5334L136.745 75.6245L135.5 76.8428L137.535 78.834C137.745 79.0401 137.962 79.1492 138.185 79.1613C138.408 79.1613 138.619 79.0643 138.817 78.8703C139.046 78.6461 139.179 78.3945 139.217 78.1157L140.629 78.734ZM143.983 76.0703C143.456 76.5855 142.874 76.9431 142.236 77.1431C141.598 77.331 140.966 77.3492 140.341 77.1977C139.715 77.0462 139.154 76.7279 138.659 76.243C138.163 75.7581 137.838 75.2096 137.683 74.5974C137.528 73.9852 137.55 73.3699 137.748 72.7517C137.946 72.1213 138.309 71.5485 138.835 71.0333C139.362 70.5181 139.944 70.1665 140.582 69.9786C141.214 69.7846 141.843 69.7634 142.468 69.915C143.094 70.0665 143.655 70.3847 144.15 70.8696C144.646 71.3545 144.971 71.9031 145.126 72.5153C145.281 73.1275 145.262 73.7457 145.07 74.3701C144.872 74.9883 144.509 75.5551 143.983 76.0703ZM142.794 74.9065C143.165 74.5428 143.345 74.1246 143.333 73.6518C143.32 73.1669 143.103 72.7183 142.682 72.3062C142.261 71.894 141.806 71.6849 141.316 71.6788C140.827 71.6606 140.396 71.8334 140.025 72.1971C139.653 72.5607 139.473 72.985 139.486 73.47C139.492 73.9488 139.706 74.3943 140.127 74.8065C140.548 75.2187 141.007 75.4308 141.502 75.4429C141.991 75.449 142.422 75.2702 142.794 74.9065Z" fill="#EA685C"/>
</svg>
