<svg width="252" height="252" viewBox="0 0 252 252" fill="none" xmlns="http://www.w3.org/2000/svg">
<path d="M125 250C194.036 250 250 194.036 250 125C250 55.9644 194.036 0 125 0C55.9644 0 0 55.9644 0 125C0 194.036 55.9644 250 125 250Z" fill="white"/>
<path d="M125.561 250.549C194.596 250.549 250.561 194.584 250.561 125.549C250.561 56.5129 194.596 0.548523 125.561 0.548523C56.525 0.548523 0.560547 56.5129 0.560547 125.549C0.560547 194.584 56.525 250.549 125.561 250.549Z" stroke="#EA685C"/>
<path d="M63.0691 149.1C64.6104 149.1 65.8231 149.468 66.7071 150.205C67.5911 150.942 68.0331 151.956 68.0331 153.248C68.0331 154.54 67.5911 155.554 66.7071 156.291C65.8231 157.028 64.6104 157.396 63.0691 157.396H60.1281V161H58.4281V149.1H63.0691ZM63.0181 155.917C64.0947 155.917 64.9164 155.69 65.4831 155.237C66.0497 154.772 66.3331 154.109 66.3331 153.248C66.3331 152.387 66.0497 151.729 65.4831 151.276C64.9164 150.811 64.0947 150.579 63.0181 150.579H60.1281V155.917H63.0181ZM78.8566 151.99V161H77.3096V159.64C76.981 160.105 76.5446 160.467 76.0006 160.728C75.468 160.977 74.8843 161.102 74.2496 161.102C73.0483 161.102 72.102 160.773 71.4106 160.116C70.7193 159.447 70.3736 158.467 70.3736 157.175V151.99H72.0056V156.988C72.0056 157.861 72.2153 158.524 72.6346 158.977C73.054 159.419 73.6546 159.64 74.4366 159.64C75.298 159.64 75.978 159.379 76.4766 158.858C76.9753 158.337 77.2246 157.6 77.2246 156.648V151.99H78.8566ZM90.1065 156.546C90.1065 156.671 90.0952 156.835 90.0725 157.039H82.7625C82.8645 157.832 83.2102 158.473 83.7995 158.96C84.4002 159.436 85.1425 159.674 86.0265 159.674C87.1032 159.674 87.9702 159.311 88.6275 158.586L89.5285 159.64C89.1205 160.116 88.6105 160.479 87.9985 160.728C87.3978 160.977 86.7235 161.102 85.9755 161.102C85.0235 161.102 84.1792 160.909 83.4425 160.524C82.7058 160.127 82.1335 159.578 81.7255 158.875C81.3288 158.172 81.1305 157.379 81.1305 156.495C81.1305 155.622 81.3232 154.835 81.7085 154.132C82.1052 153.429 82.6435 152.885 83.3235 152.5C84.0148 152.103 84.7912 151.905 85.6525 151.905C86.5138 151.905 87.2788 152.103 87.9475 152.5C88.6275 152.885 89.1545 153.429 89.5285 154.132C89.9138 154.835 90.1065 155.639 90.1065 156.546ZM85.6525 153.282C84.8705 153.282 84.2132 153.52 83.6805 153.996C83.1592 154.472 82.8532 155.095 82.7625 155.866H88.5425C88.4518 155.107 88.1402 154.489 87.6075 154.013C87.0862 153.526 86.4345 153.282 85.6525 153.282ZM100.873 148.386V161H99.3087V159.572C98.946 160.071 98.487 160.45 97.9317 160.711C97.3764 160.972 96.7644 161.102 96.0957 161.102C95.223 161.102 94.441 160.909 93.7497 160.524C93.0584 160.139 92.5144 159.6 92.1177 158.909C91.7324 158.206 91.5397 157.402 91.5397 156.495C91.5397 155.588 91.7324 154.789 92.1177 154.098C92.5144 153.407 93.0584 152.868 93.7497 152.483C94.441 152.098 95.223 151.905 96.0957 151.905C96.7417 151.905 97.3367 152.03 97.8807 152.279C98.4247 152.517 98.878 152.874 99.2407 153.35V148.386H100.873ZM96.2317 159.674C96.7984 159.674 97.314 159.544 97.7787 159.283C98.2434 159.011 98.606 158.637 98.8667 158.161C99.1274 157.674 99.2577 157.118 99.2577 156.495C99.2577 155.872 99.1274 155.322 98.8667 154.846C98.606 154.359 98.2434 153.985 97.7787 153.724C97.314 153.463 96.7984 153.333 96.2317 153.333C95.6537 153.333 95.1324 153.463 94.6677 153.724C94.2144 153.985 93.8517 154.359 93.5797 154.846C93.319 155.322 93.1887 155.872 93.1887 156.495C93.1887 157.118 93.319 157.674 93.5797 158.161C93.8517 158.637 94.2144 159.011 94.6677 159.283C95.1324 159.544 95.6537 159.674 96.2317 159.674ZM112.104 156.546C112.104 156.671 112.092 156.835 112.07 157.039H104.76C104.862 157.832 105.207 158.473 105.797 158.96C106.397 159.436 107.14 159.674 108.024 159.674C109.1 159.674 109.967 159.311 110.625 158.586L111.526 159.64C111.118 160.116 110.608 160.479 109.996 160.728C109.395 160.977 108.721 161.102 107.973 161.102C107.021 161.102 106.176 160.909 105.44 160.524C104.703 160.127 104.131 159.578 103.723 158.875C103.326 158.172 103.128 157.379 103.128 156.495C103.128 155.622 103.32 154.835 103.706 154.132C104.102 153.429 104.641 152.885 105.321 152.5C106.012 152.103 106.788 151.905 107.65 151.905C108.511 151.905 109.276 152.103 109.945 152.5C110.625 152.885 111.152 153.429 111.526 154.132C111.911 154.835 112.104 155.639 112.104 156.546ZM107.65 153.282C106.868 153.282 106.21 153.52 105.678 153.996C105.156 154.472 104.85 155.095 104.76 155.866H110.54C110.449 155.107 110.137 154.489 109.605 154.013C109.083 153.526 108.432 153.282 107.65 153.282ZM116.954 161.102C116.217 161.102 115.509 161.006 114.829 160.813C114.149 160.609 113.616 160.354 113.231 160.048L113.911 158.756C114.307 159.039 114.789 159.266 115.356 159.436C115.922 159.606 116.495 159.691 117.073 159.691C118.501 159.691 119.215 159.283 119.215 158.467C119.215 158.195 119.118 157.98 118.926 157.821C118.733 157.662 118.489 157.549 118.195 157.481C117.911 157.402 117.503 157.317 116.971 157.226C116.245 157.113 115.65 156.982 115.186 156.835C114.732 156.688 114.341 156.438 114.013 156.087C113.684 155.736 113.52 155.243 113.52 154.608C113.52 153.792 113.86 153.14 114.54 152.653C115.22 152.154 116.132 151.905 117.277 151.905C117.877 151.905 118.478 151.979 119.079 152.126C119.679 152.273 120.172 152.472 120.558 152.721L119.861 154.013C119.124 153.537 118.257 153.299 117.26 153.299C116.568 153.299 116.041 153.412 115.679 153.639C115.316 153.866 115.135 154.166 115.135 154.54C115.135 154.835 115.237 155.067 115.441 155.237C115.645 155.407 115.894 155.532 116.189 155.611C116.495 155.69 116.92 155.781 117.464 155.883C118.189 156.008 118.773 156.144 119.215 156.291C119.668 156.427 120.053 156.665 120.371 157.005C120.688 157.345 120.847 157.821 120.847 158.433C120.847 159.249 120.495 159.901 119.793 160.388C119.101 160.864 118.155 161.102 116.954 161.102ZM129.911 153.061C130.228 152.619 130.653 152.285 131.186 152.058C131.73 151.831 132.353 151.718 133.056 151.718V154.166C132.761 154.143 132.563 154.132 132.461 154.132C131.701 154.132 131.106 154.347 130.676 154.778C130.245 155.197 130.03 155.832 130.03 156.682V161H127.378V151.854H129.911V153.061ZM143.509 156.461C143.509 156.495 143.492 156.733 143.458 157.175H136.539C136.663 157.742 136.958 158.189 137.423 158.518C137.887 158.847 138.465 159.011 139.157 159.011C139.633 159.011 140.052 158.943 140.415 158.807C140.789 158.66 141.134 158.433 141.452 158.127L142.863 159.657C142.001 160.643 140.743 161.136 139.089 161.136C138.057 161.136 137.145 160.938 136.352 160.541C135.558 160.133 134.946 159.572 134.516 158.858C134.085 158.144 133.87 157.334 133.87 156.427C133.87 155.532 134.079 154.727 134.499 154.013C134.929 153.288 135.513 152.727 136.25 152.33C136.998 151.922 137.831 151.718 138.749 151.718C139.644 151.718 140.454 151.911 141.18 152.296C141.905 152.681 142.472 153.237 142.88 153.962C143.299 154.676 143.509 155.509 143.509 156.461ZM138.766 153.724C138.165 153.724 137.661 153.894 137.253 154.234C136.845 154.574 136.595 155.039 136.505 155.628H141.01C140.919 155.05 140.67 154.591 140.262 154.251C139.854 153.9 139.355 153.724 138.766 153.724ZM154.709 151.854V159.47C154.709 161.147 154.273 162.394 153.4 163.21C152.528 164.026 151.253 164.434 149.575 164.434C148.691 164.434 147.853 164.326 147.059 164.111C146.266 163.896 145.609 163.584 145.087 163.176L146.141 161.272C146.527 161.589 147.014 161.839 147.603 162.02C148.193 162.213 148.782 162.309 149.371 162.309C150.289 162.309 150.964 162.099 151.394 161.68C151.836 161.272 152.057 160.649 152.057 159.81V159.419C151.366 160.178 150.403 160.558 149.167 160.558C148.329 160.558 147.558 160.377 146.855 160.014C146.164 159.64 145.614 159.119 145.206 158.45C144.798 157.781 144.594 157.011 144.594 156.138C144.594 155.265 144.798 154.495 145.206 153.826C145.614 153.157 146.164 152.642 146.855 152.279C147.558 151.905 148.329 151.718 149.167 151.718C150.493 151.718 151.502 152.154 152.193 153.027V151.854H154.709ZM149.694 158.382C150.397 158.382 150.969 158.178 151.411 157.77C151.865 157.351 152.091 156.807 152.091 156.138C152.091 155.469 151.865 154.931 151.411 154.523C150.969 154.104 150.397 153.894 149.694 153.894C148.992 153.894 148.414 154.104 147.96 154.523C147.507 154.931 147.28 155.469 147.28 156.138C147.28 156.807 147.507 157.351 147.96 157.77C148.414 158.178 148.992 158.382 149.694 158.382ZM160.867 151.718C162.283 151.718 163.371 152.058 164.131 152.738C164.89 153.407 165.27 154.421 165.27 155.781V161H162.788V159.861C162.289 160.711 161.36 161.136 160 161.136C159.297 161.136 158.685 161.017 158.164 160.779C157.654 160.541 157.263 160.212 156.991 159.793C156.719 159.374 156.583 158.898 156.583 158.365C156.583 157.515 156.9 156.846 157.535 156.359C158.181 155.872 159.172 155.628 160.51 155.628H162.618C162.618 155.05 162.442 154.608 162.091 154.302C161.739 153.985 161.212 153.826 160.51 153.826C160.022 153.826 159.541 153.905 159.065 154.064C158.6 154.211 158.203 154.415 157.875 154.676L156.923 152.823C157.421 152.472 158.016 152.2 158.708 152.007C159.41 151.814 160.13 151.718 160.867 151.718ZM160.663 159.351C161.116 159.351 161.518 159.249 161.87 159.045C162.221 158.83 162.47 158.518 162.618 158.11V157.175H160.799C159.711 157.175 159.167 157.532 159.167 158.246C159.167 158.586 159.297 158.858 159.558 159.062C159.83 159.255 160.198 159.351 160.663 159.351ZM167.67 148.386H170.322V161H167.67V148.386ZM176.472 151.718C177.889 151.718 178.977 152.058 179.736 152.738C180.495 153.407 180.875 154.421 180.875 155.781V161H178.393V159.861C177.894 160.711 176.965 161.136 175.605 161.136C174.902 161.136 174.29 161.017 173.769 160.779C173.259 160.541 172.868 160.212 172.596 159.793C172.324 159.374 172.188 158.898 172.188 158.365C172.188 157.515 172.505 156.846 173.14 156.359C173.786 155.872 174.778 155.628 176.115 155.628H178.223C178.223 155.05 178.047 154.608 177.696 154.302C177.345 153.985 176.818 153.826 176.115 153.826C175.628 153.826 175.146 153.905 174.67 154.064C174.205 154.211 173.809 154.415 173.48 154.676L172.528 152.823C173.027 152.472 173.622 152.2 174.313 152.007C175.016 151.814 175.735 151.718 176.472 151.718ZM176.268 159.351C176.721 159.351 177.124 159.249 177.475 159.045C177.826 158.83 178.076 158.518 178.223 158.11V157.175H176.404C175.316 157.175 174.772 157.532 174.772 158.246C174.772 158.586 174.902 158.858 175.163 159.062C175.435 159.255 175.803 159.351 176.268 159.351ZM185.808 153.061C186.126 152.619 186.551 152.285 187.083 152.058C187.627 151.831 188.251 151.718 188.953 151.718V154.166C188.659 154.143 188.46 154.132 188.358 154.132C187.599 154.132 187.004 154.347 186.573 154.778C186.143 155.197 185.927 155.832 185.927 156.682V161H183.275V151.854H185.808V153.061ZM41.9433 181.558C41.6826 181.751 41.3596 181.898 40.9743 182C40.6003 182.091 40.2036 182.136 39.7843 182.136C38.6963 182.136 37.852 181.858 37.2513 181.303C36.662 180.748 36.3673 179.932 36.3673 178.855V175.098H34.9563V173.058H36.3673V170.831H39.0193V173.058H41.2973V175.098H39.0193V178.821C39.0193 179.206 39.1156 179.507 39.3083 179.722C39.5123 179.926 39.7956 180.028 40.1583 180.028C40.5776 180.028 40.9346 179.915 41.2293 179.688L41.9433 181.558ZM52.646 172.854V182H50.13V180.912C49.7787 181.309 49.3593 181.615 48.872 181.83C48.3847 182.034 47.8577 182.136 47.291 182.136C46.0897 182.136 45.1377 181.79 44.435 181.099C43.7323 180.408 43.381 179.382 43.381 178.022V172.854H46.033V177.631C46.033 179.104 46.6507 179.841 47.886 179.841C48.5207 179.841 49.0307 179.637 49.416 179.229C49.8013 178.81 49.994 178.192 49.994 177.376V172.854H52.646ZM58.1799 182.136C57.4206 182.136 56.6782 182.045 55.9529 181.864C55.2276 181.671 54.6496 181.433 54.2189 181.15L55.1029 179.246C55.5109 179.507 56.0039 179.722 56.5819 179.892C57.1599 180.051 57.7266 180.13 58.2819 180.13C59.4039 180.13 59.9649 179.852 59.9649 179.297C59.9649 179.036 59.8119 178.849 59.5059 178.736C59.1999 178.623 58.7296 178.526 58.0949 178.447C57.3469 178.334 56.7292 178.203 56.2419 178.056C55.7546 177.909 55.3296 177.648 54.9669 177.274C54.6156 176.9 54.4399 176.367 54.4399 175.676C54.4399 175.098 54.6042 174.588 54.9329 174.146C55.2729 173.693 55.7602 173.341 56.3949 173.092C57.0409 172.843 57.8002 172.718 58.6729 172.718C59.3189 172.718 59.9592 172.792 60.5939 172.939C61.2399 173.075 61.7726 173.268 62.1919 173.517L61.3079 175.404C60.5032 174.951 59.6249 174.724 58.6729 174.724C58.1062 174.724 57.6812 174.803 57.3979 174.962C57.1146 175.121 56.9729 175.325 56.9729 175.574C56.9729 175.857 57.1259 176.056 57.4319 176.169C57.7379 176.282 58.2252 176.39 58.8939 176.492C59.6419 176.617 60.2539 176.753 60.7299 176.9C61.2059 177.036 61.6196 177.291 61.9709 177.665C62.3222 178.039 62.4979 178.56 62.4979 179.229C62.4979 179.796 62.3279 180.3 61.9879 180.742C61.6479 181.184 61.1492 181.53 60.4919 181.779C59.8459 182.017 59.0752 182.136 58.1799 182.136ZM74.3546 172.718C75.2046 172.718 75.9753 172.916 76.6666 173.313C77.3693 173.698 77.9189 174.248 78.3156 174.962C78.7123 175.665 78.9106 176.486 78.9106 177.427C78.9106 178.368 78.7123 179.195 78.3156 179.909C77.9189 180.612 77.3693 181.161 76.6666 181.558C75.9753 181.943 75.2046 182.136 74.3546 182.136C73.1873 182.136 72.2693 181.768 71.6006 181.031V185.298H68.9486V172.854H71.4816V173.908C72.1389 173.115 73.0966 172.718 74.3546 172.718ZM73.8956 179.96C74.5756 179.96 75.1309 179.733 75.5616 179.28C76.0036 178.815 76.2246 178.198 76.2246 177.427C76.2246 176.656 76.0036 176.044 75.5616 175.591C75.1309 175.126 74.5756 174.894 73.8956 174.894C73.2156 174.894 72.6546 175.126 72.2126 175.591C71.7819 176.044 71.5666 176.656 71.5666 177.427C71.5666 178.198 71.7819 178.815 72.2126 179.28C72.6546 179.733 73.2156 179.96 73.8956 179.96ZM89.8999 172.854V182H87.3839V180.912C87.0326 181.309 86.6132 181.615 86.1259 181.83C85.6386 182.034 85.1116 182.136 84.5449 182.136C83.3436 182.136 82.3916 181.79 81.6889 181.099C80.9862 180.408 80.6349 179.382 80.6349 178.022V172.854H83.2869V177.631C83.2869 179.104 83.9046 179.841 85.1399 179.841C85.7746 179.841 86.2846 179.637 86.6699 179.229C87.0552 178.81 87.2479 178.192 87.2479 177.376V172.854H89.8999ZM97.9158 172.718C99.0491 172.718 99.9615 173.058 100.653 173.738C101.355 174.418 101.707 175.427 101.707 176.764V182H99.0548V177.172C99.0548 176.447 98.8961 175.908 98.5788 175.557C98.2615 175.194 97.8025 175.013 97.2018 175.013C96.5331 175.013 96.0005 175.223 95.6038 175.642C95.2071 176.05 95.0088 176.662 95.0088 177.478V182H92.3568V172.854H94.8898V173.925C95.2411 173.54 95.6775 173.245 96.1988 173.041C96.7201 172.826 97.2925 172.718 97.9158 172.718ZM110.01 181.558C109.749 181.751 109.426 181.898 109.041 182C108.667 182.091 108.27 182.136 107.851 182.136C106.763 182.136 105.918 181.858 105.318 181.303C104.728 180.748 104.434 179.932 104.434 178.855V175.098H103.023V173.058H104.434V170.831H107.086V173.058H109.364V175.098H107.086V178.821C107.086 179.206 107.182 179.507 107.375 179.722C107.579 179.926 107.862 180.028 108.225 180.028C108.644 180.028 109.001 179.915 109.296 179.688L110.01 181.558ZM115.568 182.136C114.605 182.136 113.738 181.938 112.967 181.541C112.208 181.133 111.613 180.572 111.182 179.858C110.752 179.144 110.536 178.334 110.536 177.427C110.536 176.52 110.752 175.71 111.182 174.996C111.613 174.282 112.208 173.727 112.967 173.33C113.738 172.922 114.605 172.718 115.568 172.718C116.532 172.718 117.393 172.922 118.152 173.33C118.912 173.727 119.507 174.282 119.937 174.996C120.368 175.71 120.583 176.52 120.583 177.427C120.583 178.334 120.368 179.144 119.937 179.858C119.507 180.572 118.912 181.133 118.152 181.541C117.393 181.938 116.532 182.136 115.568 182.136ZM115.568 179.96C116.248 179.96 116.804 179.733 117.234 179.28C117.676 178.815 117.897 178.198 117.897 177.427C117.897 176.656 117.676 176.044 117.234 175.591C116.804 175.126 116.248 174.894 115.568 174.894C114.888 174.894 114.327 175.126 113.885 175.591C113.443 176.044 113.222 176.656 113.222 177.427C113.222 178.198 113.443 178.815 113.885 179.28C114.327 179.733 114.888 179.96 115.568 179.96ZM125.433 182.136C124.674 182.136 123.931 182.045 123.206 181.864C122.481 181.671 121.903 181.433 121.472 181.15L122.356 179.246C122.764 179.507 123.257 179.722 123.835 179.892C124.413 180.051 124.98 180.13 125.535 180.13C126.657 180.13 127.218 179.852 127.218 179.297C127.218 179.036 127.065 178.849 126.759 178.736C126.453 178.623 125.983 178.526 125.348 178.447C124.6 178.334 123.982 178.203 123.495 178.056C123.008 177.909 122.583 177.648 122.22 177.274C121.869 176.9 121.693 176.367 121.693 175.676C121.693 175.098 121.857 174.588 122.186 174.146C122.526 173.693 123.013 173.341 123.648 173.092C124.294 172.843 125.053 172.718 125.926 172.718C126.572 172.718 127.212 172.792 127.847 172.939C128.493 173.075 129.026 173.268 129.445 173.517L128.561 175.404C127.756 174.951 126.878 174.724 125.926 174.724C125.359 174.724 124.934 174.803 124.651 174.962C124.368 175.121 124.226 175.325 124.226 175.574C124.226 175.857 124.379 176.056 124.685 176.169C124.991 176.282 125.478 176.39 126.147 176.492C126.895 176.617 127.507 176.753 127.983 176.9C128.459 177.036 128.873 177.291 129.224 177.665C129.575 178.039 129.751 178.56 129.751 179.229C129.751 179.796 129.581 180.3 129.241 180.742C128.901 181.184 128.402 181.53 127.745 181.779C127.099 182.017 126.328 182.136 125.433 182.136ZM139.891 172.718C141.307 172.718 142.395 173.058 143.155 173.738C143.914 174.407 144.294 175.421 144.294 176.781V182H141.812V180.861C141.313 181.711 140.384 182.136 139.024 182.136C138.321 182.136 137.709 182.017 137.188 181.779C136.678 181.541 136.287 181.212 136.015 180.793C135.743 180.374 135.607 179.898 135.607 179.365C135.607 178.515 135.924 177.846 136.559 177.359C137.205 176.872 138.196 176.628 139.534 176.628H141.642C141.642 176.05 141.466 175.608 141.115 175.302C140.763 174.985 140.236 174.826 139.534 174.826C139.046 174.826 138.565 174.905 138.089 175.064C137.624 175.211 137.227 175.415 136.899 175.676L135.947 173.823C136.445 173.472 137.04 173.2 137.732 173.007C138.434 172.814 139.154 172.718 139.891 172.718ZM139.687 180.351C140.14 180.351 140.542 180.249 140.894 180.045C141.245 179.83 141.494 179.518 141.642 179.11V178.175H139.823C138.735 178.175 138.191 178.532 138.191 179.246C138.191 179.586 138.321 179.858 138.582 180.062C138.854 180.255 139.222 180.351 139.687 180.351ZM159.804 172.99L155.86 182H154.194L150.25 172.99H151.95L155.044 180.215L158.206 172.99H159.804ZM161.327 172.99H162.959V182H161.327V172.99ZM162.143 171.256C161.826 171.256 161.56 171.154 161.344 170.95C161.14 170.746 161.038 170.497 161.038 170.202C161.038 169.907 161.14 169.658 161.344 169.454C161.56 169.239 161.826 169.131 162.143 169.131C162.461 169.131 162.721 169.233 162.925 169.437C163.141 169.63 163.248 169.873 163.248 170.168C163.248 170.474 163.141 170.735 162.925 170.95C162.721 171.154 162.461 171.256 162.143 171.256ZM169.356 172.905C170.603 172.905 171.555 173.211 172.212 173.823C172.881 174.435 173.215 175.347 173.215 176.56V182H171.668V180.81C171.396 181.229 171.005 181.552 170.495 181.779C169.997 181.994 169.402 182.102 168.71 182.102C167.702 182.102 166.891 181.858 166.279 181.371C165.679 180.884 165.378 180.243 165.378 179.45C165.378 178.657 165.667 178.022 166.245 177.546C166.823 177.059 167.741 176.815 168.999 176.815H171.583V176.492C171.583 175.789 171.379 175.251 170.971 174.877C170.563 174.503 169.963 174.316 169.169 174.316C168.637 174.316 168.115 174.407 167.605 174.588C167.095 174.758 166.665 174.99 166.313 175.285L165.633 174.061C166.098 173.687 166.653 173.404 167.299 173.211C167.945 173.007 168.631 172.905 169.356 172.905ZM168.982 180.844C169.606 180.844 170.144 180.708 170.597 180.436C171.051 180.153 171.379 179.756 171.583 179.246V177.988H169.067C167.685 177.988 166.993 178.453 166.993 179.382C166.993 179.835 167.169 180.192 167.52 180.453C167.872 180.714 168.359 180.844 168.982 180.844ZM175.079 185.4C174.683 185.4 174.314 185.355 173.974 185.264C173.634 185.173 173.351 185.037 173.124 184.856L173.651 183.598C173.991 183.881 174.433 184.023 174.977 184.023C175.408 184.023 175.737 183.887 175.963 183.615C176.201 183.354 176.32 182.963 176.32 182.442V172.99H177.952V182.408C177.952 183.337 177.703 184.068 177.204 184.601C176.706 185.134 175.997 185.4 175.079 185.4ZM177.136 171.256C176.819 171.256 176.553 171.154 176.337 170.95C176.133 170.746 176.031 170.497 176.031 170.202C176.031 169.907 176.133 169.658 176.337 169.454C176.553 169.239 176.819 169.131 177.136 169.131C177.454 169.131 177.714 169.233 177.918 169.437C178.134 169.63 178.241 169.873 178.241 170.168C178.241 170.474 178.134 170.735 177.918 170.95C177.714 171.154 177.454 171.256 177.136 171.256ZM189.21 177.546C189.21 177.671 189.198 177.835 189.176 178.039H181.866C181.968 178.832 182.313 179.473 182.903 179.96C183.503 180.436 184.246 180.674 185.13 180.674C186.206 180.674 187.073 180.311 187.731 179.586L188.632 180.64C188.224 181.116 187.714 181.479 187.102 181.728C186.501 181.977 185.827 182.102 185.079 182.102C184.127 182.102 183.282 181.909 182.546 181.524C181.809 181.127 181.237 180.578 180.829 179.875C180.432 179.172 180.234 178.379 180.234 177.495C180.234 176.622 180.426 175.835 180.812 175.132C181.208 174.429 181.747 173.885 182.427 173.5C183.118 173.103 183.894 172.905 184.756 172.905C185.617 172.905 186.382 173.103 187.051 173.5C187.731 173.885 188.258 174.429 188.632 175.132C189.017 175.835 189.21 176.639 189.21 177.546ZM184.756 174.282C183.974 174.282 183.316 174.52 182.784 174.996C182.262 175.472 181.956 176.095 181.866 176.866H187.646C187.555 176.107 187.243 175.489 186.711 175.013C186.189 174.526 185.538 174.282 184.756 174.282ZM193.04 174.503C193.323 173.982 193.742 173.585 194.298 173.313C194.853 173.041 195.527 172.905 196.321 172.905V174.486C196.23 174.475 196.105 174.469 195.947 174.469C195.063 174.469 194.366 174.735 193.856 175.268C193.357 175.789 193.108 176.537 193.108 177.512V182H191.476V172.99H193.04V174.503ZM202.108 182.102C201.213 182.102 200.408 181.904 199.694 181.507C198.98 181.11 198.419 180.566 198.011 179.875C197.614 179.172 197.416 178.379 197.416 177.495C197.416 176.611 197.614 175.823 198.011 175.132C198.419 174.429 198.98 173.885 199.694 173.5C200.408 173.103 201.213 172.905 202.108 172.905C203.003 172.905 203.802 173.103 204.505 173.5C205.219 173.885 205.774 174.429 206.171 175.132C206.579 175.823 206.783 176.611 206.783 177.495C206.783 178.379 206.579 179.172 206.171 179.875C205.774 180.566 205.219 181.11 204.505 181.507C203.802 181.904 203.003 182.102 202.108 182.102ZM202.108 180.674C202.686 180.674 203.202 180.544 203.655 180.283C204.12 180.011 204.482 179.637 204.743 179.161C205.004 178.674 205.134 178.118 205.134 177.495C205.134 176.872 205.004 176.322 204.743 175.846C204.482 175.359 204.12 174.985 203.655 174.724C203.202 174.463 202.686 174.333 202.108 174.333C201.53 174.333 201.009 174.463 200.544 174.724C200.091 174.985 199.728 175.359 199.456 175.846C199.195 176.322 199.065 176.872 199.065 177.495C199.065 178.118 199.195 178.674 199.456 179.161C199.728 179.637 200.091 180.011 200.544 180.283C201.009 180.544 201.53 180.674 202.108 180.674ZM211.624 182.102C210.887 182.102 210.179 182.006 209.499 181.813C208.819 181.609 208.286 181.354 207.901 181.048L208.581 179.756C208.978 180.039 209.459 180.266 210.026 180.436C210.593 180.606 211.165 180.691 211.743 180.691C213.171 180.691 213.885 180.283 213.885 179.467C213.885 179.195 213.789 178.98 213.596 178.821C213.403 178.662 213.16 178.549 212.865 178.481C212.582 178.402 212.174 178.317 211.641 178.226C210.916 178.113 210.321 177.982 209.856 177.835C209.403 177.688 209.012 177.438 208.683 177.087C208.354 176.736 208.19 176.243 208.19 175.608C208.19 174.792 208.53 174.14 209.21 173.653C209.89 173.154 210.802 172.905 211.947 172.905C212.548 172.905 213.148 172.979 213.749 173.126C214.35 173.273 214.843 173.472 215.228 173.721L214.531 175.013C213.794 174.537 212.927 174.299 211.93 174.299C211.239 174.299 210.712 174.412 210.349 174.639C209.986 174.866 209.805 175.166 209.805 175.54C209.805 175.835 209.907 176.067 210.111 176.237C210.315 176.407 210.564 176.532 210.859 176.611C211.165 176.69 211.59 176.781 212.134 176.883C212.859 177.008 213.443 177.144 213.885 177.291C214.338 177.427 214.724 177.665 215.041 178.005C215.358 178.345 215.517 178.821 215.517 179.433C215.517 180.249 215.166 180.901 214.463 181.388C213.772 181.864 212.825 182.102 211.624 182.102ZM55.4093 193.99V206.298H53.7773V201.64C53.4033 202.116 52.9443 202.479 52.4003 202.728C51.8676 202.977 51.2783 203.102 50.6323 203.102C49.7596 203.102 48.9776 202.909 48.2863 202.524C47.595 202.139 47.051 201.6 46.6543 200.909C46.269 200.206 46.0763 199.402 46.0763 198.495C46.0763 197.588 46.269 196.789 46.6543 196.098C47.051 195.407 47.595 194.868 48.2863 194.483C48.9776 194.098 49.7596 193.905 50.6323 193.905C51.301 193.905 51.913 194.035 52.4683 194.296C53.0236 194.545 53.4826 194.919 53.8453 195.418V193.99H55.4093ZM50.7683 201.674C51.335 201.674 51.8506 201.544 52.3153 201.283C52.78 201.011 53.1426 200.637 53.4033 200.161C53.664 199.674 53.7943 199.118 53.7943 198.495C53.7943 197.872 53.6583 197.322 53.3863 196.846C53.1256 196.37 52.763 196.002 52.2983 195.741C51.845 195.469 51.335 195.333 50.7683 195.333C50.1903 195.333 49.669 195.463 49.2043 195.724C48.751 195.985 48.3883 196.359 48.1163 196.846C47.8556 197.322 47.7253 197.872 47.7253 198.495C47.7253 199.118 47.8556 199.674 48.1163 200.161C48.3883 200.637 48.751 201.011 49.2043 201.283C49.669 201.544 50.1903 201.674 50.7683 201.674ZM66.8952 193.99V203H65.3482V201.64C65.0195 202.105 64.5832 202.467 64.0392 202.728C63.5065 202.977 62.9229 203.102 62.2882 203.102C61.0869 203.102 60.1405 202.773 59.4492 202.116C58.7579 201.447 58.4122 200.467 58.4122 199.175V193.99H60.0442V198.988C60.0442 199.861 60.2539 200.524 60.6732 200.977C61.0925 201.419 61.6932 201.64 62.4752 201.64C63.3365 201.64 64.0165 201.379 64.5152 200.858C65.0139 200.337 65.2632 199.6 65.2632 198.648V193.99H66.8952ZM78.1451 198.546C78.1451 198.671 78.1337 198.835 78.1111 199.039H70.8011C70.9031 199.832 71.2487 200.473 71.8381 200.96C72.4387 201.436 73.1811 201.674 74.0651 201.674C75.1417 201.674 76.0087 201.311 76.6661 200.586L77.5671 201.64C77.1591 202.116 76.6491 202.479 76.0371 202.728C75.4364 202.977 74.7621 203.102 74.0141 203.102C73.0621 203.102 72.2177 202.909 71.4811 202.524C70.7444 202.127 70.1721 201.578 69.7641 200.875C69.3674 200.172 69.1691 199.379 69.1691 198.495C69.1691 197.622 69.3617 196.835 69.7471 196.132C70.1437 195.429 70.6821 194.885 71.3621 194.5C72.0534 194.103 72.8297 193.905 73.6911 193.905C74.5524 193.905 75.3174 194.103 75.9861 194.5C76.6661 194.885 77.1931 195.429 77.5671 196.132C77.9524 196.835 78.1451 197.639 78.1451 198.546ZM73.6911 195.282C72.9091 195.282 72.2517 195.52 71.7191 195.996C71.1977 196.472 70.8917 197.095 70.8011 197.866H76.5811C76.4904 197.107 76.1787 196.489 75.6461 196.013C75.1247 195.526 74.4731 195.282 73.6911 195.282ZM92.9497 193.99L89.0057 203H87.3397L83.3957 193.99H85.0957L88.1897 201.215L91.3517 193.99H92.9497ZM94.4728 193.99H96.1048V203H94.4728V193.99ZM95.2888 192.256C94.9714 192.256 94.7051 192.154 94.4898 191.95C94.2858 191.746 94.1838 191.497 94.1838 191.202C94.1838 190.907 94.2858 190.658 94.4898 190.454C94.7051 190.239 94.9714 190.131 95.2888 190.131C95.6061 190.131 95.8668 190.233 96.0708 190.437C96.2861 190.63 96.3938 190.873 96.3938 191.168C96.3938 191.474 96.2861 191.735 96.0708 191.95C95.8668 192.154 95.6061 192.256 95.2888 192.256ZM102.502 193.905C103.748 193.905 104.7 194.211 105.358 194.823C106.026 195.435 106.361 196.347 106.361 197.56V203H104.814V201.81C104.542 202.229 104.151 202.552 103.641 202.779C103.142 202.994 102.547 203.102 101.856 203.102C100.847 203.102 100.037 202.858 99.4248 202.371C98.8242 201.884 98.5238 201.243 98.5238 200.45C98.5238 199.657 98.8128 199.022 99.3908 198.546C99.9688 198.059 100.887 197.815 102.145 197.815H104.729V197.492C104.729 196.789 104.525 196.251 104.117 195.877C103.709 195.503 103.108 195.316 102.315 195.316C101.782 195.316 101.261 195.407 100.751 195.588C100.241 195.758 99.8102 195.99 99.4588 196.285L98.7788 195.061C99.2435 194.687 99.7988 194.404 100.445 194.211C101.091 194.007 101.776 193.905 102.502 193.905ZM102.128 201.844C102.751 201.844 103.289 201.708 103.743 201.436C104.196 201.153 104.525 200.756 104.729 200.246V198.988H102.213C100.83 198.988 100.139 199.453 100.139 200.382C100.139 200.835 100.314 201.192 100.666 201.453C101.017 201.714 101.504 201.844 102.128 201.844ZM108.225 206.4C107.828 206.4 107.46 206.355 107.12 206.264C106.78 206.173 106.497 206.037 106.27 205.856L106.797 204.598C107.137 204.881 107.579 205.023 108.123 205.023C108.554 205.023 108.882 204.887 109.109 204.615C109.347 204.354 109.466 203.963 109.466 203.442V193.99H111.098V203.408C111.098 204.337 110.849 205.068 110.35 205.601C109.851 206.134 109.143 206.4 108.225 206.4ZM110.282 192.256C109.965 192.256 109.698 192.154 109.483 191.95C109.279 191.746 109.177 191.497 109.177 191.202C109.177 190.907 109.279 190.658 109.483 190.454C109.698 190.239 109.965 190.131 110.282 190.131C110.599 190.131 110.86 190.233 111.064 190.437C111.279 190.63 111.387 190.873 111.387 191.168C111.387 191.474 111.279 191.735 111.064 191.95C110.86 192.154 110.599 192.256 110.282 192.256ZM122.355 198.546C122.355 198.671 122.344 198.835 122.321 199.039H115.011C115.113 199.832 115.459 200.473 116.048 200.96C116.649 201.436 117.391 201.674 118.275 201.674C119.352 201.674 120.219 201.311 120.876 200.586L121.777 201.64C121.369 202.116 120.859 202.479 120.247 202.728C119.646 202.977 118.972 203.102 118.224 203.102C117.272 203.102 116.428 202.909 115.691 202.524C114.954 202.127 114.382 201.578 113.974 200.875C113.577 200.172 113.379 199.379 113.379 198.495C113.379 197.622 113.572 196.835 113.957 196.132C114.354 195.429 114.892 194.885 115.572 194.5C116.263 194.103 117.04 193.905 117.901 193.905C118.762 193.905 119.527 194.103 120.196 194.5C120.876 194.885 121.403 195.429 121.777 196.132C122.162 196.835 122.355 197.639 122.355 198.546ZM117.901 195.282C117.119 195.282 116.462 195.52 115.929 195.996C115.408 196.472 115.102 197.095 115.011 197.866H120.791C120.7 197.107 120.389 196.489 119.856 196.013C119.335 195.526 118.683 195.282 117.901 195.282ZM129.432 193.905C130.577 193.905 131.484 194.239 132.152 194.908C132.832 195.565 133.172 196.534 133.172 197.815V203H131.54V198.002C131.54 197.129 131.331 196.472 130.911 196.03C130.492 195.588 129.891 195.367 129.109 195.367C128.225 195.367 127.528 195.628 127.018 196.149C126.508 196.659 126.253 197.396 126.253 198.359V203H124.621V193.99H126.185V195.35C126.514 194.885 126.956 194.528 127.511 194.279C128.078 194.03 128.718 193.905 129.432 193.905ZM144.685 203.102C143.767 203.102 142.945 202.904 142.22 202.507C141.506 202.11 140.945 201.566 140.537 200.875C140.129 200.172 139.925 199.379 139.925 198.495C139.925 197.611 140.129 196.823 140.537 196.132C140.945 195.429 141.506 194.885 142.22 194.5C142.945 194.103 143.767 193.905 144.685 193.905C145.501 193.905 146.226 194.069 146.861 194.398C147.507 194.727 148.006 195.203 148.357 195.826L147.116 196.625C146.833 196.194 146.481 195.871 146.062 195.656C145.643 195.441 145.178 195.333 144.668 195.333C144.079 195.333 143.546 195.463 143.07 195.724C142.605 195.985 142.237 196.359 141.965 196.846C141.704 197.322 141.574 197.872 141.574 198.495C141.574 199.13 141.704 199.691 141.965 200.178C142.237 200.654 142.605 201.022 143.07 201.283C143.546 201.544 144.079 201.674 144.668 201.674C145.178 201.674 145.643 201.566 146.062 201.351C146.481 201.136 146.833 200.813 147.116 200.382L148.357 201.164C148.006 201.787 147.507 202.269 146.861 202.609C146.226 202.938 145.501 203.102 144.685 203.102ZM154.196 203.102C153.301 203.102 152.496 202.904 151.782 202.507C151.068 202.11 150.507 201.566 150.099 200.875C149.702 200.172 149.504 199.379 149.504 198.495C149.504 197.611 149.702 196.823 150.099 196.132C150.507 195.429 151.068 194.885 151.782 194.5C152.496 194.103 153.301 193.905 154.196 193.905C155.091 193.905 155.89 194.103 156.593 194.5C157.307 194.885 157.862 195.429 158.259 196.132C158.667 196.823 158.871 197.611 158.871 198.495C158.871 199.379 158.667 200.172 158.259 200.875C157.862 201.566 157.307 202.11 156.593 202.507C155.89 202.904 155.091 203.102 154.196 203.102ZM154.196 201.674C154.774 201.674 155.29 201.544 155.743 201.283C156.208 201.011 156.57 200.637 156.831 200.161C157.092 199.674 157.222 199.118 157.222 198.495C157.222 197.872 157.092 197.322 156.831 196.846C156.57 196.359 156.208 195.985 155.743 195.724C155.29 195.463 154.774 195.333 154.196 195.333C153.618 195.333 153.097 195.463 152.632 195.724C152.179 195.985 151.816 196.359 151.544 196.846C151.283 197.322 151.153 197.872 151.153 198.495C151.153 199.118 151.283 199.674 151.544 200.161C151.816 200.637 152.179 201.011 152.632 201.283C153.097 201.544 153.618 201.674 154.196 201.674ZM165.939 193.905C167.084 193.905 167.99 194.239 168.659 194.908C169.339 195.565 169.679 196.534 169.679 197.815V203H168.047V198.002C168.047 197.129 167.837 196.472 167.418 196.03C166.999 195.588 166.398 195.367 165.616 195.367C164.732 195.367 164.035 195.628 163.525 196.149C163.015 196.659 162.76 197.396 162.76 198.359V203H161.128V193.99H162.692V195.35C163.021 194.885 163.463 194.528 164.018 194.279C164.585 194.03 165.225 193.905 165.939 193.905ZM177.765 202.473C177.527 202.677 177.233 202.836 176.881 202.949C176.53 203.051 176.167 203.102 175.793 203.102C174.887 203.102 174.184 202.858 173.685 202.371C173.187 201.884 172.937 201.187 172.937 200.28V195.333H171.407V193.99H172.937V192.018H174.569V193.99H177.153V195.333H174.569V200.212C174.569 200.699 174.688 201.073 174.926 201.334C175.176 201.595 175.527 201.725 175.98 201.725C176.479 201.725 176.904 201.583 177.255 201.3L177.765 202.473ZM179.738 193.99H181.37V203H179.738V193.99ZM180.554 192.256C180.237 192.256 179.971 192.154 179.755 191.95C179.551 191.746 179.449 191.497 179.449 191.202C179.449 190.907 179.551 190.658 179.755 190.454C179.971 190.239 180.237 190.131 180.554 190.131C180.872 190.131 181.132 190.233 181.336 190.437C181.552 190.63 181.659 190.873 181.659 191.168C181.659 191.474 181.552 191.735 181.336 191.95C181.132 192.154 180.872 192.256 180.554 192.256ZM193.105 193.99V201.776C193.105 203.351 192.714 204.513 191.932 205.261C191.15 206.02 189.983 206.4 188.43 206.4C187.58 206.4 186.77 206.281 185.999 206.043C185.229 205.816 184.605 205.488 184.129 205.057L184.911 203.799C185.331 204.162 185.846 204.445 186.458 204.649C187.082 204.864 187.722 204.972 188.379 204.972C189.433 204.972 190.21 204.723 190.708 204.224C191.218 203.725 191.473 202.966 191.473 201.946V201.232C191.088 201.697 190.612 202.048 190.045 202.286C189.49 202.513 188.884 202.626 188.226 202.626C187.365 202.626 186.583 202.445 185.88 202.082C185.189 201.708 184.645 201.192 184.248 200.535C183.852 199.866 183.653 199.107 183.653 198.257C183.653 197.407 183.852 196.653 184.248 195.996C184.645 195.327 185.189 194.812 185.88 194.449C186.583 194.086 187.365 193.905 188.226 193.905C188.906 193.905 189.535 194.03 190.113 194.279C190.703 194.528 191.184 194.897 191.558 195.384V193.99H193.105ZM188.413 201.198C189.003 201.198 189.53 201.073 189.994 200.824C190.47 200.575 190.839 200.229 191.099 199.787C191.371 199.334 191.507 198.824 191.507 198.257C191.507 197.384 191.218 196.682 190.64 196.149C190.062 195.605 189.32 195.333 188.413 195.333C187.495 195.333 186.747 195.605 186.169 196.149C185.591 196.682 185.302 197.384 185.302 198.257C185.302 198.824 185.433 199.334 185.693 199.787C185.965 200.229 186.334 200.575 186.798 200.824C187.274 201.073 187.813 201.198 188.413 201.198ZM200.083 203.102C199.187 203.102 198.383 202.904 197.669 202.507C196.955 202.11 196.394 201.566 195.986 200.875C195.589 200.172 195.391 199.379 195.391 198.495C195.391 197.611 195.589 196.823 195.986 196.132C196.394 195.429 196.955 194.885 197.669 194.5C198.383 194.103 199.187 193.905 200.083 193.905C200.978 193.905 201.777 194.103 202.48 194.5C203.194 194.885 203.749 195.429 204.146 196.132C204.554 196.823 204.758 197.611 204.758 198.495C204.758 199.379 204.554 200.172 204.146 200.875C203.749 201.566 203.194 202.11 202.48 202.507C201.777 202.904 200.978 203.102 200.083 203.102ZM200.083 201.674C200.661 201.674 201.176 201.544 201.63 201.283C202.094 201.011 202.457 200.637 202.718 200.161C202.978 199.674 203.109 199.118 203.109 198.495C203.109 197.872 202.978 197.322 202.718 196.846C202.457 196.359 202.094 195.985 201.63 195.724C201.176 195.463 200.661 195.333 200.083 195.333C199.505 195.333 198.983 195.463 198.519 195.724C198.065 195.985 197.703 196.359 197.431 196.846C197.17 197.322 197.04 197.872 197.04 198.495C197.04 199.118 197.17 199.674 197.431 200.161C197.703 200.637 198.065 201.011 198.519 201.283C198.983 201.544 199.505 201.674 200.083 201.674Z" fill="#093642"/>
<path d="M79.001 71.3665C79.0652 71.2727 79.1173 71.1714 79.1561 71.065C79.6623 68.6842 81.0863 66.5857 83.1322 65.2053C85.1782 63.8249 87.689 63.2687 90.143 63.6522C93.7624 64.1811 97.1917 65.5785 100.125 67.7196C100.318 67.915 100.575 68.0383 100.851 68.0683C101.128 68.0984 101.406 68.0332 101.638 67.884C101.938 67.7711 102.188 67.561 102.348 67.289C102.508 67.0169 102.568 66.6994 102.517 66.3894C102.154 63.0967 102.622 59.767 103.88 56.6925C104.076 56.2306 104.306 55.7832 104.568 55.354C104.646 55.1927 104.756 55.0488 104.893 54.9312C105.03 54.8137 105.19 54.725 105.363 54.6707C105.536 54.6163 105.719 54.5976 105.9 54.6156C106.082 54.6336 106.257 54.688 106.416 54.7753C106.731 54.954 106.963 55.2459 107.062 55.5892C107.161 55.9324 107.119 56.2999 106.946 56.6135C106.376 57.8738 105.915 59.1782 105.567 60.5133C105.229 62.224 105.19 63.9916 105.028 65.7128L108.798 64.879C109.531 63.2032 110.244 61.4651 111.052 59.7692C111.12 59.5954 111.225 59.438 111.361 59.3075C111.496 59.1769 111.659 59.0764 111.837 59.0125C112.016 58.9487 112.207 58.9231 112.396 58.9374C112.586 58.9518 112.77 59.0057 112.937 59.0957C113.648 59.4572 113.774 60.2182 113.396 61.0899C112.786 62.4917 112.244 63.9231 111.683 65.3449C111.584 65.586 111.561 65.8501 111.615 66.1043C111.669 66.3585 111.798 66.5915 111.987 66.7741C112.688 67.6448 113.23 68.6376 113.98 69.7992C114.739 69.2563 115.442 68.6416 116.078 67.9641C117.832 65.8145 118.996 63.2623 119.46 60.5492C120.115 56.2362 117.005 52.6198 112.742 52.838C111.996 52.9208 111.264 53.0888 110.558 53.3387C110.382 53.4219 110.19 53.468 109.995 53.4742C109.799 53.4804 109.605 53.4465 109.423 53.3746C109.242 53.3027 109.078 53.1944 108.943 53.0568C108.807 52.9192 108.702 52.7553 108.635 52.5756C108.366 51.8378 108.709 51.2328 109.599 50.8544C110.867 50.3363 112.239 50.1063 113.612 50.1818C114.984 50.2573 116.321 50.6363 117.522 51.2902C118.723 51.9441 119.757 52.856 120.547 53.9573C121.336 55.0586 121.86 56.3207 122.078 57.6485C122.418 60.0527 122.079 62.502 121.096 64.7304C120.953 65.0835 120.791 65.4292 120.575 65.9236C120.815 65.8424 121.051 65.7488 121.281 65.6432C123.467 64.4585 125.646 63.2611 127.834 62.0796C128.325 61.7563 128.882 61.5418 129.466 61.4511C130.051 61.3603 130.648 61.3955 131.217 61.5542C131.786 61.7129 132.313 61.9913 132.761 62.3698C133.209 62.7484 133.567 63.218 133.81 63.746C134.579 65.0782 135.337 66.4168 136.098 67.7512C137.559 70.3219 136.959 72.4099 134.347 73.8339C128.746 76.887 123.145 79.9394 117.544 82.9911C117.244 83.1363 116.986 83.3539 116.796 83.6236H148.998C149.299 83.6236 149.602 83.612 149.901 83.6351C150.325 83.6443 150.743 83.7355 151.131 83.9034C151.519 84.0714 151.87 84.3128 152.162 84.6138C152.454 84.9148 152.682 85.2694 152.834 85.6571C152.985 86.0449 153.057 86.4581 153.044 86.8731C153.064 96.3275 153.061 105.782 153.036 115.235C153.049 116.431 152.583 117.585 151.737 118.449C150.891 119.312 149.733 119.817 148.512 119.855C148.212 119.88 147.91 119.889 147.609 119.889C132.924 119.889 118.239 119.887 103.554 119.883C102.891 119.899 102.23 119.832 101.585 119.685C100.512 119.403 99.573 118.765 98.9267 117.881C98.2805 116.997 97.967 115.922 98.0396 114.837C98.031 108.122 98.031 101.406 98.0396 94.6917V93.5976C95.7927 94.8192 93.6955 95.9597 91.5972 97.098C90.7549 97.5544 89.9233 98.034 89.0605 98.4514C88.1592 98.9268 87.1037 99.0386 86.1194 98.7629C85.135 98.4872 84.2998 97.8458 83.7921 96.9757C82.7893 95.3347 81.8393 93.6598 80.9345 91.965C80.682 91.5174 80.524 91.0249 80.4698 90.5164C80.4155 90.008 80.4661 89.4941 80.6186 89.0052C80.7711 88.5163 81.0224 88.0623 81.3575 87.6702C81.6926 87.278 82.1048 86.9557 82.5696 86.7223C84.8154 85.4575 87.0936 84.2549 89.3556 83.0217C89.6055 82.8847 89.8447 82.7287 90.073 82.5896C88.5112 82.1564 86.9493 81.8518 85.479 81.2889C83.8536 80.7589 82.4055 79.8077 81.2885 78.5366C80.1716 77.2655 79.4276 75.7219 79.1356 74.07C79.1032 73.9871 79.0578 73.9095 79.001 73.8402V71.3665ZM117.722 86.2702C115.84 86.2702 114.067 86.2407 112.296 86.2881C111.763 86.3035 111.241 86.4376 110.769 86.6802C107.677 88.3255 104.616 90.0288 101.523 91.6751C101.267 91.7792 101.052 91.9613 100.909 92.1944C100.767 92.4275 100.705 92.6992 100.733 92.9695C100.759 100.153 100.749 107.337 100.75 114.52C100.75 116.522 101.47 117.233 103.523 117.235C107.954 117.24 112.385 117.24 116.817 117.235C117.104 117.235 117.391 117.206 117.722 117.19V115.596C117.722 111.916 117.716 108.236 117.722 104.556C117.722 103.348 118.692 102.647 119.661 103.115C119.94 103.264 120.165 103.494 120.305 103.773C120.445 104.052 120.493 104.366 120.442 104.673C120.431 108.53 120.431 112.387 120.442 116.243C120.442 116.553 120.469 116.862 120.483 117.157H130.642V86.325H120.435V87.3379C120.435 90.6939 120.435 94.0502 120.435 97.4068C120.454 97.6712 120.445 97.9367 120.41 98.1995C120.36 98.5055 120.201 98.7844 119.962 98.9874C119.723 99.1903 119.418 99.3041 119.101 99.3089C118.784 99.3137 118.476 99.2091 118.231 99.0135C117.985 98.8179 117.818 98.5439 117.758 98.2395C117.713 97.9484 117.701 97.6532 117.722 97.3594C117.722 93.7104 117.722 90.0614 117.722 86.267M133.449 117.189C133.787 117.207 134.024 117.232 134.262 117.233C138.752 117.233 143.24 117.233 147.727 117.233C149.613 117.233 150.336 116.504 150.336 114.648C150.34 105.584 150.34 96.5194 150.336 87.4549C150.336 86.3418 150.261 86.2723 149.084 86.2723C144.173 86.2723 139.261 86.2723 134.349 86.2723H133.445L133.449 117.189ZM98.0827 69.523C97.3093 69.0793 96.4778 68.5502 95.6053 68.1054C93.3998 66.8664 90.8957 66.2274 88.3528 66.2545C87.461 66.2528 86.5781 66.4277 85.7573 66.7689C84.9366 67.1101 84.1949 67.6104 83.5771 68.2397C82.9592 68.8689 82.4781 69.6141 82.1625 70.4303C81.847 71.2465 81.7037 72.1167 81.7413 72.9886C81.9308 75.8502 83.6801 77.6526 86.2556 78.7698C88.842 79.7824 91.648 80.1388 94.4129 79.8059C95.2391 79.6565 96.0461 79.4186 96.8192 79.0966C96.1934 77.7907 95.6936 76.6924 95.1378 75.6183C94.987 75.3264 94.7069 74.9659 94.4161 74.8995C92.8962 74.5517 91.3602 74.2618 89.821 74.0025C88.732 73.8192 88.132 73.2753 88.2451 72.4489C88.3528 71.6447 88.9926 71.2094 90.0827 71.3633C91.8622 71.6142 93.6287 71.9504 95.253 72.2265L98.0827 69.5188M102.185 88.2918L98.1581 81.2499C93.3734 83.8575 88.6673 86.4146 83.971 88.9885C83.7848 89.0577 83.6179 89.1688 83.4838 89.3129C83.3497 89.4569 83.2521 89.6298 83.1989 89.8176C83.1457 90.0054 83.1385 90.2028 83.1777 90.3938C83.217 90.5849 83.3016 90.7642 83.4248 90.9173C84.2413 92.3929 85.0815 93.8517 85.926 95.3104C86.513 96.3233 87.1033 96.4867 88.1632 95.9186C89.8781 95.0005 91.5832 94.0635 93.2926 93.1339L102.186 88.2907M119.172 79.0449C123.977 76.4299 128.681 73.8803 133.372 71.3074C133.557 71.2347 133.722 71.1208 133.854 70.9748C133.987 70.8287 134.082 70.6545 134.133 70.4661C134.184 70.2776 134.19 70.08 134.15 69.889C134.109 69.6981 134.024 69.519 133.9 69.366C133.1 67.9199 132.273 66.4864 131.445 65.054C130.813 63.9599 130.226 63.8061 129.076 64.4279C127.023 65.541 124.974 66.6565 122.927 67.7744L115.151 72.0063L119.17 79.0481M116.8 80.3393L112.778 73.3006L100.539 79.963L104.561 87.0038L116.8 80.3393ZM99.2127 77.6463L111.462 70.9744C110.991 70.1681 110.62 69.4598 110.179 68.7957C109.882 68.2874 109.393 67.9131 108.817 67.7528C108.241 67.5925 107.624 67.6589 107.097 67.9378C104.341 69.3874 101.606 70.8771 98.8927 72.4068C98.3708 72.6915 97.9824 73.1636 97.8097 73.7234C97.637 74.2832 97.6936 74.8868 97.9675 75.4065C98.324 76.1443 98.7635 76.8473 99.2127 77.6463Z" fill="#EA685C"/>
<path d="M171.635 71.1894C170.666 72.3425 169.679 73.4798 168.748 74.6613C168.506 74.9792 168.374 75.3643 168.371 75.7607C168.406 76.9654 168.54 78.1669 168.62 79.3706C168.734 81.0771 167.688 81.857 166.047 81.2573C164.92 80.8462 163.833 80.3329 162.702 79.9356C162.317 79.8114 161.902 79.8114 161.517 79.9356C160.44 80.3129 159.408 80.7967 158.345 81.2004C156.532 81.8971 155.414 81.075 155.585 79.1978C155.59 78.5503 155.649 77.9044 155.764 77.2668C155.96 76.5881 155.948 75.8678 155.727 75.1962C155.507 74.5246 155.089 73.9315 154.526 73.4914C154.043 73.0053 153.596 72.4865 153.188 71.9388C152.12 70.6181 152.541 69.3765 154.211 68.938C155.228 68.6714 156.246 68.3931 157.28 68.2108C157.617 68.1629 157.937 68.0328 158.21 67.8325C158.483 67.6321 158.7 67.3678 158.841 67.064C159.331 66.1555 159.892 65.2806 160.463 64.4153C161.417 62.9681 162.819 62.9766 163.773 64.4385C164.388 65.3797 164.911 66.381 165.563 67.2959C165.852 67.6791 166.253 67.9672 166.714 68.1222C167.72 68.4262 168.741 68.6778 169.775 68.8758C170.16 68.9385 170.526 69.0832 170.847 69.2995C171.169 69.5159 171.438 69.7987 171.635 70.128V71.1894ZM168.12 71.2168C166.769 71.2266 165.451 70.8042 164.367 70.0139C163.283 69.2236 162.492 68.1086 162.115 66.8384C161.755 68.1009 160.968 69.2067 159.884 69.9761C158.799 70.7454 157.481 71.133 156.142 71.0756C157.059 72.0806 157.828 73.205 158.429 74.4168C158.648 75.7415 158.676 77.0898 158.511 78.422C160.942 76.6566 163.351 76.841 165.845 78.3061C165.414 77.0411 165.401 75.6751 165.81 74.4027C166.218 73.1304 167.026 72.0165 168.119 71.22" fill="#EA685C"/>
<path d="M171.635 44.8581C171.159 45.2274 170.635 45.5345 170.078 45.772C163.292 47.6892 159.223 52.232 156.982 58.5708C156.904 58.7932 156.862 59.0272 156.778 59.2475C156.681 59.5773 156.456 59.857 156.151 60.0269C155.847 60.1969 155.486 60.2436 155.147 60.1571C154.971 60.1149 154.805 60.0378 154.661 59.9308C154.516 59.8237 154.396 59.6887 154.306 59.5343C154.217 59.3799 154.161 59.2093 154.142 59.0329C154.122 58.8565 154.14 58.6781 154.194 58.5086C154.8 56.2572 155.778 54.1175 157.088 52.174C159.892 47.7355 164.335 44.524 169.495 43.2065C169.884 43.0441 170.323 43.0332 170.721 43.1762C171.118 43.3192 171.445 43.6052 171.635 43.9759V44.8581Z" fill="#EA685C"/>
<path d="M157.05 44.2226C155.715 44.1978 154.417 43.7864 153.321 43.0403C152.224 42.2942 151.378 41.2469 150.89 40.0307C150.401 38.8144 150.292 37.4838 150.576 36.2068C150.86 34.9298 151.524 33.7637 152.484 32.8559C153.445 31.9481 154.659 31.3392 155.973 31.1061C157.287 30.8731 158.643 31.0263 159.868 31.5465C161.093 32.0666 162.133 32.9304 162.857 34.0287C163.581 35.127 163.956 36.4105 163.934 37.7172C163.919 38.5867 163.729 39.4447 163.374 40.2422C163.02 41.0397 162.509 41.761 161.869 42.3651C161.23 42.9692 160.476 43.4442 159.649 43.7629C158.822 44.0816 157.939 44.2378 157.05 44.2226ZM157.115 41.5728C157.914 41.5779 158.697 41.3515 159.364 40.9222C160.032 40.4929 160.555 39.8798 160.867 39.1602C161.18 38.4406 161.267 37.6466 161.119 36.8783C160.971 36.11 160.594 35.4018 160.036 34.8428C159.477 34.2838 158.762 33.899 157.98 33.7369C157.199 33.5749 156.386 33.6428 155.643 33.9321C154.901 34.2214 154.263 34.7192 153.809 35.3628C153.356 36.0063 153.107 36.7669 153.094 37.5486C153.085 38.072 153.182 38.5919 153.38 39.0784C153.577 39.5648 153.872 40.008 154.246 40.3823C154.62 40.7566 155.066 41.0545 155.558 41.2589C156.051 41.4632 156.58 41.5699 157.115 41.5728Z" fill="#EA685C"/>
</svg>
