<svg width="252" height="252" viewBox="0 0 252 252" fill="none" xmlns="http://www.w3.org/2000/svg">
<path d="M126 250C195.036 250 251 194.036 251 125C251 55.9644 195.036 0 126 0C56.9644 0 1 55.9644 1 125C1 194.036 56.9644 250 126 250Z" fill="white"/>
<path d="M126 250.549C195.036 250.549 251 194.584 251 125.549C251 56.5129 195.036 0.548523 126 0.548523C56.9644 0.548523 1 56.5129 1 125.549C1 194.584 56.9644 250.549 126 250.549Z" stroke="#EA685C"/>
<mask id="mask0_979_29852" style="mask-type:luminance" maskUnits="userSpaceOnUse" x="82" y="34" width="89" height="93">
<path d="M170.272 34.0873H82V126.888H170.272V34.0873Z" fill="white"/>
</mask>
<g mask="url(#mask0_979_29852)">
<path d="M110.61 114.984C108.866 115.938 107.12 116.887 105.381 117.848C103.912 118.66 103.25 118.5 102.417 117.086C95.7891 105.831 89.1634 94.576 82.5397 83.3208C81.6561 81.8183 81.8225 81.2081 83.3334 80.3519C88.9271 77.1864 94.5172 74.0016 100.127 70.8662C100.391 70.7549 100.612 70.5636 100.756 70.3205C100.901 70.0773 100.962 69.7952 100.931 69.5156C100.846 68.1978 100.869 66.8755 101.001 65.5614C101.532 61.6941 104.396 59.2148 108.796 58.777C108.796 58.3248 108.788 57.8557 108.796 57.3878C108.767 56.5293 108.992 55.6809 109.442 54.9434C109.892 54.2059 110.549 53.6103 111.334 53.2274C111.539 53.1449 111.711 52.9985 111.822 52.8111C111.933 52.6236 111.979 52.4055 111.951 52.1903C111.931 48.8419 111.928 45.4935 111.942 42.1451C111.894 41.0794 112.072 40.0154 112.466 39.0205C112.859 38.0256 113.459 37.1213 114.228 36.3646C114.996 35.608 115.917 35.0156 116.931 34.6246C117.946 34.2337 119.032 34.0528 120.121 34.0933C122.519 34.0845 124.916 34.0845 127.312 34.0933C128.556 34.0933 129.277 34.6709 129.278 35.6345C129.279 36.598 128.554 37.1768 127.315 37.1804C124.884 37.1877 122.454 37.1732 120.025 37.1804C119.374 37.1525 118.723 37.257 118.115 37.4874C117.507 37.7178 116.954 38.0691 116.492 38.519C116.029 38.969 115.667 39.508 115.428 40.1018C115.19 40.6956 115.079 41.3314 115.104 41.9691C115.088 45.4759 115.104 48.9826 115.104 52.5618H118.257V51.5392C118.257 48.4159 118.257 45.2926 118.257 42.1693C118.257 40.8331 118.816 40.2736 120.157 40.2712C126.232 40.2639 132.307 40.2639 138.381 40.2712C139.777 40.2712 140.316 40.8247 140.32 42.232C140.327 45.3231 140.327 48.4143 140.32 51.5054V52.5907H143.332C143.371 52.5389 143.443 52.4882 143.443 52.4388C143.453 48.8005 143.514 45.1623 143.443 41.5253C143.392 40.3699 142.891 39.2774 142.043 38.4717C141.196 37.6661 140.065 37.2084 138.883 37.1925C137.373 37.1539 135.862 37.1925 134.352 37.1804C133.171 37.172 132.475 36.6076 132.452 35.6706C132.429 34.7059 133.155 34.0813 134.38 34.103C136.311 34.0335 138.245 34.0924 140.168 34.279C141.974 34.5623 143.616 35.4683 144.798 36.8331C145.98 38.1979 146.624 39.9316 146.614 41.7207C146.656 45.1334 146.636 48.5473 146.614 51.96C146.571 52.2349 146.622 52.516 146.76 52.7592C146.898 53.0024 147.114 53.1938 147.375 53.3034C148.095 53.6731 148.697 54.2278 149.118 54.9078C149.54 55.5877 149.763 56.3672 149.765 57.1623C149.793 57.6724 149.765 58.1849 149.765 58.7457C150.322 58.8337 150.831 58.9 151.335 58.9965C153.023 59.3327 154.552 60.1997 155.689 61.4653C156.826 62.7309 157.509 64.3256 157.634 66.0064C157.646 66.1669 157.651 66.3279 157.646 66.4888C157.66 66.6939 157.632 66.8998 157.564 67.0941C157.495 67.2885 157.388 67.4675 157.247 67.6204C157.107 67.7734 156.937 67.8972 156.746 67.9846C156.556 68.072 156.35 68.1212 156.14 68.1293C155.93 68.1373 155.721 68.1041 155.524 68.0316C155.327 67.959 155.148 67.8486 154.995 67.7069C154.843 67.5652 154.722 67.3951 154.638 67.2065C154.554 67.018 154.509 66.815 154.507 66.6094C154.099 63.3619 152.428 61.9148 149.085 61.9136H138.69C139.162 62.209 139.388 62.3634 139.627 62.4984C148.829 67.7128 158.031 72.9263 167.233 78.139C168.917 79.0929 169.063 79.6392 168.078 81.3106C166.913 83.2883 165.749 85.266 164.584 87.2436C164.428 87.5101 164.297 87.7923 164.091 88.1891C165.591 88.1891 166.959 88.1818 168.326 88.1891C169.693 88.1963 170.26 88.7414 170.261 90.0546C170.268 96.011 170.268 101.968 170.261 107.925C170.261 109.29 169.693 109.821 168.258 109.823C165.106 109.829 161.953 109.829 158.801 109.823H157.722C157.27 114.141 154.935 116.697 150.575 117.529C152.054 120.951 151.519 123.904 148.217 125.999C147.114 126.657 145.827 126.959 144.538 126.86C143.25 126.762 142.026 126.268 141.041 125.45C138.777 123.628 138.275 121.154 139.498 117.55H123.654C123.36 117.569 123.064 117.56 122.771 117.523C122.395 117.469 122.053 117.283 121.806 117.001C121.56 116.718 121.427 116.358 121.431 115.987C121.436 115.616 121.578 115.259 121.831 114.982C122.084 114.705 122.431 114.528 122.808 114.483C123.135 114.449 123.465 114.441 123.794 114.461C132.397 114.461 141.001 114.461 149.604 114.461C150.238 114.485 150.871 114.382 151.463 114.159C152.056 113.935 152.596 113.597 153.05 113.163C153.505 112.729 153.865 112.21 154.108 111.636C154.351 111.062 154.472 110.445 154.464 109.824H153.417C149.213 109.824 145.01 109.824 140.807 109.824C139.268 109.824 138.746 109.308 138.745 107.79C138.745 101.93 138.745 96.0701 138.745 90.2102C138.745 88.7004 139.27 88.1915 140.822 88.1903C144.601 88.1863 148.377 88.1863 152.151 88.1903H153.081L153.124 88.0142C152.771 87.8092 152.413 87.609 152.063 87.398C151.845 87.3168 151.647 87.1897 151.484 87.0257C151.32 86.8617 151.196 86.6647 151.119 86.4485C151.042 86.2324 151.014 86.0023 151.038 85.7746C151.061 85.5468 151.135 85.3268 151.255 85.1301C151.375 84.9335 151.537 84.7648 151.73 84.636C151.924 84.5073 152.144 84.4215 152.375 84.3848C152.606 84.3481 152.842 84.3613 153.067 84.4236C153.292 84.4858 153.501 84.5955 153.678 84.745C154.309 85.0887 154.91 85.4866 155.556 85.799C155.8 85.8738 156.026 85.9957 156.22 86.1575C156.415 86.3193 156.574 86.5176 156.689 86.7409C156.804 86.9641 156.872 87.2076 156.889 87.457C156.906 87.7063 156.872 87.9565 156.788 88.1927C157.897 88.1927 158.904 88.2168 159.915 88.1746C160.05 88.1613 160.182 88.1201 160.3 88.0536C160.418 87.9871 160.52 87.8968 160.6 87.7887C162.049 85.3769 163.467 82.9566 164.957 80.4327L144.55 68.8584C143.723 69.799 143.391 71.644 141.485 70.6588C140.56 70.1764 140.633 69.4529 141.699 67.2569L134.936 63.4173L127.055 76.8029L133.827 80.6341C134.642 79.644 134.98 77.8918 136.842 78.8083C137.828 79.2907 137.765 80.0649 136.66 82.1981C137.085 82.455 137.53 82.7034 137.951 82.9844C138.131 83.0839 138.288 83.2175 138.415 83.3774C138.541 83.5373 138.633 83.7202 138.686 83.9154C138.739 84.1106 138.751 84.3142 138.723 84.5142C138.694 84.7143 138.625 84.9067 138.519 85.0802C138.421 85.258 138.286 85.4143 138.124 85.5395C137.961 85.6647 137.775 85.7563 137.575 85.8085C137.375 85.8607 137.167 85.8726 136.962 85.8434C136.758 85.8142 136.561 85.7445 136.385 85.6386C132.282 83.3433 128.192 81.0272 124.114 78.6901C123.219 78.1764 123.104 77.3395 123.689 76.3386C125.631 73.0184 127.581 69.7021 129.538 66.3899C130.385 64.9513 131.229 63.5114 132.17 61.91H109.482C105.908 61.91 104.066 63.7092 104.06 67.1846V68.6039C105.379 67.8623 106.561 67.2003 107.741 66.5358C108.395 66.1668 109.042 65.7869 109.699 65.4228C110.995 64.6992 111.71 64.8849 112.458 66.1463C114.923 70.322 117.383 74.5024 119.838 78.6877C120.28 79.4402 120.74 80.1831 121.163 80.9452C121.295 81.1213 121.388 81.3229 121.435 81.5367C121.483 81.7506 121.483 81.9718 121.437 82.1857C121.39 82.3997 121.298 82.6017 121.166 82.7782C121.034 82.9548 120.865 83.1019 120.671 83.21C120.476 83.3181 120.261 83.3847 120.038 83.4053C119.816 83.426 119.591 83.4002 119.379 83.3298C119.168 83.2594 118.974 83.1459 118.81 82.9967C118.647 82.8476 118.517 82.6663 118.43 82.4646C115.893 78.1813 113.364 73.8931 110.844 69.6C110.666 69.2985 110.474 69.0055 110.27 68.6751L85.7316 82.572L104.645 114.694L129.185 100.803C128.978 100.422 128.816 100.111 128.644 99.8104C126.465 96.105 124.283 92.4001 122.1 88.6956C121.904 88.3998 121.739 88.0855 121.607 87.7574C121.483 87.4169 121.486 87.0442 121.617 86.7061C121.748 86.368 121.998 86.0865 122.322 85.9123C122.645 85.738 123.022 85.6824 123.384 85.7553C123.746 85.8283 124.069 86.025 124.297 86.3103C124.458 86.5136 124.599 86.7312 124.719 86.9603C127.295 91.3329 129.869 95.7067 132.441 100.082C133.276 101.502 133.099 102.163 131.639 102.992C124.878 106.818 118.117 110.644 111.354 114.469C111.086 114.638 110.827 114.821 110.579 115.017L110.61 114.984ZM141.941 106.664H167.034V97.5168H141.939L141.941 106.664ZM121.408 43.4126C121.408 46.4997 121.396 49.5205 121.434 52.5401C121.434 52.7583 121.763 53.0393 122.006 53.1756C122.782 53.5748 123.43 54.1758 123.88 54.9123C124.33 55.6488 124.564 56.4924 124.555 57.3504C124.569 57.8195 124.555 58.2898 124.555 58.7457H133.974C133.994 58.626 134.006 58.5051 134.009 58.3839C133.859 56.0372 134.555 54.1319 136.858 53.0333C136.944 52.9732 137.015 52.8949 137.066 52.8043C137.117 52.7137 137.146 52.6131 137.152 52.5099C137.17 49.4951 137.164 46.4804 137.164 43.4089L121.408 43.4126ZM141.894 94.3042H167.034V91.3256H141.953C141.928 91.46 141.911 91.5957 141.901 91.732C141.901 92.5653 141.901 93.3986 141.901 94.303M145.02 123.727C145.645 123.734 146.258 123.56 146.782 123.225C147.305 122.891 147.715 122.412 147.959 121.849C148.204 121.286 148.272 120.665 148.155 120.064C148.038 119.464 147.742 118.91 147.303 118.475C146.864 118.039 146.303 117.741 145.691 117.618C145.079 117.496 144.443 117.554 143.864 117.785C143.286 118.016 142.79 118.411 142.441 118.918C142.092 119.425 141.905 120.022 141.904 120.634C141.907 121.446 142.235 122.224 142.818 122.802C143.4 123.38 144.191 123.712 145.02 123.727ZM111.947 58.7577H121.399C121.399 58.25 121.418 57.8026 121.399 57.3589C121.413 57.1408 121.38 56.9223 121.3 56.7181C121.221 56.5139 121.097 56.3288 120.938 56.1753C120.78 56.0217 120.589 55.9034 120.379 55.8282C120.17 55.753 119.946 55.7227 119.723 55.7393C117.693 55.7144 115.663 55.7144 113.633 55.7393C113.41 55.7218 113.186 55.7513 112.976 55.8258C112.766 55.9004 112.575 56.0182 112.416 56.1713C112.257 56.3245 112.133 56.5093 112.053 56.7134C111.973 56.9175 111.939 57.1359 111.953 57.354C111.931 57.799 111.953 58.2452 111.953 58.7589M146.62 58.7734C146.62 58.2259 146.658 57.7182 146.611 57.2178C146.614 57.0229 146.577 56.8296 146.501 56.6493C146.425 56.469 146.314 56.3054 146.172 56.1685C146.03 56.0316 145.862 55.924 145.677 55.8524C145.491 55.7807 145.293 55.7463 145.094 55.7514C142.967 55.7096 140.839 55.7096 138.711 55.7514C138.511 55.7455 138.313 55.7791 138.128 55.85C137.942 55.9209 137.773 56.0278 137.631 56.1642C137.489 56.3006 137.376 56.4636 137.3 56.6437C137.224 56.8237 137.185 57.0169 137.187 57.2117C137.14 57.7134 137.179 58.2223 137.179 58.7794L146.62 58.7734Z" fill="#EA685C"/>
<path d="M116.115 87.6766C116.114 89.0917 115.828 90.4927 115.273 91.7997C114.719 93.1068 113.907 94.2941 112.883 95.294C111.86 96.2939 110.645 97.0868 109.309 97.6274C107.972 98.168 106.54 98.4457 105.094 98.4447C103.648 98.4437 102.216 98.1639 100.88 97.6214C99.5446 97.0789 98.3312 96.2843 97.3093 95.283C96.2875 94.2816 95.4772 93.0931 94.9247 91.7853C94.3722 90.4775 94.0884 89.076 94.0895 87.6609C94.0905 86.2458 94.3764 84.8447 94.9308 83.5377C95.4852 82.2307 96.2973 81.0433 97.3207 80.0434C98.344 79.0435 99.5586 78.2506 100.895 77.71C102.232 77.1694 103.664 76.8917 105.11 76.8927C106.556 76.8938 107.988 77.1735 109.324 77.716C110.659 78.2585 111.873 79.0531 112.895 80.0545C113.917 81.0559 114.727 82.2444 115.279 83.5522C115.832 84.86 116.116 86.2614 116.115 87.6766ZM108.99 94.2234C108.906 92.124 108.288 90.0784 107.191 88.2723L104.577 89.7471C105.641 91.5775 107.159 93.1168 108.99 94.2234ZM101.646 81.0971L101.277 81.3383C101.338 83.365 101.945 85.3398 103.038 87.0627L105.864 85.4384L101.648 81.0971M110.034 86.6732L111.918 91.4872C112.463 90.5458 112.802 89.5034 112.911 88.4267C113.021 87.35 112.9 86.2628 112.556 85.2346L110.034 86.6732ZM108.459 83.9768L110.983 82.5297C110.249 81.7295 109.352 81.0882 108.35 80.6469C107.348 80.2056 106.263 79.9741 105.164 79.9672L108.458 83.972M98.2784 83.8647C97.7383 84.8029 97.4035 85.8408 97.2953 86.9125C97.1871 87.9841 97.3078 89.0661 97.6498 90.0896L100.169 88.6557L98.2808 83.8707M105.05 95.3377L101.746 91.3473L99.2322 92.7944C99.9692 93.5893 100.867 94.2257 101.868 94.6633C102.87 95.1009 103.953 95.3313 105.05 95.3377Z" fill="#EA685C"/>
<path d="M110.579 115.017C111.963 114.531 113.449 114.391 114.902 114.612C116.307 114.928 117.56 115.703 118.456 116.809C119.352 117.914 119.837 119.285 119.832 120.695C119.821 121.745 119.537 122.774 119.007 123.686C118.477 124.598 117.718 125.362 116.802 125.907C115.886 126.452 114.843 126.759 113.771 126.8C112.7 126.84 111.636 126.613 110.679 126.139C109.722 125.665 108.905 124.96 108.305 124.091C107.704 123.222 107.34 122.218 107.246 121.172C107.153 120.127 107.333 119.076 107.771 118.118C108.208 117.16 108.888 116.327 109.746 115.698C110.047 115.476 110.325 115.224 110.609 114.986L110.579 115.017ZM116.672 120.685C116.679 120.075 116.501 119.476 116.161 118.966C115.82 118.455 115.332 118.054 114.759 117.815C114.186 117.576 113.553 117.509 112.94 117.622C112.328 117.735 111.763 118.024 111.319 118.452C110.874 118.879 110.569 119.426 110.443 120.023C110.316 120.62 110.374 121.241 110.608 121.806C110.842 122.371 111.243 122.856 111.759 123.198C112.274 123.54 112.883 123.725 113.506 123.728C114.336 123.729 115.134 123.41 115.726 122.841C116.318 122.271 116.658 121.497 116.672 120.685Z" fill="#EA685C"/>
<path d="M122.173 98.8674C121.962 99.252 121.675 99.5918 121.329 99.8671C117.298 102.198 113.248 104.495 109.179 106.758C109.001 106.876 108.8 106.957 108.588 106.994C108.376 107.032 108.159 107.025 107.95 106.975C107.741 106.925 107.545 106.833 107.374 106.704C107.204 106.576 107.063 106.414 106.961 106.228C106.854 106.046 106.788 105.845 106.764 105.636C106.74 105.428 106.761 105.217 106.824 105.016C106.887 104.816 106.991 104.63 107.13 104.471C107.269 104.311 107.44 104.181 107.632 104.089C111.649 101.799 115.675 99.5226 119.71 97.2611C119.974 97.097 120.282 97.0115 120.596 97.015C120.909 97.0185 121.214 97.1108 121.475 97.2808C121.736 97.4508 121.941 97.6912 122.065 97.9727C122.189 98.2543 122.226 98.5651 122.173 98.8674Z" fill="#EA685C"/>
<path d="M145.939 73.4589C146.392 73.6083 146.836 73.7839 147.268 73.9847C151.159 76.1698 155.044 78.3633 158.924 80.5653C160.027 81.1912 160.34 82.0124 159.854 82.8565C159.367 83.7007 158.446 83.8611 157.381 83.2605C153.467 81.0525 149.561 78.8288 145.645 76.628C144.873 76.1927 144.393 75.5584 144.733 74.736C144.943 74.2271 145.537 73.8701 145.939 73.4637" fill="#EA685C"/>
<path d="M142.835 78.8541C143.181 78.9385 143.52 79.049 143.848 79.1846C145.217 79.9431 146.592 80.6944 147.93 81.5011C148.288 81.7034 148.55 82.0366 148.657 82.4275C148.764 82.8185 148.708 83.235 148.501 83.5855C148.294 83.9361 147.954 84.1919 147.554 84.2967C147.155 84.4015 146.729 84.3467 146.371 84.1445C144.989 83.4101 143.631 82.631 142.283 81.8388C142.116 81.765 141.966 81.6591 141.842 81.5274C141.717 81.3957 141.621 81.2408 141.559 81.0721C141.497 80.9033 141.471 80.7241 141.481 80.5451C141.491 80.366 141.538 80.1908 141.619 80.0299C141.881 79.5282 142.472 79.1858 142.834 78.8565" fill="#EA685C"/>
<path d="M140.744 74.7516C140.747 74.9522 140.707 75.1512 140.629 75.3366C140.551 75.522 140.435 75.6899 140.288 75.8302C140.142 75.9705 139.968 76.0803 139.777 76.153C139.586 76.2257 139.381 76.2597 139.177 76.253C138.971 76.253 138.768 76.2133 138.578 76.1362C138.389 76.0591 138.216 75.9461 138.072 75.8036C137.927 75.6612 137.812 75.4922 137.734 75.3063C137.656 75.1204 137.617 74.9212 137.618 74.7203C137.632 74.3148 137.806 73.9305 138.102 73.6467C138.399 73.363 138.795 73.2016 139.21 73.196C139.415 73.1985 139.618 73.2408 139.807 73.3205C139.995 73.4001 140.166 73.5155 140.309 73.6601C140.451 73.8046 140.564 73.9753 140.639 74.1625C140.713 74.3497 140.75 74.5495 140.745 74.7504" fill="#EA685C"/>
<path d="M148.18 103.638C147.655 103.638 147.128 103.666 146.605 103.632C146.399 103.63 146.195 103.589 146.006 103.509C145.816 103.43 145.644 103.315 145.5 103.17C145.356 103.026 145.243 102.855 145.167 102.667C145.091 102.48 145.054 102.279 145.057 102.077C145.054 101.686 145.209 101.308 145.488 101.027C145.766 100.745 146.147 100.582 146.547 100.573C147.656 100.524 148.78 100.522 149.894 100.573C150.295 100.591 150.671 100.764 150.943 101.052C151.214 101.34 151.359 101.722 151.345 102.114C151.342 102.505 151.186 102.879 150.908 103.16C150.63 103.442 150.253 103.607 149.854 103.623C149.299 103.666 148.739 103.632 148.18 103.632" fill="#EA685C"/>
</g>
<path d="M69.6337 149.1L64.4827 161H61.7627L56.6287 149.1H59.6037L63.2247 157.6L66.8967 149.1H69.6337ZM70.6063 151.854H73.2583V161H70.6063V151.854ZM71.9323 150.579C71.445 150.579 71.0483 150.437 70.7423 150.154C70.4363 149.871 70.2833 149.519 70.2833 149.1C70.2833 148.681 70.4363 148.329 70.7423 148.046C71.0483 147.763 71.445 147.621 71.9323 147.621C72.4197 147.621 72.8163 147.757 73.1223 148.029C73.4283 148.301 73.5813 148.641 73.5813 149.049C73.5813 149.491 73.4283 149.859 73.1223 150.154C72.8163 150.437 72.4197 150.579 71.9323 150.579ZM79.4086 151.718C80.8253 151.718 81.9133 152.058 82.6726 152.738C83.4319 153.407 83.8116 154.421 83.8116 155.781V161H81.3296V159.861C80.8309 160.711 79.9016 161.136 78.5416 161.136C77.8389 161.136 77.2269 161.017 76.7056 160.779C76.1956 160.541 75.8046 160.212 75.5326 159.793C75.2606 159.374 75.1246 158.898 75.1246 158.365C75.1246 157.515 75.4419 156.846 76.0766 156.359C76.7226 155.872 77.7143 155.628 79.0516 155.628H81.1596C81.1596 155.05 80.9839 154.608 80.6326 154.302C80.2813 153.985 79.7543 153.826 79.0516 153.826C78.5643 153.826 78.0826 153.905 77.6066 154.064C77.1419 154.211 76.7453 154.415 76.4166 154.676L75.4646 152.823C75.9633 152.472 76.5583 152.2 77.2496 152.007C77.9523 151.814 78.6719 151.718 79.4086 151.718ZM79.2046 159.351C79.6579 159.351 80.0603 159.249 80.4116 159.045C80.7629 158.83 81.0123 158.518 81.1596 158.11V157.175H79.3406C78.2526 157.175 77.7086 157.532 77.7086 158.246C77.7086 158.586 77.8389 158.858 78.0996 159.062C78.3716 159.255 78.7399 159.351 79.2046 159.351ZM85.5318 164.434C84.6025 164.434 83.8941 164.264 83.4068 163.924L84.1208 162.003C84.4268 162.218 84.8008 162.326 85.2428 162.326C85.5828 162.326 85.8491 162.213 86.0418 161.986C86.2345 161.771 86.3308 161.442 86.3308 161V151.854H88.9828V160.983C88.9828 162.048 88.6768 162.887 88.0648 163.499C87.4641 164.122 86.6198 164.434 85.5318 164.434ZM87.6568 150.579C87.1695 150.579 86.7728 150.437 86.4668 150.154C86.1608 149.871 86.0078 149.519 86.0078 149.1C86.0078 148.681 86.1608 148.329 86.4668 148.046C86.7728 147.763 87.1695 147.621 87.6568 147.621C88.1441 147.621 88.5408 147.757 88.8468 148.029C89.1528 148.301 89.3058 148.641 89.3058 149.049C89.3058 149.491 89.1528 149.859 88.8468 150.154C88.5408 150.437 88.1441 150.579 87.6568 150.579ZM95.1137 151.718C96.5304 151.718 97.6184 152.058 98.3777 152.738C99.137 153.407 99.5167 154.421 99.5167 155.781V161H97.0347V159.861C96.536 160.711 95.6067 161.136 94.2467 161.136C93.544 161.136 92.932 161.017 92.4107 160.779C91.9007 160.541 91.5097 160.212 91.2377 159.793C90.9657 159.374 90.8297 158.898 90.8297 158.365C90.8297 157.515 91.147 156.846 91.7817 156.359C92.4277 155.872 93.4194 155.628 94.7567 155.628H96.8647C96.8647 155.05 96.689 154.608 96.3377 154.302C95.9864 153.985 95.4594 153.826 94.7567 153.826C94.2694 153.826 93.7877 153.905 93.3117 154.064C92.847 154.211 92.4504 154.415 92.1217 154.676L91.1697 152.823C91.6684 152.472 92.2634 152.2 92.9547 152.007C93.6574 151.814 94.377 151.718 95.1137 151.718ZM94.9097 159.351C95.363 159.351 95.7654 159.249 96.1167 159.045C96.468 158.83 96.7174 158.518 96.8647 158.11V157.175H95.0457C93.9577 157.175 93.4137 157.532 93.4137 158.246C93.4137 158.586 93.544 158.858 93.8047 159.062C94.0767 159.255 94.445 159.351 94.9097 159.351ZM114.339 152.058L109.868 162.071C109.505 162.91 109.086 163.505 108.61 163.856C108.134 164.207 107.562 164.383 106.893 164.383C106.462 164.383 106.06 164.315 105.686 164.179C105.312 164.043 104.989 163.839 104.717 163.567L105.278 162.666C105.731 163.119 106.275 163.346 106.91 163.346C107.318 163.346 107.664 163.233 107.947 163.006C108.242 162.779 108.514 162.394 108.763 161.85L109.154 160.983L105.159 152.058H106.417L109.783 159.657L113.149 152.058H114.339ZM123.718 151.718C125.135 151.718 126.223 152.058 126.982 152.738C127.742 153.407 128.121 154.421 128.121 155.781V161H125.639V159.861C125.141 160.711 124.211 161.136 122.851 161.136C122.149 161.136 121.537 161.017 121.015 160.779C120.505 160.541 120.114 160.212 119.842 159.793C119.57 159.374 119.434 158.898 119.434 158.365C119.434 157.515 119.752 156.846 120.386 156.359C121.032 155.872 122.024 155.628 123.361 155.628H125.469C125.469 155.05 125.294 154.608 124.942 154.302C124.591 153.985 124.064 153.826 123.361 153.826C122.874 153.826 122.392 153.905 121.916 154.064C121.452 154.211 121.055 154.415 120.726 154.676L119.774 152.823C120.273 152.472 120.868 152.2 121.559 152.007C122.262 151.814 122.982 151.718 123.718 151.718ZM123.514 159.351C123.968 159.351 124.37 159.249 124.721 159.045C125.073 158.83 125.322 158.518 125.469 158.11V157.175H123.65C122.562 157.175 122.018 157.532 122.018 158.246C122.018 158.586 122.149 158.858 122.409 159.062C122.681 159.255 123.05 159.351 123.514 159.351ZM135.041 161.136C134.066 161.136 133.188 160.938 132.406 160.541C131.635 160.133 131.029 159.572 130.587 158.858C130.156 158.144 129.941 157.334 129.941 156.427C129.941 155.52 130.156 154.71 130.587 153.996C131.029 153.282 131.635 152.727 132.406 152.33C133.188 151.922 134.066 151.718 135.041 151.718C136.004 151.718 136.843 151.922 137.557 152.33C138.282 152.727 138.809 153.299 139.138 154.047L137.081 155.152C136.605 154.313 135.919 153.894 135.024 153.894C134.333 153.894 133.76 154.121 133.307 154.574C132.854 155.027 132.627 155.645 132.627 156.427C132.627 157.209 132.854 157.827 133.307 158.28C133.76 158.733 134.333 158.96 135.024 158.96C135.931 158.96 136.616 158.541 137.081 157.702L139.138 158.824C138.809 159.549 138.282 160.116 137.557 160.524C136.843 160.932 136.004 161.136 135.041 161.136ZM149.879 151.854V161H147.363V159.912C147.012 160.309 146.592 160.615 146.105 160.83C145.618 161.034 145.091 161.136 144.524 161.136C143.323 161.136 142.371 160.79 141.668 160.099C140.965 159.408 140.614 158.382 140.614 157.022V151.854H143.266V156.631C143.266 158.104 143.884 158.841 145.119 158.841C145.754 158.841 146.264 158.637 146.649 158.229C147.034 157.81 147.227 157.192 147.227 156.376V151.854H149.879ZM164.049 151.718C165.193 151.718 166.1 152.058 166.769 152.738C167.449 153.407 167.789 154.415 167.789 155.764V161H165.137V156.172C165.137 155.447 164.984 154.908 164.678 154.557C164.383 154.194 163.958 154.013 163.403 154.013C162.779 154.013 162.286 154.217 161.924 154.625C161.561 155.022 161.38 155.617 161.38 156.41V161H158.728V156.172C158.728 154.733 158.15 154.013 156.994 154.013C156.382 154.013 155.894 154.217 155.532 154.625C155.169 155.022 154.988 155.617 154.988 156.41V161H152.336V151.854H154.869V152.908C155.209 152.523 155.622 152.228 156.11 152.024C156.608 151.82 157.152 151.718 157.742 151.718C158.388 151.718 158.971 151.848 159.493 152.109C160.014 152.358 160.433 152.727 160.751 153.214C161.125 152.738 161.595 152.37 162.162 152.109C162.74 151.848 163.369 151.718 164.049 151.718ZM179.38 151.854V161H176.864V159.912C176.513 160.309 176.093 160.615 175.606 160.83C175.119 161.034 174.592 161.136 174.025 161.136C172.824 161.136 171.872 160.79 171.169 160.099C170.466 159.408 170.115 158.382 170.115 157.022V151.854H172.767V156.631C172.767 158.104 173.385 158.841 174.62 158.841C175.255 158.841 175.765 158.637 176.15 158.229C176.535 157.81 176.728 157.192 176.728 156.376V151.854H179.38ZM181.837 148.386H184.489V161H181.837V148.386ZM190.639 151.718C192.056 151.718 193.144 152.058 193.903 152.738C194.662 153.407 195.042 154.421 195.042 155.781V161H192.56V159.861C192.061 160.711 191.132 161.136 189.772 161.136C189.069 161.136 188.457 161.017 187.936 160.779C187.426 160.541 187.035 160.212 186.763 159.793C186.491 159.374 186.355 158.898 186.355 158.365C186.355 157.515 186.672 156.846 187.307 156.359C187.953 155.872 188.945 155.628 190.282 155.628H192.39C192.39 155.05 192.214 154.608 191.863 154.302C191.512 153.985 190.985 153.826 190.282 153.826C189.795 153.826 189.313 153.905 188.837 154.064C188.372 154.211 187.976 154.415 187.647 154.676L186.695 152.823C187.194 152.472 187.789 152.2 188.48 152.007C189.183 151.814 189.902 151.718 190.639 151.718ZM190.435 159.351C190.888 159.351 191.291 159.249 191.642 159.045C191.993 158.83 192.243 158.518 192.39 158.11V157.175H190.571C189.483 157.175 188.939 157.532 188.939 158.246C188.939 158.586 189.069 158.858 189.33 159.062C189.602 159.255 189.97 159.351 190.435 159.351ZM61.9592 177.903H54.4792C54.5472 178.832 54.9042 179.586 55.5502 180.164C56.1962 180.731 57.0122 181.014 57.9982 181.014C58.5536 181.014 59.0636 180.918 59.5282 180.725C59.9929 180.521 60.3952 180.226 60.7352 179.841L61.4152 180.623C61.0186 181.099 60.5199 181.462 59.9192 181.711C59.3299 181.96 58.6782 182.085 57.9642 182.085C57.0462 182.085 56.2302 181.892 55.5162 181.507C54.8136 181.11 54.2639 180.566 53.8672 179.875C53.4706 179.184 53.2722 178.402 53.2722 177.529C53.2722 176.656 53.4592 175.874 53.8332 175.183C54.2186 174.492 54.7399 173.953 55.3972 173.568C56.0659 173.183 56.8139 172.99 57.6412 172.99C58.4686 172.99 59.2109 173.183 59.8682 173.568C60.5256 173.953 61.0412 174.492 61.4152 175.183C61.7892 175.863 61.9762 176.645 61.9762 177.529L61.9592 177.903ZM57.6412 174.027C56.7799 174.027 56.0546 174.305 55.4652 174.86C54.8872 175.404 54.5586 176.118 54.4792 177.002H60.8202C60.7409 176.118 60.4066 175.404 59.8172 174.86C59.2392 174.305 58.5139 174.027 57.6412 174.027ZM64.433 169.386H65.64V182H64.433V169.386ZM77.9866 174.945C79.0293 175.115 79.8283 175.506 80.3836 176.118C80.939 176.719 81.2166 177.467 81.2166 178.362C81.2166 179.053 81.0353 179.694 80.6726 180.283C80.31 180.861 79.7546 181.326 79.0066 181.677C78.27 182.028 77.3633 182.204 76.2866 182.204C75.448 182.204 74.6206 182.096 73.8046 181.881C73 181.654 72.3143 181.337 71.7476 180.929L72.8186 178.821C73.272 179.161 73.7933 179.427 74.3826 179.62C74.9833 179.801 75.5953 179.892 76.2186 179.892C76.91 179.892 77.454 179.762 77.8506 179.501C78.2473 179.229 78.4456 178.849 78.4456 178.362C78.4456 177.387 77.7033 176.9 76.2186 176.9H74.9606V175.081L77.4086 172.31H72.3426V170.1H80.6726V171.885L77.9866 174.945ZM85.0762 176.526C84.2035 176.526 83.4895 176.231 82.9342 175.642C82.3902 175.041 82.1182 174.242 82.1182 173.245C82.1182 172.248 82.3902 171.454 82.9342 170.865C83.4895 170.264 84.2035 169.964 85.0762 169.964C85.9488 169.964 86.6572 170.264 87.2012 170.865C87.7452 171.454 88.0172 172.248 88.0172 173.245C88.0172 174.242 87.7452 175.041 87.2012 175.642C86.6572 176.231 85.9488 176.526 85.0762 176.526ZM92.1652 170.1H94.1882L86.0622 182H84.0392L92.1652 170.1ZM85.0762 175.132C85.4615 175.132 85.7618 174.973 85.9772 174.656C86.2038 174.339 86.3172 173.868 86.3172 173.245C86.3172 172.622 86.2038 172.151 85.9772 171.834C85.7618 171.517 85.4615 171.358 85.0762 171.358C84.7022 171.358 84.4018 171.522 84.1752 171.851C83.9485 172.168 83.8352 172.633 83.8352 173.245C83.8352 173.857 83.9485 174.327 84.1752 174.656C84.4018 174.973 84.7022 175.132 85.0762 175.132ZM93.1512 182.136C92.5845 182.136 92.0745 182.006 91.6212 181.745C91.1792 181.473 90.8335 181.088 90.5842 180.589C90.3348 180.09 90.2102 179.512 90.2102 178.855C90.2102 178.198 90.3348 177.62 90.5842 177.121C90.8335 176.622 91.1792 176.243 91.6212 175.982C92.0745 175.71 92.5845 175.574 93.1512 175.574C94.0238 175.574 94.7322 175.874 95.2762 176.475C95.8315 177.064 96.1092 177.858 96.1092 178.855C96.1092 179.852 95.8315 180.651 95.2762 181.252C94.7322 181.841 94.0238 182.136 93.1512 182.136ZM93.1512 180.742C93.5365 180.742 93.8368 180.583 94.0522 180.266C94.2788 179.937 94.3922 179.467 94.3922 178.855C94.3922 178.243 94.2788 177.778 94.0522 177.461C93.8368 177.132 93.5365 176.968 93.1512 176.968C92.7772 176.968 92.4768 177.127 92.2502 177.444C92.0235 177.761 91.9102 178.232 91.9102 178.855C91.9102 179.478 92.0235 179.949 92.2502 180.266C92.4768 180.583 92.7772 180.742 93.1512 180.742ZM110.86 169.386V182H109.704V180.232C109.341 180.833 108.859 181.292 108.259 181.609C107.669 181.926 107.001 182.085 106.253 182.085C105.414 182.085 104.655 181.892 103.975 181.507C103.295 181.122 102.762 180.583 102.377 179.892C101.991 179.201 101.799 178.413 101.799 177.529C101.799 176.645 101.991 175.857 102.377 175.166C102.762 174.475 103.295 173.942 103.975 173.568C104.655 173.183 105.414 172.99 106.253 172.99C106.978 172.99 107.63 173.143 108.208 173.449C108.797 173.744 109.279 174.18 109.653 174.758V169.386H110.86ZM106.355 181.014C106.978 181.014 107.539 180.872 108.038 180.589C108.548 180.294 108.944 179.881 109.228 179.348C109.522 178.815 109.67 178.209 109.67 177.529C109.67 176.849 109.522 176.243 109.228 175.71C108.944 175.177 108.548 174.769 108.038 174.486C107.539 174.191 106.978 174.044 106.355 174.044C105.72 174.044 105.148 174.191 104.638 174.486C104.139 174.769 103.742 175.177 103.448 175.71C103.164 176.243 103.023 176.849 103.023 177.529C103.023 178.209 103.164 178.815 103.448 179.348C103.742 179.881 104.139 180.294 104.638 180.589C105.148 180.872 105.72 181.014 106.355 181.014ZM122.007 177.903H114.527C114.595 178.832 114.952 179.586 115.598 180.164C116.244 180.731 117.06 181.014 118.046 181.014C118.601 181.014 119.111 180.918 119.576 180.725C120.041 180.521 120.443 180.226 120.783 179.841L121.463 180.623C121.066 181.099 120.568 181.462 119.967 181.711C119.378 181.96 118.726 182.085 118.012 182.085C117.094 182.085 116.278 181.892 115.564 181.507C114.861 181.11 114.312 180.566 113.915 179.875C113.518 179.184 113.32 178.402 113.32 177.529C113.32 176.656 113.507 175.874 113.881 175.183C114.266 174.492 114.788 173.953 115.445 173.568C116.114 173.183 116.862 172.99 117.689 172.99C118.516 172.99 119.259 173.183 119.916 173.568C120.573 173.953 121.089 174.492 121.463 175.183C121.837 175.863 122.024 176.645 122.024 177.529L122.007 177.903ZM117.689 174.027C116.828 174.027 116.102 174.305 115.513 174.86C114.935 175.404 114.606 176.118 114.527 177.002H120.868C120.789 176.118 120.454 175.404 119.865 174.86C119.287 174.305 118.562 174.027 117.689 174.027ZM124.481 169.386H125.688V182H124.481V169.386ZM133.496 173.058H134.703V182H133.496V173.058ZM134.108 171.103C133.858 171.103 133.649 171.018 133.479 170.848C133.309 170.678 133.224 170.474 133.224 170.236C133.224 170.009 133.309 169.811 133.479 169.641C133.649 169.471 133.858 169.386 134.108 169.386C134.357 169.386 134.567 169.471 134.737 169.641C134.907 169.8 134.992 169.992 134.992 170.219C134.992 170.468 134.907 170.678 134.737 170.848C134.567 171.018 134.357 171.103 134.108 171.103ZM149.213 172.99C150.335 172.99 151.213 173.313 151.848 173.959C152.494 174.605 152.817 175.557 152.817 176.815V182H151.61V176.934C151.61 176.005 151.383 175.296 150.93 174.809C150.488 174.322 149.859 174.078 149.043 174.078C148.114 174.078 147.383 174.367 146.85 174.945C146.317 175.512 146.051 176.299 146.051 177.308V182H144.844V176.934C144.844 176.005 144.617 175.296 144.164 174.809C143.722 174.322 143.087 174.078 142.26 174.078C141.342 174.078 140.611 174.367 140.067 174.945C139.534 175.512 139.268 176.299 139.268 177.308V182H138.061V173.058H139.217V174.69C139.534 174.146 139.976 173.727 140.543 173.432C141.11 173.137 141.761 172.99 142.498 172.99C143.246 172.99 143.892 173.149 144.436 173.466C144.991 173.783 145.405 174.254 145.677 174.877C146.006 174.288 146.476 173.829 147.088 173.5C147.711 173.16 148.42 172.99 149.213 172.99ZM160.697 172.99C161.536 172.99 162.295 173.183 162.975 173.568C163.655 173.942 164.188 174.475 164.573 175.166C164.959 175.857 165.151 176.645 165.151 177.529C165.151 178.424 164.959 179.218 164.573 179.909C164.188 180.6 163.655 181.139 162.975 181.524C162.307 181.898 161.547 182.085 160.697 182.085C159.972 182.085 159.315 181.938 158.725 181.643C158.147 181.337 157.671 180.895 157.297 180.317V185.298H156.09V173.058H157.246V174.826C157.609 174.237 158.085 173.783 158.674 173.466C159.275 173.149 159.949 172.99 160.697 172.99ZM160.612 181.014C161.236 181.014 161.802 180.872 162.312 180.589C162.822 180.294 163.219 179.881 163.502 179.348C163.797 178.815 163.944 178.209 163.944 177.529C163.944 176.849 163.797 176.248 163.502 175.727C163.219 175.194 162.822 174.781 162.312 174.486C161.802 174.191 161.236 174.044 160.612 174.044C159.978 174.044 159.405 174.191 158.895 174.486C158.397 174.781 158 175.194 157.705 175.727C157.422 176.248 157.28 176.849 157.28 177.529C157.28 178.209 157.422 178.815 157.705 179.348C158 179.881 158.397 180.294 158.895 180.589C159.405 180.872 159.978 181.014 160.612 181.014ZM171.267 182.085C170.405 182.085 169.629 181.892 168.938 181.507C168.246 181.11 167.702 180.566 167.306 179.875C166.909 179.184 166.711 178.402 166.711 177.529C166.711 176.656 166.909 175.874 167.306 175.183C167.702 174.492 168.246 173.953 168.938 173.568C169.629 173.183 170.405 172.99 171.267 172.99C172.128 172.99 172.904 173.183 173.596 173.568C174.287 173.953 174.825 174.492 175.211 175.183C175.607 175.874 175.806 176.656 175.806 177.529C175.806 178.402 175.607 179.184 175.211 179.875C174.825 180.566 174.287 181.11 173.596 181.507C172.904 181.892 172.128 182.085 171.267 182.085ZM171.267 181.014C171.901 181.014 172.468 180.872 172.967 180.589C173.477 180.294 173.873 179.881 174.157 179.348C174.44 178.815 174.582 178.209 174.582 177.529C174.582 176.849 174.44 176.243 174.157 175.71C173.873 175.177 173.477 174.769 172.967 174.486C172.468 174.191 171.901 174.044 171.267 174.044C170.632 174.044 170.06 174.191 169.55 174.486C169.051 174.769 168.654 175.177 168.36 175.71C168.076 176.243 167.935 176.849 167.935 177.529C167.935 178.209 168.076 178.815 168.36 179.348C168.654 179.881 169.051 180.294 169.55 180.589C170.06 180.872 170.632 181.014 171.267 181.014ZM179.426 174.809C179.709 174.208 180.129 173.755 180.684 173.449C181.251 173.143 181.948 172.99 182.775 172.99V174.163L182.486 174.146C181.545 174.146 180.809 174.435 180.276 175.013C179.743 175.591 179.477 176.401 179.477 177.444V182H178.27V173.058H179.426V174.809ZM190.051 181.456C189.825 181.66 189.541 181.819 189.201 181.932C188.873 182.034 188.527 182.085 188.164 182.085C187.326 182.085 186.68 181.858 186.226 181.405C185.773 180.952 185.546 180.311 185.546 179.484V174.078H183.948V173.058H185.546V171.103H186.753V173.058H189.473V174.078H186.753V179.416C186.753 179.949 186.884 180.357 187.144 180.64C187.416 180.912 187.802 181.048 188.3 181.048C188.55 181.048 188.788 181.008 189.014 180.929C189.252 180.85 189.456 180.736 189.626 180.589L190.051 181.456ZM199.719 177.903H192.239C192.307 178.832 192.664 179.586 193.31 180.164C193.956 180.731 194.772 181.014 195.758 181.014C196.313 181.014 196.823 180.918 197.288 180.725C197.753 180.521 198.155 180.226 198.495 179.841L199.175 180.623C198.778 181.099 198.28 181.462 197.679 181.711C197.09 181.96 196.438 182.085 195.724 182.085C194.806 182.085 193.99 181.892 193.276 181.507C192.573 181.11 192.024 180.566 191.627 179.875C191.23 179.184 191.032 178.402 191.032 177.529C191.032 176.656 191.219 175.874 191.593 175.183C191.978 174.492 192.5 173.953 193.157 173.568C193.826 173.183 194.574 172.99 195.401 172.99C196.228 172.99 196.971 173.183 197.628 173.568C198.285 173.953 198.801 174.492 199.175 175.183C199.549 175.863 199.736 176.645 199.736 177.529L199.719 177.903ZM195.401 174.027C194.54 174.027 193.814 174.305 193.225 174.86C192.647 175.404 192.318 176.118 192.239 177.002H198.58C198.501 176.118 198.166 175.404 197.577 174.86C196.999 174.305 196.274 174.027 195.401 174.027ZM91.6428 198.903H84.1628C84.2308 199.832 84.5878 200.586 85.2338 201.164C85.8798 201.731 86.6958 202.014 87.6818 202.014C88.2372 202.014 88.7472 201.918 89.2118 201.725C89.6765 201.521 90.0788 201.226 90.4188 200.841L91.0988 201.623C90.7022 202.099 90.2035 202.462 89.6028 202.711C89.0135 202.96 88.3618 203.085 87.6478 203.085C86.7298 203.085 85.9138 202.892 85.1998 202.507C84.4972 202.11 83.9475 201.566 83.5508 200.875C83.1542 200.184 82.9558 199.402 82.9558 198.529C82.9558 197.656 83.1428 196.874 83.5168 196.183C83.9022 195.492 84.4235 194.953 85.0808 194.568C85.7495 194.183 86.4975 193.99 87.3248 193.99C88.1522 193.99 88.8945 194.183 89.5518 194.568C90.2092 194.953 90.7248 195.492 91.0988 196.183C91.4728 196.863 91.6598 197.645 91.6598 198.529L91.6428 198.903ZM87.3248 195.027C86.4635 195.027 85.7382 195.305 85.1488 195.86C84.5708 196.404 84.2422 197.118 84.1628 198.002H90.5038C90.4245 197.118 90.0902 196.404 89.5008 195.86C88.9228 195.305 88.1975 195.027 87.3248 195.027ZM98.6726 193.99C99.7946 193.99 100.684 194.319 101.342 194.976C102.01 195.622 102.345 196.568 102.345 197.815V203H101.138V197.934C101.138 197.005 100.905 196.296 100.441 195.809C99.9759 195.322 99.3129 195.078 98.4516 195.078C97.4883 195.078 96.7233 195.367 96.1566 195.945C95.6013 196.512 95.3236 197.299 95.3236 198.308V203H94.1166V194.058H95.2726V195.707C95.6013 195.163 96.0546 194.744 96.6326 194.449C97.2219 194.143 97.9019 193.99 98.6726 193.99ZM115.018 193.718C115.868 193.718 116.638 193.916 117.33 194.313C118.032 194.698 118.582 195.248 118.979 195.962C119.375 196.665 119.574 197.486 119.574 198.427C119.574 199.368 119.375 200.195 118.979 200.909C118.582 201.612 118.032 202.161 117.33 202.558C116.638 202.943 115.868 203.136 115.018 203.136C113.85 203.136 112.932 202.768 112.264 202.031V206.298H109.612V193.854H112.145V194.908C112.802 194.115 113.76 193.718 115.018 193.718ZM114.559 200.96C115.239 200.96 115.794 200.733 116.225 200.28C116.667 199.815 116.888 199.198 116.888 198.427C116.888 197.656 116.667 197.044 116.225 196.591C115.794 196.126 115.239 195.894 114.559 195.894C113.879 195.894 113.318 196.126 112.876 196.591C112.445 197.044 112.23 197.656 112.23 198.427C112.23 199.198 112.445 199.815 112.876 200.28C113.318 200.733 113.879 200.96 114.559 200.96ZM130.563 193.854V203H128.047V201.912C127.696 202.309 127.276 202.615 126.789 202.83C126.302 203.034 125.775 203.136 125.208 203.136C124.007 203.136 123.055 202.79 122.352 202.099C121.649 201.408 121.298 200.382 121.298 199.022V193.854H123.95V198.631C123.95 200.104 124.568 200.841 125.803 200.841C126.438 200.841 126.948 200.637 127.333 200.229C127.718 199.81 127.911 199.192 127.911 198.376V193.854H130.563ZM138.579 193.718C139.712 193.718 140.625 194.058 141.316 194.738C142.019 195.418 142.37 196.427 142.37 197.764V203H139.718V198.172C139.718 197.447 139.559 196.908 139.242 196.557C138.925 196.194 138.466 196.013 137.865 196.013C137.196 196.013 136.664 196.223 136.267 196.642C135.87 197.05 135.672 197.662 135.672 198.478V203H133.02V193.854H135.553V194.925C135.904 194.54 136.341 194.245 136.862 194.041C137.383 193.826 137.956 193.718 138.579 193.718ZM150.673 202.558C150.412 202.751 150.089 202.898 149.704 203C149.33 203.091 148.933 203.136 148.514 203.136C147.426 203.136 146.581 202.858 145.981 202.303C145.391 201.748 145.097 200.932 145.097 199.855V196.098H143.686V194.058H145.097V191.831H147.749V194.058H150.027V196.098H147.749V199.821C147.749 200.206 147.845 200.507 148.038 200.722C148.242 200.926 148.525 201.028 148.888 201.028C149.307 201.028 149.664 200.915 149.959 200.688L150.673 202.558ZM156.231 203.136C155.268 203.136 154.401 202.938 153.63 202.541C152.871 202.133 152.276 201.572 151.845 200.858C151.415 200.144 151.199 199.334 151.199 198.427C151.199 197.52 151.415 196.71 151.845 195.996C152.276 195.282 152.871 194.727 153.63 194.33C154.401 193.922 155.268 193.718 156.231 193.718C157.195 193.718 158.056 193.922 158.815 194.33C159.575 194.727 160.17 195.282 160.6 195.996C161.031 196.71 161.246 197.52 161.246 198.427C161.246 199.334 161.031 200.144 160.6 200.858C160.17 201.572 159.575 202.133 158.815 202.541C158.056 202.938 157.195 203.136 156.231 203.136ZM156.231 200.96C156.911 200.96 157.467 200.733 157.897 200.28C158.339 199.815 158.56 199.198 158.56 198.427C158.56 197.656 158.339 197.044 157.897 196.591C157.467 196.126 156.911 195.894 156.231 195.894C155.551 195.894 154.99 196.126 154.548 196.591C154.106 197.044 153.885 197.656 153.885 198.427C153.885 199.198 154.106 199.815 154.548 200.28C154.99 200.733 155.551 200.96 156.231 200.96ZM166.096 203.136C165.337 203.136 164.594 203.045 163.869 202.864C163.144 202.671 162.566 202.433 162.135 202.15L163.019 200.246C163.427 200.507 163.92 200.722 164.498 200.892C165.076 201.051 165.643 201.13 166.198 201.13C167.32 201.13 167.881 200.852 167.881 200.297C167.881 200.036 167.728 199.849 167.422 199.736C167.116 199.623 166.646 199.526 166.011 199.447C165.263 199.334 164.645 199.203 164.158 199.056C163.671 198.909 163.246 198.648 162.883 198.274C162.532 197.9 162.356 197.367 162.356 196.676C162.356 196.098 162.52 195.588 162.849 195.146C163.189 194.693 163.676 194.341 164.311 194.092C164.957 193.843 165.716 193.718 166.589 193.718C167.235 193.718 167.875 193.792 168.51 193.939C169.156 194.075 169.689 194.268 170.108 194.517L169.224 196.404C168.419 195.951 167.541 195.724 166.589 195.724C166.022 195.724 165.597 195.803 165.314 195.962C165.031 196.121 164.889 196.325 164.889 196.574C164.889 196.857 165.042 197.056 165.348 197.169C165.654 197.282 166.141 197.39 166.81 197.492C167.558 197.617 168.17 197.753 168.646 197.9C169.122 198.036 169.536 198.291 169.887 198.665C170.238 199.039 170.414 199.56 170.414 200.229C170.414 200.796 170.244 201.3 169.904 201.742C169.564 202.184 169.065 202.53 168.408 202.779C167.762 203.017 166.991 203.136 166.096 203.136Z" fill="#093642"/>
</svg>
