<svg width="47" height="30" viewBox="0 0 47 30" fill="none" xmlns="http://www.w3.org/2000/svg">
<g id="Badge">
<rect width="46.5672" height="30" rx="5.3912" fill="white"/>
<path id="American Express" fill-rule="evenodd" clip-rule="evenodd" d="M46.585 5.6557H42.7305L40.7158 11.4373L38.6134 5.6557H34.6715V14.6581L30.6419 5.6557H27.4009L23.3712 14.8536H26.1743L26.9627 13.0141H31.1675L31.9559 14.8536H37.2119V8.45877L39.577 14.8536H41.7669L44.1321 8.45877V14.8536H46.585V16.2551H43.3437L40.7158 19.1459L38.0003 16.2551H26.8752V25.453H37.9128L40.6281 22.4747L43.3437 25.453H46.585V26.5915H42.7305L40.6281 24.3141L38.5257 26.5915H25.4737V16.0799H21.2688L26.5247 4.25391H31.6055L33.4449 8.28355V4.25391H39.7522L40.8033 7.31995L41.8547 4.25391H46.585V5.6557ZM46.585 18.2698L44.2198 20.8102L46.585 23.3505V25.453L42.2926 20.8102L46.585 16.2551V18.2698ZM34.6715 25.453V23.263H29.4156V21.8615H34.5838V19.7591H29.4156V18.3575H34.6715V16.2551L39.0513 20.8102L34.6715 25.453ZM27.7511 10.9991L28.9776 8.02084L30.2039 10.9991H27.7511Z" fill="#006FCF"/>
</g>
</svg>
