<svg width="39" height="12" viewBox="0 0 39 12" fill="none" xmlns="http://www.w3.org/2000/svg">
<g id="Capa_1" clip-path="url(#clip0_343_7736)">
<path id="Vector" fill-rule="evenodd" clip-rule="evenodd" d="M18.8558 4.2714C18.5315 4.2714 18.2669 4.53594 18.2669 4.84773V9.19698C18.2669 9.52136 18.5315 9.7859 18.8558 9.7859C19.1802 9.7859 19.4448 9.52136 19.4448 9.19698V4.84773C19.4448 4.53594 19.1802 4.2714 18.8558 4.2714ZM18.8558 2.1015C18.4937 2.1015 18.1913 2.40384 18.1913 2.76601C18.1913 3.12819 18.4937 3.44312 18.8558 3.44312C19.218 3.44312 19.5204 3.14078 19.5204 2.76601C19.5204 2.39124 19.218 2.1015 18.8558 2.1015ZM24.5971 4.84773C24.5971 4.48556 24.3074 4.34698 24.046 4.34698H21.1265C20.8368 4.34698 20.6132 4.57374 20.6132 4.84773C20.6132 5.12172 20.8399 5.36107 21.1265 5.36107H23.0445L20.5628 8.8222C20.4872 8.92298 20.4494 9.06155 20.4494 9.17178C20.4494 9.53396 20.7392 9.73551 20.9879 9.73551H24.0838C24.3735 9.73551 24.5971 9.50876 24.5971 9.22217C24.5971 8.93558 24.3703 8.70883 24.0838 8.70883H22.002L24.4333 5.32328C24.5593 5.14692 24.5971 4.9989 24.5971 4.84773ZM15.9994 7.57821C15.9994 8.29311 15.6876 8.73087 14.9727 8.73087C14.2578 8.73087 13.9586 8.29311 13.9586 7.57821V5.35792H15.0231C15.8892 5.35792 15.9994 5.83348 15.9994 6.35942V7.57506V7.57821ZM17.1772 6.33737C17.1772 5.12172 16.5379 4.33124 15.0451 4.33124H13.9681V2.69043C13.9681 2.36605 13.7035 2.1015 13.3917 2.1015C13.0799 2.1015 12.8028 2.36605 12.8028 2.69043V7.57821C12.8028 8.79386 13.4547 9.7859 14.9947 9.7859C16.5348 9.7859 17.1867 8.78441 17.1867 7.57821V6.33737H17.1741H17.1772ZM29.1951 4.2714C28.8708 4.2714 28.6062 4.53594 28.6062 4.86033V7.58136C28.6062 8.29626 28.2944 8.73402 27.5795 8.73402C26.8646 8.73402 26.5654 8.29626 26.5654 7.58136V4.86033C26.5654 4.53594 26.3009 4.2714 25.9891 4.2714C25.6773 4.2714 25.4002 4.53594 25.4002 4.86033V7.58136C25.4002 8.79701 26.0521 9.78905 27.5921 9.78905C29.1322 9.78905 29.7841 8.78756 29.7841 7.58136V4.86033C29.7715 4.53594 29.5069 4.2714 29.1951 4.2714ZM38.133 6.48854C38.133 5.27289 37.5693 4.28085 36.0418 4.28085C35.3521 4.28085 34.864 4.48241 34.5238 4.81939C34.1869 4.495 33.6956 4.28085 33.0059 4.28085C31.4753 4.28085 30.9115 5.28234 30.9115 6.48854V9.20957C30.9115 9.53396 31.1761 9.7985 31.4879 9.7985C31.7997 9.7985 32.0768 9.53396 32.0768 9.20957V6.48854C32.0768 5.77364 32.3035 5.33588 33.0027 5.33588C33.7019 5.33588 33.9286 5.77364 33.9286 6.48854V9.20957C33.9286 9.53396 34.1932 9.7985 34.5049 9.7985C34.8167 9.7985 35.0939 9.53396 35.0939 9.20957V6.48854C35.0939 5.77364 35.3206 5.33588 36.0198 5.33588C36.7189 5.33588 36.9457 5.77364 36.9457 6.48854V9.20957C36.9457 9.53396 37.2071 9.7985 37.522 9.7985C37.8369 9.7985 38.1109 9.53396 38.1109 9.20957L38.1235 6.48854H38.133ZM2.08873 4.284C2.50129 4.58633 3.07762 4.49815 3.37996 4.08244L4.45704 2.58965C4.75937 2.17708 4.67119 1.60075 4.25548 1.29842C3.84291 0.99608 3.26658 1.08426 2.96424 1.49998L1.87457 2.99277C1.58483 3.40533 1.67301 3.98166 2.08873 4.284ZM7.0269 2.17708C6.61434 1.87475 6.03801 1.96293 5.73567 2.37864L1.39902 8.3435C1.09668 8.75607 1.18486 9.3324 1.60058 9.63474C2.01314 9.93707 2.58947 9.84889 2.89181 9.43318L7.22846 3.46517C7.54024 3.0526 7.44261 2.47627 7.0269 2.17394V2.17708ZM1.67301 1.70153C1.97535 1.28897 1.88717 0.712639 1.47146 0.410302C1.05889 0.107965 0.482561 0.196146 0.183373 0.60871C-0.118964 1.02442 -0.0307825 1.60075 0.381782 1.89994C0.794346 2.20228 1.37068 2.1141 1.67301 1.69838V1.70153ZM8.25515 9.89928C7.84258 9.59694 7.26625 9.68513 6.96391 10.1008C6.66158 10.5134 6.74976 11.0897 7.16547 11.3921C7.57804 11.6944 8.15437 11.6062 8.4567 11.1905C8.75904 10.7779 8.67086 10.2016 8.25515 9.89928ZM6.5608 7.52782C6.14823 7.22549 5.5719 7.31367 5.26957 7.72938L4.17989 9.22217C3.87756 9.63474 3.96574 10.2111 4.38145 10.5134C4.79401 10.8157 5.37035 10.7276 5.67268 10.3118L6.76236 8.81906C7.06469 8.40649 6.97651 7.83016 6.5608 7.52782Z" fill="#05C0C7"/>
</g>
<defs>
<clipPath id="clip0_343_7736">
<rect width="38.1291" height="11.3376" fill="white" transform="translate(0.00378418 0.230469)"/>
</clipPath>
</defs>
</svg>
