<svg width="31" height="30" viewBox="0 0 31 30" fill="none" xmlns="http://www.w3.org/2000/svg">
<g id="katman_1" clip-path="url(#clip0_343_7743)">
<path id="Vector" d="M9.233 23.0569C9.39293 23.0569 9.54085 23.0273 9.67121 22.9742C9.79555 22.921 9.90233 22.8498 9.99709 22.7611C10.0031 22.7551 10.0091 22.749 10.0147 22.7435C10.1094 22.6427 10.1866 22.5359 10.2398 22.4056C10.2929 22.2812 10.317 22.1449 10.317 22.003C10.317 21.8611 10.2934 21.7247 10.2398 21.6004C10.1866 21.47 10.1094 21.3577 10.0147 21.2624C9.9199 21.1677 9.80156 21.0905 9.67121 21.0373C9.54085 20.9842 9.39293 20.9546 9.233 20.9546C9.07306 20.9546 8.92514 20.9842 8.79478 21.0373C8.66443 21.0905 8.54609 21.1677 8.45133 21.2624C8.35657 21.3632 8.28538 21.47 8.23222 21.6004C8.17907 21.7247 8.15503 21.8611 8.15503 22.003C8.15503 22.1449 8.1786 22.2812 8.23222 22.4056C8.28538 22.5359 8.35657 22.6483 8.45133 22.7435L8.4689 22.7611C8.55765 22.8558 8.67044 22.921 8.79478 22.9742C8.92514 23.0273 9.07306 23.0569 9.233 23.0569ZM8.66397 22.0081C8.66397 21.8777 8.69355 21.7654 8.74671 21.6702C8.79987 21.5814 8.87105 21.5102 8.95981 21.4571C9.04255 21.4094 9.13731 21.3859 9.23808 21.3859C9.33885 21.3859 9.4276 21.4094 9.51635 21.4571C9.5991 21.5047 9.67629 21.5754 9.72945 21.6702C9.78261 21.7589 9.80665 21.8717 9.81219 22.0081C9.81219 22.1384 9.78261 22.2507 9.72945 22.346C9.67629 22.4347 9.60511 22.5059 9.51635 22.5535C9.4276 22.6067 9.33284 22.6307 9.23808 22.6307C9.13731 22.6307 9.04255 22.6071 8.95981 22.5535C8.87105 22.5059 8.79987 22.4352 8.74671 22.346C8.69355 22.2512 8.66397 22.1384 8.66397 22.0081Z" fill="white"/>
<path id="Vector_2" d="M12.6276 23.0154V20.9954H12.1538V22.0202L11.0047 20.9658L10.8919 20.9954L10.8859 23.0154H11.3597V21.9846L12.5208 23.045L12.6276 23.0154Z" fill="white"/>
<path id="Vector_3" d="M6.59593 21.463C6.68468 21.4099 6.78545 21.3803 6.89824 21.3803C6.98699 21.3803 7.07019 21.3923 7.13537 21.4219C7.20656 21.4575 7.25972 21.4871 7.30132 21.5227C7.34893 21.5583 7.37851 21.5818 7.39608 21.6054L7.68637 21.262C7.65078 21.2264 7.59762 21.1792 7.53244 21.1316C7.46126 21.084 7.37851 21.0429 7.27173 21.0073C7.16495 20.9777 7.04061 20.9541 6.8987 20.9541C6.76233 20.9601 6.62597 20.9837 6.49608 21.0313C6.36572 21.0789 6.2534 21.1436 6.15263 21.2388C6.04585 21.3276 5.96311 21.4344 5.90995 21.5587C5.84477 21.6891 5.81519 21.8315 5.81519 21.9914C5.81519 22.1989 5.8628 22.3825 5.95756 22.5424C6.00517 22.6251 6.06434 22.6963 6.12952 22.7555C6.19469 22.8147 6.26588 22.8683 6.34261 22.9154C6.50255 23.0042 6.68005 23.0518 6.8816 23.0518C7.02952 23.0518 7.15987 23.0282 7.26665 22.9926C7.37343 22.957 7.46218 22.9099 7.53337 22.8563C7.57497 22.8207 7.61611 22.7851 7.64616 22.7555C7.65817 22.7379 7.67574 22.7259 7.68776 22.7079L7.39747 22.4C7.37389 22.4296 7.3383 22.4592 7.29069 22.4948C7.24307 22.5304 7.18992 22.56 7.12474 22.5835C7.05956 22.6071 6.98838 22.6251 6.91164 22.6251C6.78129 22.6191 6.66896 22.5895 6.58576 22.5304C6.49099 22.4712 6.42582 22.394 6.38422 22.2992C6.34261 22.2045 6.31904 22.1037 6.31904 21.9914C6.31904 21.8791 6.34261 21.7783 6.39623 21.6835C6.44384 21.5888 6.51457 21.5176 6.59777 21.4644L6.59593 21.463Z" fill="white"/>
<path id="Vector_4" d="M15.7195 20.9954H15.2457V23.0154H15.7195V20.9954Z" fill="white"/>
<path id="Vector_5" d="M19.997 22.0202L18.8479 20.9658L18.7351 20.9954V23.0154H19.2094V21.9846L20.3645 23.045L20.4709 23.0154V20.9954H19.997V22.0202Z" fill="white"/>
<path id="Vector_6" d="M13.9247 21.398H14.7244V20.9954H13.4509V23.0154H13.9247V22.1977H14.5525V21.7951H13.9247V21.398Z" fill="white"/>
<path id="Vector_7" d="M22.6459 20.9954H21.1649V21.398H21.947L21.0581 22.9502L21.0937 23.0154H22.6224V22.6128H21.8106L22.6755 21.0605L22.6459 20.9954Z" fill="white"/>
<path id="Vector_8" d="M17.3313 20.9773H17.1653L16.2233 23.0154H16.7562L16.869 22.7727H17.6271L17.7455 23.0154H18.2669L17.3308 20.9773H17.3313ZM17.029 22.3816L17.2421 21.8838L17.4552 22.3816H17.0285H17.029Z" fill="white"/>
<path id="Vector_9" d="M24.0971 20.9773L23.155 23.0154H23.688L23.8008 22.7727H24.5589L24.6772 23.0154H25.1986L24.2626 20.9773H24.0966H24.0971ZM23.9667 22.3816L24.1798 21.8838L24.3929 22.3816H23.9663H23.9667Z" fill="white"/>
<path id="Vector_10" d="M19.7304 25.1485L18.3502 23.7502L18.2494 23.7798V26.0846H18.6881V24.7159L20.0744 26.1142L20.1751 26.0846V23.7798L19.7364 23.7858L19.7304 25.1485Z" fill="white"/>
<path id="Vector_11" d="M10.5483 23.9038C10.3648 23.7971 10.1572 23.7439 9.91453 23.7439C9.67184 23.7439 9.46429 23.7971 9.28078 23.9038C9.10328 24.0162 8.9609 24.1585 8.85412 24.3365C8.75335 24.52 8.7002 24.7216 8.7002 24.9407C8.7002 25.1598 8.74781 25.3613 8.85412 25.5448C8.95489 25.7283 9.09681 25.8707 9.28078 25.9775C9.46429 26.0843 9.67785 26.1434 9.91453 26.1434C10.1517 26.1374 10.3648 26.0843 10.5483 25.9775C10.7318 25.8707 10.8742 25.7288 10.9809 25.5448C11.0877 25.3613 11.1409 25.1598 11.1409 24.9407C11.1409 24.7216 11.0877 24.52 10.9809 24.3365C10.8742 24.159 10.7322 24.0106 10.5483 23.9038ZM10.5598 25.3673C10.4886 25.4857 10.3939 25.5749 10.2816 25.64C10.1748 25.7052 10.0504 25.7408 9.92007 25.7408C9.78972 25.7348 9.66537 25.7052 9.55258 25.64C9.44026 25.5749 9.35104 25.4861 9.27986 25.3673C9.20867 25.243 9.17308 25.1006 9.17308 24.9407C9.17308 24.7807 9.20867 24.6328 9.27986 24.514C9.35104 24.3897 9.43979 24.3009 9.55258 24.2357C9.66537 24.1706 9.78972 24.135 9.92007 24.135C10.0504 24.135 10.1688 24.1706 10.2816 24.2357C10.3999 24.3009 10.4891 24.3957 10.5598 24.514C10.631 24.6323 10.6666 24.7747 10.6666 24.9407C10.6666 25.1066 10.631 25.2485 10.5598 25.3673Z" fill="white"/>
<path id="Vector_12" d="M13.4209 25.1485L12.0406 23.7502L11.9399 23.7798L11.9343 26.0786H12.3725V24.7099L13.7588 26.1082L13.8596 26.0786V23.7738L13.4209 23.7798V25.1485Z" fill="white"/>
<path id="Vector_13" d="M15.1455 23.7917H14.7068V26.0901H16.0931V25.717H15.1455V23.7917Z" fill="white"/>
<path id="Vector_14" d="M21.4661 25.1068H22.2838V24.7337H21.4661V24.1647H22.4557V23.7856H21.0219V26.09H22.4913V25.7169H21.4661V25.1068Z" fill="white"/>
<path id="Vector_15" d="M17.2959 23.7856H16.8517V26.09H17.2959V23.7856Z" fill="white"/>
<path id="Vector_16" d="M15.8741 18.7854H16.0516C18.0656 18.7854 19.8133 18.0624 21.2292 16.635C22.6687 15.2191 23.3976 13.4834 23.3976 11.4749V11.4037C23.3976 11.0718 23.1309 10.8056 22.7995 10.8056C22.468 10.8056 22.2013 11.0723 22.2013 11.4037V11.4749C22.2013 13.175 21.6087 14.5849 20.3884 15.7817C19.1801 16.99 17.7582 17.5766 16.046 17.5766H15.8861C14.2331 17.541 12.8528 16.9544 11.6741 15.7817C10.4657 14.5849 9.87914 13.175 9.87914 11.4749C9.87914 9.77474 10.4657 8.37042 11.6741 7.16811C12.8528 6.00093 14.2331 5.42035 15.8921 5.38475C16.224 5.37874 16.4847 5.10648 16.4787 4.77458C16.4727 4.4487 16.2059 4.18799 15.8805 4.18799H15.8685C13.9197 4.22959 12.2251 4.94608 10.8328 6.32081C9.40487 7.74269 8.68237 9.47843 8.68237 11.4809C8.68237 13.4834 9.40533 15.2307 10.8328 16.641C12.2251 18.0213 13.9192 18.7442 15.8741 18.7854Z" fill="white"/>
<path id="Vector_17" d="M26.3243 4.39553C23.4094 1.47504 19.8431 0 15.7198 0C11.5966 0 8.03033 1.48105 5.11538 4.39553C2.19489 7.31048 0.719849 10.8767 0.719849 15C0.719849 19.1233 2.2009 22.6895 5.11538 25.6045C8.02986 28.525 11.5966 30 15.7198 30C19.8431 30 23.4154 28.519 26.3243 25.6045C29.2448 22.69 30.7198 19.1233 30.7198 15C30.7198 10.8767 29.2388 7.31048 26.3243 4.39553ZM25.649 24.9291C22.918 27.6541 19.5769 29.0404 15.7198 29.0404C11.8628 29.0404 8.52216 27.6601 5.79073 24.9291C3.06577 22.1982 1.67948 18.857 1.67948 15C1.67948 11.143 3.05976 7.80231 5.79073 5.07088C8.52216 2.34592 11.8633 0.95963 15.7198 0.95963C19.5764 0.95963 22.9235 2.33991 25.649 5.07088C28.3739 7.80185 29.7602 11.143 29.7602 15C29.7602 18.857 28.3799 22.1977 25.649 24.9291Z" fill="white"/>
<path id="Vector_18" d="M15.7792 6.23797C14.446 6.29714 13.2909 6.81255 12.3312 7.76663C11.3064 8.79144 10.791 10.0414 10.791 11.4868C10.791 12.9323 11.3124 14.1822 12.3312 15.2015C13.2849 16.1611 14.446 16.6765 15.7792 16.7417H15.8087C16.1226 16.7417 16.3893 16.493 16.4013 16.1786C16.4189 15.8468 16.1642 15.5685 15.8328 15.5509C14.7899 15.5033 13.9251 15.1127 13.173 14.3602C12.3793 13.5605 11.9882 12.6244 11.9882 11.4928C11.9882 10.3612 12.3733 9.41917 13.173 8.61948C13.9255 7.87295 14.7964 7.48789 15.8328 7.44074H15.8448C15.91 7.43473 15.9812 7.43473 16.0523 7.43473C17.1839 7.43473 18.12 7.81979 18.9197 8.61948C19.7018 9.40761 20.0929 10.3256 20.1104 11.4276C20.1164 11.7595 20.3832 12.0202 20.7086 12.0202H20.7206C21.0525 12.0142 21.3188 11.742 21.3132 11.4101C21.2956 10.0002 20.7742 8.77387 19.773 7.77264C18.7482 6.74783 17.5038 6.23242 16.0584 6.23242C15.9696 6.23242 15.8748 6.23242 15.7801 6.23843L15.7792 6.23797Z" fill="white"/>
<path id="Vector_19" d="M16.0457 8.32959C15.1808 8.32959 14.4283 8.63745 13.8121 9.25363C13.1959 9.86981 12.8881 10.6219 12.8881 11.4872C12.8881 12.3525 13.2019 13.1106 13.8121 13.7208C14.4283 14.331 15.1804 14.6448 16.0457 14.6448C16.911 14.6448 17.6631 14.337 18.2733 13.7208C18.8894 13.1046 19.2033 12.3581 19.2033 11.4872C19.2033 10.6163 18.8955 9.86981 18.2793 9.25363C17.6631 8.63745 16.911 8.32959 16.0457 8.32959ZM17.432 12.8735C17.0469 13.2586 16.5967 13.4481 16.0517 13.4481C15.5067 13.4481 15.0505 13.2586 14.6654 12.8735C14.2804 12.4884 14.0908 12.0382 14.0908 11.4932C14.0908 10.9482 14.2743 10.492 14.6594 10.1069C15.0445 9.72189 15.5007 9.53236 16.0457 9.53236C16.5907 9.53236 17.0469 9.71588 17.432 10.1009C17.817 10.486 18.0066 10.9422 18.0066 11.4872C18.0066 12.0322 17.823 12.4884 17.432 12.8735Z" fill="white"/>
</g>
<defs>
<clipPath id="clip0_343_7743">
<rect width="30" height="30" fill="white" transform="translate(0.719849)"/>
</clipPath>
</defs>
</svg>
