<svg width="28" height="30" viewBox="0 0 28 30" fill="none" xmlns="http://www.w3.org/2000/svg">
<path d="M7.54028 11.3668V9.09347C7.54028 5.33109 8.67696 2.27344 14.3603 2.27344C20.0437 2.27344 21.1804 5.33109 21.1804 9.09347V11.3668" stroke="white" stroke-linecap="round" stroke-linejoin="round"/>
<path d="M19.9017 25.0073H8.53493C3.98824 25.0073 2.85156 23.8706 2.85156 19.3239V17.0506C2.85156 12.5039 3.98824 11.3672 8.53493 11.3672H19.9017C24.4483 11.3672 25.585 12.5039 25.585 17.0506V19.3239C25.585 23.8706 24.4483 25.0073 19.9017 25.0073Z" stroke="white" stroke-linecap="round" stroke-linejoin="round"/>
<path d="M12.1718 19.1188C12.1718 20.1341 11.3566 20.8456 10.0226 20.8456C8.68122 20.8456 7.84377 20.1267 7.76225 19.0002H8.90355C8.93319 19.5857 9.31116 19.9637 10.0004 19.9637C10.571 19.9637 10.9786 19.7117 10.9786 19.2819C10.9786 18.9484 10.7193 18.7483 10.2672 18.6593L9.39268 18.4889C8.58487 18.3333 7.96235 17.896 7.96235 17.0141C7.96235 16.0655 8.79979 15.3837 9.94851 15.3837C11.1417 15.3837 12.0162 16.0803 12.0903 17.192H10.949C10.9119 16.6361 10.5266 16.2582 9.96333 16.2582C9.41491 16.2582 9.10365 16.5694 9.10365 16.94C9.10365 17.3031 9.43714 17.4587 9.82252 17.5329L10.7341 17.7181C11.6679 17.9034 12.1718 18.3333 12.1718 19.1188ZM17.086 19.1188C17.086 20.1341 16.2708 20.8456 14.9368 20.8456C13.5954 20.8456 12.7579 20.1267 12.6764 19.0002H13.8177C13.8473 19.5857 14.2253 19.9637 14.9145 19.9637C15.4852 19.9637 15.8928 19.7117 15.8928 19.2819C15.8928 18.9484 15.6334 18.7483 15.1813 18.6593L14.3068 18.4889C13.499 18.3333 12.8765 17.896 12.8765 17.0141C12.8765 16.0655 13.714 15.3837 14.8627 15.3837C16.0558 15.3837 16.9303 16.0803 17.0045 17.192H15.8632C15.8261 16.6361 15.4407 16.2582 14.8775 16.2582C14.3291 16.2582 14.0178 16.5694 14.0178 16.94C14.0178 17.3031 14.3513 17.4587 14.7367 17.5329L15.6482 17.7181C16.582 17.9034 17.086 18.3333 17.086 19.1188ZM21.3554 20.7715H17.9166V15.4504H19.0431V19.7562H21.3554V20.7715Z" fill="white"/>
<path d="M3.90891 29.0604H3.45925V29.8691H3.1034V27.5464H3.90891C4.42974 27.5464 4.76618 27.8117 4.76618 28.2969C4.76618 28.7854 4.42974 29.0604 3.90891 29.0604ZM3.90568 27.8473H3.45925V28.7595H3.90568C4.21947 28.7595 4.41033 28.5881 4.41033 28.3002C4.41033 28.0123 4.21947 27.8473 3.90568 27.8473ZM6.55907 29.8691L6.34879 29.2933H5.34595L5.13244 29.8691H4.77336L5.66298 27.5464H6.05441L6.93756 29.8691H6.55907ZM5.85061 27.9346L5.4527 29.0054H6.24204L5.85061 27.9346ZM8.16374 29.9177C7.4941 29.9177 6.97651 29.4098 6.97651 28.7045C6.97651 28.0187 7.46822 27.4979 8.14433 27.4979C8.7428 27.4979 9.14718 27.8635 9.28951 28.3455H8.87544C8.78809 28.0478 8.53253 27.8182 8.13463 27.8182C7.67526 27.8182 7.34529 28.1643 7.34529 28.711C7.34529 29.2254 7.65909 29.6136 8.17668 29.6136C8.60693 29.6136 8.87867 29.3483 8.94337 28.9504H8.1411V28.6657H9.31863C9.33157 29.4098 8.87544 29.9177 8.16374 29.9177ZM10.7351 29.9177C10.0623 29.9177 9.55438 29.3904 9.55438 28.7045C9.55438 28.0187 10.0623 27.4979 10.7351 27.4979C11.408 27.4979 11.9159 28.0187 11.9159 28.7045C11.9159 29.3904 11.408 29.9177 10.7351 29.9177ZM10.7351 29.5974C11.2269 29.5974 11.5471 29.2027 11.5471 28.7045C11.5471 28.2064 11.2269 27.8182 10.7351 27.8182C10.2434 27.8182 9.92317 28.2064 9.92317 28.7045C9.92317 29.2027 10.2434 29.5974 10.7351 29.5974ZM14.6583 29.1898C14.6583 29.5942 14.3348 29.9015 13.772 29.9015C13.2123 29.9015 12.8726 29.5942 12.8435 29.1316H13.2058C13.222 29.4259 13.4096 29.6168 13.7655 29.6168C14.0599 29.6168 14.2798 29.4777 14.2798 29.2383C14.2798 29.0442 14.1537 28.9472 13.8852 28.8889L13.5487 28.8242C13.222 28.7595 12.9244 28.5946 12.9244 28.1999C12.9244 27.8085 13.2673 27.5141 13.7493 27.5141C14.2313 27.5141 14.5969 27.8085 14.626 28.2711H14.2637C14.2443 27.9929 14.0437 27.7988 13.7525 27.7988C13.4517 27.7988 13.2867 27.9767 13.2867 28.1772C13.2867 28.3972 13.4776 28.4749 13.6943 28.5202L14.0372 28.5881C14.4351 28.669 14.6583 28.8437 14.6583 29.1898ZM16.5422 29.5586V29.8691H15.0703V27.5464H16.5196V27.857H15.4261V28.5169H16.4225V28.8275H15.4261V29.5586H16.5422ZM18.0108 29.9177C17.3412 29.9177 16.8236 29.4098 16.8236 28.7045C16.8236 28.0187 17.3153 27.4979 17.9914 27.4979C18.5899 27.4979 18.9943 27.8635 19.1366 28.3455H18.7225C18.6352 28.0478 18.3796 27.8182 17.9817 27.8182C17.5224 27.8182 17.1924 28.1643 17.1924 28.711C17.1924 29.2254 17.5062 29.6136 18.0238 29.6136C18.454 29.6136 18.7258 29.3483 18.7905 28.9504H17.9882V28.6657H19.1657C19.1787 29.4098 18.7225 29.9177 18.0108 29.9177ZM21.3263 27.5464V29.0345C21.3263 29.5683 20.9834 29.9177 20.427 29.9177C19.8705 29.9177 19.5309 29.5683 19.5309 29.0345V27.5464H19.8867V29.0442C19.8867 29.3807 20.0841 29.5974 20.427 29.5974C20.7731 29.5974 20.9704 29.3807 20.9704 29.0442V27.5464H21.3263ZM22.1773 29.8691H21.8214V27.5464H22.6884C23.2222 27.5464 23.5424 27.8085 23.5424 28.2711C23.5424 28.6043 23.3321 28.8598 22.9795 28.9439L23.6104 29.8691H23.1833L22.6043 28.9957H22.1773V29.8691ZM22.1773 27.844V28.6981H22.6657C22.9957 28.6981 23.1833 28.5525 23.1833 28.2711C23.1833 27.9929 22.9957 27.844 22.6657 27.844H22.1773ZM24.9735 29.9177C24.3006 29.9177 23.7927 29.3904 23.7927 28.7045C23.7927 28.0187 24.3006 27.4979 24.9735 27.4979C25.6463 27.4979 26.1542 28.0187 26.1542 28.7045C26.1542 29.3904 25.6463 29.9177 24.9735 29.9177ZM24.9735 29.5974C25.4652 29.5974 25.7855 29.2027 25.7855 28.7045C25.7855 28.2064 25.4652 27.8182 24.9735 27.8182C24.4818 27.8182 24.1615 28.2064 24.1615 28.7045C24.1615 29.2027 24.4818 29.5974 24.9735 29.5974Z" fill="white"/>
</svg>
