<svg width="47" height="30" viewBox="0 0 47 30" fill="none" xmlns="http://www.w3.org/2000/svg">
<g id="Badge">
<rect x="0.134766" width="46.5672" height="30" rx="5.91582" fill="white"/>
<g id="Mastercard">
<path d="M26.7633 8.84035H19.9069V21.1614H26.7633V8.84035Z" fill="#FF5F00"/>
<path d="M20.3423 15.0009C20.3412 13.8143 20.6101 12.643 21.1286 11.5756C21.6471 10.5083 22.4017 9.57294 23.3351 8.84034C22.1792 7.93174 20.7909 7.3667 19.329 7.20979C17.8671 7.05289 16.3906 7.31044 15.0681 7.95303C13.7457 8.59563 12.6307 9.59733 11.8507 10.8436C11.0706 12.0899 10.657 13.5306 10.657 15.0009C10.657 16.4712 11.0706 17.9118 11.8507 19.1581C12.6307 20.4044 13.7457 21.4061 15.0681 22.0487C16.3906 22.6913 17.8671 22.9488 19.329 22.7919C20.7909 22.635 22.1792 22.07 23.3351 21.1614C22.4017 20.4288 21.6471 19.4934 21.1286 18.4261C20.6101 17.3588 20.3412 16.1875 20.3423 15.0009Z" fill="#EB001B"/>
<path d="M36.0129 15.0009C36.0129 16.4711 35.5993 17.9118 34.8193 19.1581C34.0393 20.4044 32.9243 21.4061 31.6019 22.0487C30.2795 22.6913 28.803 22.9488 27.3411 22.7919C25.8793 22.635 24.491 22.07 23.3351 21.1614C24.2677 20.428 25.0217 19.4925 25.5401 18.4254C26.0585 17.3582 26.3279 16.1873 26.3279 15.0009C26.3279 13.8144 26.0585 12.6435 25.5401 11.5764C25.0217 10.5092 24.2677 9.57368 23.3351 8.84034C24.491 7.93174 25.8793 7.36669 27.3411 7.20979C28.803 7.05289 30.2795 7.31045 31.6019 7.95305C32.9243 8.59565 34.0393 9.59735 34.8193 10.8437C35.5993 12.09 36.0129 13.5306 36.0129 15.0009Z" fill="#F79E1B"/>
<path d="M35.2653 19.8564V19.6041H35.367V19.5528H35.108V19.6041H35.2097V19.8564H35.2653ZM35.7682 19.8564V19.5523H35.6888L35.5975 19.7614L35.5061 19.5523H35.4267V19.8564H35.4827V19.627L35.5684 19.8248H35.6265L35.7122 19.6265V19.8564H35.7682Z" fill="#F79E1B"/>
</g>
</g>
</svg>
