<svg width="48" height="30" viewBox="0 0 48 30" fill="none" xmlns="http://www.w3.org/2000/svg">
<g id="Badge">
<rect x="0.567383" width="46.5672" height="30" rx="5.42618" fill="white"/>
<path id="Visa" d="M23.5663 10.1118L21.3942 20.265H18.7678L20.9401 10.1118H23.5663ZM34.6168 16.6678L35.9995 12.8549L36.7952 16.6678H34.6168ZM37.5472 20.265H39.9767L37.8567 10.1118H35.6142C35.1104 10.1118 34.6852 10.4048 34.4959 10.8567L30.5554 20.265H33.3137L33.8612 18.7489H37.231L37.5472 20.265ZM30.6923 16.9499C30.7036 14.2701 26.9865 14.1226 27.0122 12.9256C27.0199 12.5608 27.3673 12.1739 28.126 12.0746C28.5029 12.0255 29.5393 11.9879 30.7161 12.5293L31.1769 10.3762C30.5448 10.1468 29.7315 9.92603 28.7199 9.92603C26.1239 9.92603 24.2967 11.3063 24.2813 13.2826C24.2649 14.7441 25.5857 15.5597 26.5809 16.0456C27.6041 16.5434 27.948 16.8622 27.9435 17.3073C27.9367 17.9889 27.1272 18.289 26.372 18.3009C25.0512 18.3218 24.2848 17.9445 23.6739 17.6598L23.198 19.8846C23.8115 20.1664 24.9442 20.4113 26.1194 20.4238C28.8783 20.4238 30.6833 19.0606 30.6923 16.9499ZM19.8131 10.1118L15.5577 20.265H12.7809L10.6869 12.162C10.5597 11.663 10.4491 11.4804 10.0625 11.2699C9.43171 10.9277 8.38891 10.606 7.47144 10.4068L7.5341 10.1118H12.0032C12.5727 10.1118 13.0852 10.491 13.2144 11.1469L14.3205 17.0226L17.0536 10.1118H19.8131Z" fill="#1434CB"/>
</g>
</svg>
